<svg width="225" height="127" viewBox="0 0 225 127" fill="none" xmlns="http://www.w3.org/2000/svg">
<g filter="url(#filter0_d_101_2)">
<path d="M40.9375 65.25C41.8125 62.8125 43 59.6875 44.625 55.75C47.0625 49.8125 49.75 43.9375 52.8125 38.1875C55.875 32.4375 59.0625 27.1875 62.375 22.5C65.6875 17.8125 69.0625 14.0625 72.5 11.1875C75.9375 8.3125 79.1875 6.875 82.375 6.875C83.9375 6.875 85.1875 7.375 86.25 8.4375C87.25 9.5 87.75 11.25 87.75 13.625C87.75 17.4375 87.1875 21.5 86.0625 25.875C84.9375 30.25 83.4375 34.875 81.625 39.6875C79.8125 44.5625 77.8125 49.625 75.625 54.875C72.1875 63.1875 69.0625 71.4375 66.3125 79.5C63.5 87.625 62.125 95 62.125 101.688C62.125 104.312 62.625 107.062 63.6875 109.875C64.75 112.75 66.1875 115.062 68.125 116.75C68.4375 117.062 68.5625 117.375 68.5625 117.688C68.5625 118.438 68.1875 118.812 67.375 118.875C67 118.875 66.6875 118.75 66.375 118.5C64.5625 116.562 63.1875 114.062 62.25 111.062C61.3125 108.062 60.8125 104.938 60.8125 101.688C60.8125 93.6875 62.25 85.1875 65.1875 76.1875C68.4375 66.625 71.6875 57.8125 74.9375 49.75C76.875 44.8125 78.6875 40.1875 80.3125 35.8125C81.875 31.5 83.1875 27.4375 84.125 23.625C85.0625 19.875 85.5625 16.4375 85.5625 13.3125C85.5625 11.75 85.3125 10.5 84.75 9.5625C84.1875 8.625 83.375 8.1875 82.375 8.1875C79.4375 8.1875 76.375 9.5625 73.0625 12.375C69.75 15.1875 66.375 19 63.0625 23.75C59.75 28.5 56.5625 33.8125 53.5 39.625C48.9375 48.3125 45.25 56.875 42.3125 65.25C39.375 73.6875 37.9375 80.25 37.9375 85.0625C37.9375 85.5625 37.625 85.8125 37 85.8125C36.4375 85.8125 36.125 85.5625 36.125 85.0625C36.125 77.5625 37.375 69.75 39.9375 61.5625C42.75 52.9375 45.5625 45 48.375 37.8125C50.9375 31.25 53.0625 25.25 54.8125 19.8125C56.5625 14.375 57.4375 9.5625 57.4375 5.3125C57.4375 2.8125 56.625 1.5 54.9375 1.4375C52.1875 1.4375 49.125 3.25 45.6875 6.8125C42.25 10.375 38.75 15.0625 35.125 20.8125C31.5 26.625 28 32.875 24.6875 39.625C21.375 46.4375 18.375 53.0625 15.6875 59.5625C13 66.125 10.8125 71.875 9.25 76.9375C7.6875 82 6.875 85.5625 6.875 87.6875C6.875 88.375 6.5 88.75 5.75 88.75C5.0625 88.75 4.6875 88.375 4.6875 87.6875C4.6875 81.6875 5.6875 74.125 7.6875 65C9.625 55.875 12.125 46.8125 15.125 37.875C18.0625 28.9375 21.1875 21.375 24.5 15.25C24.8125 14.5625 25.3125 14.25 26 14.25C26.1875 14.25 26.375 14.3125 26.6875 14.375C26.9375 14.5 27.125 14.6875 27.1875 14.875C27.25 15.125 27.3125 15.3125 27.3125 15.5C27.3125 15.6875 27.25 15.9375 27.0625 16.1875C23 24.1875 19.0625 34.3125 15.25 46.5625C11.4375 58.8125 9 68.5625 8.0625 75.875C9.25 70.9375 12.9375 61.75 19 48.1875C25.0625 34.6875 31.9375 22.6875 39.5 12.125C45.4375 4.1875 50.5625 0.1875 54.9375 0.1875C57.75 0.1875 59.25 1.875 59.5 5.3125C59.5 9.25 59 13.3125 58.0625 17.5C57.0625 21.6875 55.75 26 54.1875 30.375C52.625 34.8125 50.875 39.25 49.0625 43.6875C45.625 51.875 42.9375 59.0625 40.9375 65.25ZM98.9375 82.125C101.75 82.125 104.75 81.375 107.938 79.875C111.188 78.4375 114 76.5625 116.5 74.375C110.938 69.4375 106.562 62.75 103.5 54.4375C101.25 56 99.1875 57.6875 97.25 59.5625C95.3125 61.4375 93.8125 63.4375 92.6875 65.625C91.5625 67.75 91 70.0625 91 72.5625C91 75.1875 91.625 77.4375 92.9375 79.3125C94.25 81.1875 96.25 82.125 98.9375 82.125ZM103.688 50.9375C105.312 49.8125 107.062 48.625 108.875 47.4375C113.562 44.4375 117.75 41.4375 121.312 38.5C124.5 35.8125 126.062 32.875 126.062 29.75C126.062 28.25 125.438 27 124.188 26C122.875 24.9375 121.375 24.4375 119.625 24.4375C116.625 24.5 113.75 25.3125 111.125 26.875C108.5 28.375 106.312 30.4375 104.688 33C103 35.5625 102.188 38.375 102.188 41.5C102.188 44.5625 102.688 47.75 103.688 50.9375ZM98.9375 83.375C92.25 82.875 88.6875 79.3125 88.1875 72.5625C88.1875 68.1875 89.625 64.25 92.5 60.8125C95.3125 57.4375 98.6875 54.4375 102.562 51.6875C101.438 48.25 100.875 44.8125 100.875 41.5C100.875 38.1875 101.75 35.125 103.5 32.375C105.25 29.625 107.562 27.375 110.438 25.75C113.25 24.0625 116.312 23.1875 119.688 23.125C125.375 23.3125 128.25 25.5625 128.25 29.75C128.25 33.625 126.5 37.125 122.938 40.3125C119 43.625 114.688 46.8125 110 49.875C108.125 51.125 106.375 52.375 104.562 53.625C107.562 61.8125 111.875 68.4375 117.5 73.4375C122.75 68.6875 125.375 63.875 125.375 59.0625C125.375 57.3125 124.75 55.625 123.5 54L123.438 53.6875C123.438 53.125 123.688 52.875 124.125 52.875H124.25C124.562 52.875 124.875 53 125.062 53.1875C126.062 54.6875 126.625 56.625 126.688 59.0625C126.688 64.375 124 69.5 118.562 74.375C121.625 76.9375 124.75 78.25 127.812 78.25C128.375 78.25 128.625 78.5 128.625 79C128.625 79.3125 128.562 79.5 128.375 79.625C128.25 79.75 128.062 79.8125 127.812 79.8125C124.25 79.5 120.812 77.9375 117.5 75.25C115.188 77.4375 112.312 79.3125 109.062 80.9375C105.75 82.5625 102.375 83.375 98.9375 83.375ZM160.125 98.375C159.812 98.375 159.562 98.25 159.312 98C159.125 97.75 159 97.375 159 96.9375C159 89.3125 160.688 78.0625 164.125 63.1875C159.438 65.125 155.125 66.0625 151.125 66.0625C144.812 66.0625 140.5 62.8125 138.125 56.375L138.062 55.875C138.062 55.625 138.188 55.3125 138.438 54.9375C138.625 54.625 139 54.4375 139.5 54.4375C140.062 54.4375 140.562 54.75 140.875 55.4375C142.812 61.625 146.25 64.75 151.125 64.75C155.062 64.75 159.5 63.6875 164.438 61.625C168.938 42.6875 172.812 27.1875 176 15.3125C177.625 9.0625 178.688 4.875 179.125 2.875C179.312 2.25 179.562 1.8125 179.875 1.5625C180.188 1.375 180.562 1.25 181.062 1.25C182.125 1.25 182.688 1.8125 182.75 2.9375C182.75 3.125 182.688 3.375 182.625 3.75C181.25 7.4375 179.125 14.75 176.125 25.625C173.188 36.5 170.25 48.125 167.312 60.5C170.5 59.25 175.75 56.8125 183.125 53.375C188.625 50.5625 194.5 47.875 200.75 45.25C202.5 37 203.938 30.5 205 25.8125C206.062 21.125 207.125 16.5625 208.188 12C208.5 10.875 208.75 9.6875 209.062 8.4375C209.438 7.375 210.062 6.8125 210.812 6.8125C211.25 6.8125 211.688 6.9375 212.062 7.25C212.438 7.5625 212.625 8 212.625 8.5625C212.625 8.75 212.562 9 212.5 9.375C210.375 15.25 207.438 26.875 203.625 44.25C209.312 41.8125 214.688 40.625 219.75 40.625C220.438 40.625 220.812 40.9375 220.875 41.625C220.875 42.1875 220.5 42.5 219.75 42.5C214.375 42.5 208.875 43.625 203.188 45.875C199 65.25 196.875 78.9375 196.875 86.875L196.938 88.8125C196.938 89.3125 196.625 89.5625 196.062 89.5625C195.688 89.5625 195.375 89.4375 195.125 89.25C194.812 89.0625 194.688 88.0625 194.688 86.1875C194.688 77.9375 196.562 64.8125 200.375 46.9375C195.438 49 190.375 51.3125 185.188 53.75C180.062 56.3125 174 59.125 166.938 62.125C163.125 78.375 161.188 90.125 161.188 97.4375C161.188 98.0625 160.812 98.375 160.125 98.375Z" fill="#625B59"/>
</g>
<defs>
<filter id="filter0_d_101_2" x="0.6875" y="0.1875" width="224.188" height="126.688" filterUnits="userSpaceOnUse" color-interpolation-filters="sRGB">
<feFlood flood-opacity="0" result="BackgroundImageFix"/>
<feColorMatrix in="SourceAlpha" type="matrix" values="0 0 0 0 0 0 0 0 0 0 0 0 0 0 0 0 0 0 127 0" result="hardAlpha"/>
<feOffset dy="4"/>
<feGaussianBlur stdDeviation="2"/>
<feComposite in2="hardAlpha" operator="out"/>
<feColorMatrix type="matrix" values="0 0 0 0 0 0 0 0 0 0 0 0 0 0 0 0 0 0 0.25 0"/>
<feBlend mode="normal" in2="BackgroundImageFix" result="effect1_dropShadow_101_2"/>
<feBlend mode="normal" in="SourceGraphic" in2="effect1_dropShadow_101_2" result="shape"/>
</filter>
</defs>
</svg>
