<svg xmlns="http://www.w3.org/2000/svg" id="Capa_2" data-name="Capa 2" viewBox="0 0 156 169">
  <defs>
    <style>.cls-1{fill:#a7a653;stroke-width:0}</style>
  </defs>
  <g id="Capa_1-2" data-name="Capa 1">
    <path
      d="M149.8 159.5c-2.4.6-5.6 0-8.9-1.8-3.2-1.7-5-3.8-5.2-4.6l-12.8-49c4.6-1.6 8.5-4.7 11-8.9 2.7-4.7 3.5-10.1 2.1-15.3l-14.7-56c-.2-.8-1-1.2-1.7-1l-36.4 9.5c-.4 0-.7.3-.9.6-.2.3-.2.7-.1 1.1l14.7 56c1.4 5.2 4.7 9.6 9.3 12.3 3.1 1.8 6.6 2.8 10.2 2.8s2.5-.2 3.8-.4l12.8 49c.6 2.3-3.7 11.1-9.2 12.6-.7.2-1.2 1-1 1.7.2.6.7 1 1.4 1h.4l26.1-6.8c.7-.2 1.2-1 1-1.7s-1-1.2-1.7-1ZM118.9 25.8l6.1 23.3c-2.1-.5-3.2-1.3-4.5-2.2-.2-.1-.3-.2-.5-.4l-3.6-13.8c-.2-.8-1-1.2-1.7-1-.8.2-1.2 1-1 1.7l2.9 11.2c-.9-.3-1.9-.6-3.2-.8-3.7-.5-5.8.3-7.7 1.1-1.8.7-3.3 1.3-6.3.9s-4.3-1.4-5.8-2.5c-1.6-1.2-3.3-2.5-7-3l-1.5-5.6 33.6-8.8Zm-11.3 74.1c-4-2.3-6.9-6.1-8-10.6l-12-46.1c2.1.5 3.2 1.3 4.5 2.2 1.6 1.2 3.4 2.6 7.1 3.1 3.7.5 5.8-.3 7.7-1.1 1.8-.7 3.3-1.3 6.3-.9 2.2.3 3.4.9 4.5 1.6l1.6 6c.2.6.7 1.1 1.4 1.1h.4c.8-.2 1.2-1 1-1.7l-.8-2.9c1.2.6 2.6 1.2 4.7 1.5l7.4 28.4c1.2 4.5.5 9.2-1.8 13.2s-6.1 6.9-10.6 8c-4.5 1.2-9.2.5-13.2-1.8Zm23.5 64.5c1.9-2.2 3.4-4.9 4.1-7.3 1.3 1.2 2.9 2.3 4.3 3 .9.5 1.9.9 2.8 1.3l-11.3 2.9Z"
      class="cls-1" />
    <path
      d="M122.8 64.4h.4c.7-.2 1.2-1 1-1.7l-1-3.7c-.2-.7-1-1.2-1.7-1-.7.2-1.2 1-1 1.7l1 3.7c.2.6.7 1 1.4 1ZM78.5 32.9c-.2-.3-.5-.6-.9-.6l-36.4-9.5c-.8-.2-1.5.3-1.7 1l-14.7 56c-1.4 5.2-.6 10.7 2.1 15.3 2.5 4.3 6.4 7.4 11 8.9l-12.8 49c-.2.9-2 2.9-5.2 4.6-3.3 1.8-6.5 2.4-8.9 1.8-.8-.2-1.5.2-1.7 1-.2.8.3 1.5 1 1.7l26 6.8h.4c.6 0 1.2-.4 1.4-1 .2-.8-.3-1.5-1-1.7-5.5-1.4-9.8-10.2-9.2-12.6l12.8-49c1.2.2 2.5.4 3.7.4 9 0 17.2-6 19.5-15.1l14.7-56c0-.4 0-.7-.1-1.1Zm-36.6-7.1 33.6 8.8-1.5 5.6c-3.6.5-5.4 1.9-7 3-1.5 1.1-2.8 2.1-5.8 2.5-3 .4-4.5-.2-6.3-.9-1.9-.7-4-1.6-7.7-1.1-1.3.2-2.3.5-3.2.8l2.9-11.2c.2-.8-.3-1.5-1-1.7-.8-.2-1.5.2-1.7 1l-3.6 13.8c-.2.1-.3.2-.5.4-1.3.9-2.4 1.8-4.5 2.2l6.1-23.3ZM29.7 164.4l-11.3-2.9c.9-.3 1.9-.8 2.8-1.3 1.4-.8 3-1.8 4.3-3 .7 2.3 2.2 5 4.1 7.3Zm31.6-75.1c-2.4 9.3-11.9 14.8-21.2 12.4-4.5-1.2-8.3-4-10.6-8-2.3-4-3-8.7-1.8-13.2l7.4-28.4c2.1-.3 3.5-.9 4.7-1.5l-.8 2.9c-.2.8.3 1.5 1 1.7h.4c.6 0 1.2-.4 1.4-1l1.6-6c1.1-.7 2.4-1.3 4.6-1.6 3-.4 4.5.2 6.3.9 1.9.7 4 1.6 7.7 1.1s5.5-1.9 7.1-3.1c1.3-.9 2.4-1.8 4.5-2.2l-12 46.1Z"
      class="cls-1" />
    <path
      d="M39.2 57.9c-.8-.2-1.5.3-1.7 1l-1 3.7c-.2.8.3 1.5 1 1.7h.4c.6 0 1.2-.4 1.4-1l1-3.7c.2-.8-.3-1.5-1-1.7ZM77.3 9.2c-2.6 0-4.8 2.1-4.8 4.8s2.2 4.8 4.8 4.8 4.8-2.1 4.8-4.8-2.1-4.8-4.8-4.8Zm0 6.8c-1.1 0-2-.9-2-2s.9-2 2-2 2 .9 2 2-.9 2-2 2ZM140.8 42.2c2.6 0 4.8-2.1 4.8-4.8s-2.1-4.8-4.8-4.8-4.8 2.2-4.8 4.8 2.2 4.8 4.8 4.8Zm0-6.8c1.1 0 2 .9 2 2s-.9 2-2 2-2-.9-2-2 .9-2 2-2ZM74.4 109c-2.6 0-4.8 2.1-4.8 4.8s2.1 4.8 4.8 4.8 4.8-2.2 4.8-4.8-2.1-4.8-4.8-4.8Zm0 6.8c-1.1 0-2-.9-2-2s.9-2 2-2 2 .9 2 2-.9 2-2 2ZM9.6 50.8c0-2.6-2.2-4.8-4.8-4.8S0 48.1 0 50.8s2.1 4.8 4.8 4.8 4.8-2.1 4.8-4.8Zm-6.8 0c0-1.1.9-2 2-2s2 .9 2 2-.9 2-2 2-2-.9-2-2ZM108.8 15.3c.2 0 .4.1.5.1.5 0 1.1-.3 1.3-.9l5.3-12.6c.3-.7 0-1.5-.8-1.8-.7-.3-1.5 0-1.8.8L108 13.5c-.3.7 0 1.5.8 1.8ZM50.2 16.2c.3.5.7.7 1.2.7s.4 0 .7-.2c.7-.4.9-1.2.6-1.9l-6-11.2c-.4-.7-1.2-.9-1.9-.6-.7.4-.9 1.2-.6 1.9l6 11.2ZM16.8 87.8c-.5-.6-1.3-.8-2-.3l-10.9 8c-.6.5-.8 1.3-.3 2 .3.4.7.6 1.1.6s.6 0 .8-.3l10.9-8c.6-.5.8-1.3.3-2ZM155.5 102.6 145 94.1c-.6-.5-1.5-.4-2 .2-.5.6-.4 1.5.2 2l10.5 8.5c.3.2.6.3.9.3s.8-.2 1.1-.5c.5-.6.4-1.5-.2-2Z"
      class="cls-1" />
  </g>
</svg>