<svg xmlns="http://www.w3.org/2000/svg" id="Capa_2" data-name="Capa 2" viewBox="0 0 735.7 37">
  <defs>
    <style>.cls-1{fill:#625b59;stroke-width:0}</style>
  </defs>
  <g id="Capa_1-2" data-name="Capa 1">
    <path
      d="M59.2 19.8C57.4 14.2 43 2 29.8 0c-.7-.1-1.4.4-1.1 1.1 2.5 5.6 7 9.5 12.1 12.9 2.5 1.7 5.1 3.2 7.8 4.4-9.7.3-19.6 4.3-28 8.1-.6.3-.6 1.2 0 1.4C33.3 32.6 47.7 30.1 58 21l1.1-1.4ZM31.1 2.1c5.3 1.4 10.3 3.6 14.8 6.7 4.4 2.9 7.7 6.8 11.5 10.3-5.7-.8-10.6-3.5-15.4-6.6-4.3-2.8-8.3-6-10.8-10.5Zm-8 25.1c5.2-2.3 10.6-4.4 16.2-5.7 4.7-1.1 9.2-1.4 13.9-1.4.8.2 1.6.4 2.5.6-9.1 7.4-21.3 9.9-32.5 6.5Z"
      class="cls-1" />
    <path
      d="M83.6 17.6C76.3 8 64 2.6 52.2 2c-.6 0-1 .7-.6 1.2 6.1 8.9 15.7 14.6 26.3 15.8-10 2.7-19.2 8.6-26.5 15.8-.4.4-.4 1.2.2 1.4 13.8 4 25-6.1 32.2-16.7.2-.3.3-1.2.1-1.4 0 0 0-.1-.1-.2 0 0 0-.1-.1-.2Zm-30-14.1c11.2 1 20.3 6.1 28.2 13.8C70.7 17 60.6 12 53.6 3.5Zm-.3 31.4c8-7.7 17.4-12.6 27.9-15.7-6.4 9.2-16 18.2-27.9 15.7ZM34.3 16.9c.4-.1.7-.4.7-.8.1-.2.2-.5 0-.7C25.8 7.4 12.4 4.8.6 6.7c-.7.1-.7.9-.3 1.3 9.1 8.5 21.9 11.9 34.1 9Zm-31.9-9c11.1-1.4 21.1 1.7 30.5 7.5-10.9 2-21.9-.7-30.5-7.5ZM677.6 21.2c10.2 9 24.6 11.6 37.4 6.9.6-.2.6-1.1 0-1.4-8.4-3.8-18.3-7.8-28-8.1 2.7-1.2 5.3-2.8 7.8-4.4 5.1-3.4 9.6-7.3 12.1-12.9.3-.7-.4-1.2-1.1-1.1-13.2 2-27.6 14.1-29.4 19.7l1.1 1.4Zm16.2-8.6c-4.8 3.1-9.8 5.8-15.4 6.6 3.7-3.6 7.1-7.4 11.5-10.3 4.6-3.1 9.5-5.3 14.8-6.7-2.5 4.5-6.5 7.7-10.8 10.5Zm-13.7 8.2c.8-.2 1.7-.4 2.5-.6 4.7 0 9.2.3 13.9 1.4 5.6 1.3 10.9 3.4 16.2 5.7-11.2 3.4-23.4.9-32.5-6.5Z"
      class="cls-1" />
    <path
      d="M652 17.8s0 .1-.1.2c-.2.2 0 1.1.1 1.4 7.2 10.6 18.4 20.8 32.2 16.7.6-.2.6-1 .2-1.4-7.3-7.2-16.5-13-26.5-15.8 10.5-1.2 20.1-7 26.3-15.8.4-.5 0-1.2-.6-1.2-11.8.7-24.2 6-31.4 15.6 0 0 0 .1-.1.2Zm1.8-.4c8-7.7 17.1-12.8 28.2-13.8-7 8.5-17.2 13.5-28.2 13.8Zm.6 1.8c10.6 3.1 20 8 27.9 15.7-11.9 2.5-21.5-6.5-27.9-15.7ZM735.5 8c.4-.4.4-1.2-.3-1.3-11.8-1.9-25.3.7-34.4 8.8-.2.2-.2.5 0 .7 0 .3.3.7.7.8 12.1 2.9 24.9-.5 34.1-9Zm-32.7 7.4c9.4-5.8 19.4-8.9 30.5-7.5-8.7 6.8-19.7 9.5-30.5 7.5Z"
      class="cls-1" />
    <path d="M80.7 18.5h571.2v2.1H80.7z" class="cls-1" />
  </g>
</svg>