<?xml version="1.0" encoding="UTF-8"?>
<svg id="Capa_2" data-name="Capa 2" xmlns="http://www.w3.org/2000/svg" viewBox="0 0 1031.9 699.6">
  <defs>
    <style>
      .cls-1 {
        fill: #a7a653;
        stroke-width: 0px;
      }
    </style>
  </defs>
  <g id="Capa_1-2" data-name="Capa 1">
    <g>
      <g>
        <g>
          <path class="cls-1" d="m833,229.9c-.3,0-.6,0-1,0-.9,0-2.7-.3-4.3-1.3-.6-.3-1.1-.7-1.5-1.2-1.2-1.2-1.9-2.8-1.8-4.5-.2-7.6-1.1-15.7-2-23.4v-.2c-.4-3.1-.7-6.3-1.1-9.4-2-20.5-4.2-41.5-6.7-64.2-2.1-19.1-4.5-41.4-7.1-63.4-.3-2.9-.6-5.9-.9-8.7v-.2c-.7-7.3-1.3-14.9-3.3-21.5-.8-2.5.2-5.6,3.5-6.8l29.9-10.8c6.1-2.3,12.2-4.7,18.3-7l1.1-.4c2.3-.9,4.5-1.7,6.7-2.5l.6-.2s0,0,0,0c1.1-.9,2.4-1.3,4-1.3,2.7,0,5.3,1.3,5.3,1.3l.4.2c.9.5,1.6,1.2,2.2,1.9,20.5,11.9,41,23.8,61.5,35.7.8.3,1.2.5,1.4.6l1.7,1c.2.1.7.4,1.3.9,12.8,7.4,25.5,14.9,38.3,22.3l3,1.7c6.2,3.6,12.5,7.3,18.8,11,.3.2.6.3.9.5.2,0,.3.2.4.3l.6.3c1.1.4,2,1,2.7,1.8,1.9,1.7,3,3.9,3.4,6.8l6.8,55.3c1.6,1.5,2.3,3.6,1.9,5.6-.5,2.1-2.1,3.7-4.3,4.1-7,1.5-14.3,4.8-21.3,7.9-2.8,1.3-5.7,2.6-8.5,3.7-21.3,8.8-42.8,17.8-59.2,24.8-22.7,9.6-41.4,17.6-59,25.2-2.8,1.2-5.7,2.4-8.6,3.6-6.9,2.9-14.1,5.9-20.7,9.3,0,0-.2,0-.3.1-.9.4-1.9.7-3.1.7h0Zm111.5-113.5c-17.1,17.8-34.1,35.6-51.2,53.4-10.8,11.3-21.6,22.5-32.3,33.8,20.4-8.8,41.8-18,63.8-27.3,21.5-9.1,40.9-17.2,60.6-25.2l2.3-.9c2.7-1.1,5.5-2.2,8.2-3.3-13.2-7.9-27-16.1-42.2-25-3.1-1.8-6.2-3.6-9.3-5.5Zm-60.5-35.3c-7,22.6-13.9,45.2-20.9,67.9l-.6,2c-4.6,14.9-9.2,29.7-13.8,44.6,11-11.5,22-23,33-34.5,16.7-17.4,33.3-34.8,50-52.2-17.3-10.1-34.4-20.1-47.7-27.8Zm-63.8-37.1c2.1,15.3,3.8,30.6,5.4,45.5l1,9.4c3,27.3,5.9,54.6,8.6,81.1.2,2.1.5,4.3.7,6.4,4.3-13.9,8.6-27.8,12.9-41.7,7.3-23.8,14.6-47.5,22-71.3l-8.2-4.8c-14.1-8.2-28.2-16.4-42.3-24.6Zm136.8,65.7c10.1,5.9,20.2,11.8,30.3,17.8,2.8,1.7,5.7,3.2,8.8,4.9,1.3.7,2.6,1.4,3.8,2.1-.8-5.9-1.7-11.8-2.5-17.7-.4-3.1-.8-6.3-1.1-9.5h0c-.4-4.3-.8-8.7-1.6-12.8-3.9,1.4-7.8,3.1-11.7,4.8-3.1,1.4-6.3,2.7-9.4,3.9-5.6,2.2-11.3,4.3-16.9,6.5Zm-12.4-49.1c.4,2.9.7,5.9.9,8.7.3,3.4.6,6.6,1.1,9.7.9,6.5,1.8,12.9,2.7,19.4,6.2-2.4,12.4-4.8,18.7-7.2,2.7-1.1,5.5-2.3,8.5-3.6,2.8-1.2,5.6-2.4,8.4-3.5-10.2-6-20.5-12-30.6-17.9l-9.6-5.6Zm-10.3,35.8c-.9-6.1-1.7-12.3-2.6-18.4-.4-3.1-.8-6.4-1.1-9.6-.4-3.7-.7-7.6-1.3-11.2-4.4,1.6-8.9,3.6-13.3,5.5-3.6,1.6-7.2,3.2-10.8,4.5-4.2,1.6-8.4,3.2-12.6,4.9,10.7,6.3,41.7,24.3,41.7,24.3Zm-55.1-73.8c.3,2.8.6,5.5.9,8.2.3,3.3.6,6.6,1.1,9.7,1,6.9,1.9,13.7,2.9,20.6,7.1-2.8,14.2-5.5,21.3-8.2l.9-.3c4.9-1.9,9.9-3.8,14.8-5.7-13.8-8.1-27.7-16.1-41.6-24.2l-.3-.2Zm-53.6,10.4c14.4,8.4,28.9,16.8,43.3,25.3-.6-4.6-1.3-9.3-2-13.9-.5-3.6-.9-7.4-1.2-11-.5-4.9-1-9.9-1.8-14.7l-19.6,7.1c-3.8,1.5-7.7,3-11.5,4.4-2.4.9-4.8,1.8-7.2,2.8Z"/>
          <path class="cls-1" d="m867.6,4c2.5,0,4.8,1.2,4.8,1.2l.4.2c.9.5,1.5,1.1,2,1.8,20.6,11.9,41.2,23.9,61.7,35.9.8.3,1.1.5,1.3.5l1.7,1c.2.1.7.4,1.2.9,12.8,7.5,25.6,14.9,38.4,22.4l3,1.7c6.3,3.7,12.5,7.3,18.8,11,.5.3,1,.6,1.4.8.2.1.4.2.7.4,1,.4,1.8.9,2.4,1.6,1.8,1.5,2.8,3.5,3.1,6.2l6.8,55.7c1.5,1.3,2.2,3.1,1.8,4.8-.4,1.7-1.7,3-3.5,3.4-7.1,1.5-14.4,4.8-21.5,8-2.8,1.3-5.7,2.6-8.5,3.7-21.5,8.8-42.9,17.9-59.2,24.8-22.7,9.6-41.4,17.6-59,25.2-2.8,1.2-5.7,2.4-8.6,3.6-7,2.9-14.2,5.9-20.8,9.4,0,0-.1,0-.2.1-.8.4-1.7.6-2.7.6s-.6,0-.9,0c-.9,0-2.4-.3-3.9-1.1-.5-.3-.9-.6-1.3-1-1.1-1-1.6-2.4-1.5-3.7-.2-7.8-1.1-15.8-2-23.6-.4-3.2-.7-6.4-1-9.6-2-20.4-4.2-41.4-6.7-64.2-2.1-19.1-4.5-41.4-7.1-63.4-.3-2.9-.6-5.9-.9-8.9-.6-7.4-1.3-15-3.3-21.7-.6-2,.2-4.6,2.9-5.6l29.9-10.8c6.1-2.3,12.2-4.7,18.3-7l1.1-.4c2.2-.8,4.4-1.7,6.7-2.5h.2c.2-.1.4-.2.6-.3,0,0,.1,0,.2-.1,1-.8,2.2-1.1,3.4-1.1m2.5,56.2c-.7-5.3-1.5-10.6-2.2-15.9-.5-3.6-.9-7.4-1.2-11.1-.5-5.3-1-10.7-2-15.8l-20.8,7.5c-3.9,1.5-7.7,3-11.5,4.5-3,1.2-6.1,2.3-9.1,3.5,15.6,9.1,31.2,18.2,46.9,27.3m13,2.4c7.5-2.9,15-5.8,22.5-8.7l.9-.3c5.6-2.1,11.2-4.3,16.8-6.4-14.5-8.4-28.9-16.8-43.4-25.2l-2.1-1.2c.5,3.4.8,6.9,1.1,10.3.3,3.4.6,6.6,1.1,9.7,1,7.1,2,14.3,3,21.4v.5m-47.7,128.7c4.8-15.4,9.6-30.8,14.3-46.3,7.4-24,14.8-48,22.2-72.1l-8.6-5c-14.8-8.6-29.6-17.2-44.4-25.8,2.2,15.9,4,31.9,5.7,47.5l1,9.4c3,27.2,5.9,54.5,8.6,81.1.4,3.7.8,7.4,1.2,11.1m100.1-92.9c-.9-6.8-1.9-13.6-2.9-20.4-.4-3.1-.8-6.4-1.1-9.5-.4-4.2-.8-8.4-1.5-12.5-4.8,1.7-9.7,3.8-14.5,5.9-3.5,1.5-7.2,3.1-10.7,4.5-4.9,1.9-9.7,3.7-14.6,5.6,11.3,6.6,22.7,13.2,34,19.9l11.2,6.5m12.9,1.4c6.6-2.6,13.2-5.1,19.8-7.6,2.7-1.1,5.5-2.3,8.5-3.6,3.4-1.5,6.8-3,10.3-4.3-11-6.5-22.1-13-33.2-19.4l-10.6-6.2c.5,3.6.9,7.2,1.2,10.7.3,3.4.6,6.6,1.1,9.7,1,6.9,1.9,13.8,2.9,20.6m-101.9,99.5c12-12.5,24-25.1,35.9-37.6,17-17.7,33.9-35.4,50.9-53.1-17.1-10-34-19.8-49.9-29.1-7.1,23-14.2,46-21.3,69.1-5.2,16.9-10.4,33.8-15.7,50.7m154.7-63c-.9-6.6-1.8-13.1-2.8-19.7-.4-3.1-.8-6.4-1.1-9.5-.5-4.7-.9-9.4-1.8-13.9-4.3,1.5-8.6,3.4-12.9,5.2-3.1,1.3-6.2,2.7-9.3,3.9-6.3,2.4-12.5,4.8-18.8,7.3,10.7,6.3,21.4,12.5,32.1,18.8,2.8,1.7,5.8,3.2,8.9,4.9,1.8,1,3.7,2,5.6,3m-144.3,70c1.3-.5,2.6-1.1,3.9-1.7,20.5-8.9,42.1-18.1,64.4-27.5,21.5-9.1,41-17.3,60.6-25.2l2.1-.9c3.4-1.4,6.8-2.8,10.3-4.1-13.8-8.2-28.2-16.8-43.9-26-3.3-2-6.7-3.9-10-5.9-17.2,18-34.5,35.9-51.7,53.9-11.9,12.4-23.8,24.9-35.7,37.3m10.7-204.4c-1.8,0-3.3.5-4.5,1.4,0,0-.1,0-.2,0h-.2c-2.2.9-4.4,1.7-6.6,2.5h-.2c0,0-1.1.5-1.1.5-6.3,2.4-12.5,4.7-18.3,7l-29.9,10.8c-2.9,1-5.3,4.2-4.2,8,2,6.4,2.6,14,3.3,21.3h0c.3,3.1.5,6.1.9,9,2.6,22,5,44.2,7.1,63.3,2.4,22.7,4.6,43.7,6.7,64.2.3,3.2.7,6.5,1,9.6.9,7.7,1.8,15.7,2,23.4,0,1.9.7,3.8,2.1,5.1.5.5,1.1.9,1.7,1.3,1.7,1,3.5,1.3,4.7,1.4.4,0,.7,0,1,0,1.3,0,2.5-.3,3.5-.8.1,0,.2-.1.3-.2,6.6-3.4,13.7-6.4,20.6-9.3,2.7-1.1,5.7-2.4,8.6-3.6,17.5-7.6,36.2-15.6,58.9-25.2,16.4-6.9,37.9-16,59.2-24.8,2.8-1.2,5.7-2.5,8.5-3.7,7-3.1,14.2-6.4,21.1-7.9,2.6-.5,4.5-2.4,5-4.9.5-2.2-.2-4.5-1.9-6.3l-6.7-54.9c-.4-3.1-1.6-5.5-3.7-7.4-.8-.8-1.8-1.5-2.9-2-.2,0-.3-.2-.5-.3h0c-.1,0-.3-.2-.4-.3-.3-.2-.6-.3-.9-.5-6.2-3.7-12.4-7.3-18.5-10.9h-.2c0-.1-3-1.9-3-1.9-11.7-6.9-24.2-14.1-38.2-22.3-.6-.5-1.1-.9-1.4-1l-1.7-1c-.2-.1-.6-.4-1.5-.7-21.2-12.3-42.7-24.8-61.2-35.6-.6-.8-1.4-1.5-2.4-2l-.4-.2s-2.8-1.5-5.8-1.5h0Zm-39.8,31.2c1.7-.7,3.5-1.4,5.2-2,3.8-1.5,7.7-3,11.5-4.5l18.5-6.7c.7,4.3,1.1,8.9,1.6,13.3h0c.4,3.7.7,7.5,1.2,11.1.6,4,1.1,7.9,1.7,11.9-13.2-7.7-26.5-15.5-39.7-23.2h0Zm56.9,26.6c-.9-6.5-1.8-12.9-2.7-19.4-.4-3-.7-6.2-1.1-9.6-.2-2.1-.4-4.2-.6-6.3,12.8,7.4,25.5,14.8,38.3,22.3-4.3,1.6-8.7,3.3-12.9,4.9l-.9.3c-6.3,2.4-12.9,5-20.1,7.8h0Zm-48.4,121.7c0-.5-.1-1.1-.2-1.6-2.7-26.6-5.6-53.9-8.6-81.1l-1-9.4c-1.6-14.2-3.2-28.9-5.1-43.5,13.5,7.9,27.3,15.8,40.6,23.6l.3.2,7.3,4.2c-7.2,23.4-14.5,47.1-21.7,70.5-3.7,11.9-7.5,24.4-11.5,37.1h0Zm58.5-109.2c3.6-1.4,7.1-2.8,10.7-4.1,3.5-1.4,7.2-3,10.7-4.5,0,0,0,0,0,0,4-1.7,8-3.5,12.1-5,.5,3.3.8,6.7,1.1,10,.3,3.2.6,6.5,1.1,9.6.8,5.4,1.5,10.9,2.3,16.3l-7.6-4.5c-10.1-5.9-20.3-11.9-30.4-17.8h0Zm55.2,24.7c-.8-6-1.7-12.1-2.5-18.1-.4-3.1-.7-6.2-1.1-9.6-.2-2.2-.4-4.5-.7-6.8l7.1,4.1.5.3c9.6,5.6,19.4,11.3,29.1,17-2.2.9-4.3,1.8-6.4,2.8h0c-2.9,1.3-5.7,2.5-8.4,3.6-5.8,2.2-11.7,4.5-17.5,6.7h0Zm-99.1,94.7c4.4-14.2,8.8-28.6,13.1-42.5,6.8-22.1,13.7-44.6,20.5-66.7,12.8,7.4,29.1,16.9,45.5,26.5-16.1,16.8-32.6,34-49.1,51.3-9.6,10-19.8,20.7-30.1,31.4h0Zm108.3-81.8c5-1.9,10-3.8,14.9-5.8,3.1-1.2,6.3-2.6,9.3-3.9,3.5-1.5,7-3.1,10.5-4.4.6,3.7,1,7.6,1.3,11.4.3,3.2.6,6.5,1.1,9.6.7,5.3,1.5,10.5,2.2,15.8-.7-.4-1.4-.8-2.1-1.1-3.1-1.7-6-3.2-8.8-4.9-9.5-5.6-19-11.2-28.6-16.7h0Zm-94.1,90.7c9.8-10.3,19.6-20.5,28.9-30.3,16.2-16.9,33.2-34.7,50.6-52.8,2.9,1.7,5.7,3.4,8.6,5.1,14.5,8.5,27.8,16.4,40.4,23.9-2.2.9-4.3,1.7-6.4,2.6h-.2c0,0-2.1.9-2.1.9-19.8,8-39.2,16.2-60.6,25.3-20.3,8.6-40.2,17.1-59.3,25.3h0Z"/>
        </g>
        <g>
          <path class="cls-1" d="m833,231.9c-.4,0-.8,0-1.2,0-1.3,0-3.2-.4-5.1-1.5-.7-.4-1.4-.9-1.9-1.5-1.6-1.5-2.5-3.7-2.4-5.9-.2-7.6-1.1-15.5-2-23.2v-.3c-.4-3.1-.7-6.2-1.1-9.3-2-20.5-4.2-41.5-6.7-64.1-2.1-19.1-4.5-41.3-7.1-63.3-.3-2.9-.6-5.9-.9-8.7v-.3c-.7-7.2-1.3-14.7-3.2-21.1-1-3.3.3-7.7,4.8-9.3l29.9-10.8c6-2.3,12.1-4.7,18.2-7l1.1-.4c2.3-.9,4.5-1.7,6.7-2.5h.3c1.4-1.1,3.1-1.6,5-1.6,3.4,0,6.3,1.6,6.3,1.6l.4.2c1,.6,1.8,1.3,2.5,2.1,20.3,11.8,40.7,23.6,61,35.4.9.3,1.4.6,1.6.7l1.7,1c.2.1.8.5,1.4,1,12.7,7.4,25.4,14.8,38.1,22.2l3,1.7c6.1,3.6,12.5,7.3,18.7,11,.3.2.6.4.9.5l.4.2.5.3c1.3.5,2.4,1.3,3.2,2.2,2.2,2,3.5,4.6,4,7.9l6.7,54.6c1.8,1.9,2.5,4.5,1.9,6.9-.6,2.8-2.9,5-5.8,5.6-6.8,1.5-13.9,4.7-20.9,7.8-2.8,1.3-5.7,2.6-8.6,3.7-21.3,8.7-42.8,17.8-59.1,24.8-22.6,9.6-41.4,17.6-58.9,25.2-2.9,1.2-5.8,2.5-8.6,3.6-6.9,2.9-14,5.8-20.6,9.3-.1,0-.3.1-.4.2-1.1.6-2.5.8-3.9.8ZM867.6,7c-.7,0-1.2.1-1.5.4l-.3.3c0,0-.2.2-.3.2l-1.1.4c-2.2.8-4.4,1.6-6.6,2.4l-1.1.4c-6.1,2.3-12.2,4.6-18.3,7l-29.9,10.8c-1.4.5-1.2,1.6-1.1,1.9,2.1,6.9,2.8,14.7,3.5,22.3v.2c.3,2.9.5,5.8.9,8.6,2.6,22,5,44.3,7.1,63.4,2.4,22.7,4.6,43.7,6.7,64.2.3,3.1.7,6.3,1,9.4v.2c.9,7.8,1.8,15.9,2,23.9,0,0,0,.2,0,.2,0,.6.2,1,.6,1.4.3.3.5.4.7.6.9.5,2,.7,2.6.7.2,0,.4,0,.6,0,.5,0,1,0,1.4-.3h.2c6.7-3.6,14-6.7,21-9.6,2.9-1.2,5.7-2.4,8.6-3.6,17.5-7.6,36.2-15.6,59-25.3,16.4-6.9,37.9-16,59.2-24.8,2.8-1.1,5.6-2.4,8.4-3.7,7.2-3.2,14.7-6.6,22.1-8.2.6-.1,1.1-.6,1.2-1.1.1-.6-.2-1.3-.8-1.9l-.6-.5c-.2-.2-.3-.4-.4-.7l-6.9-56.5c-.2-1.9-.9-3.2-2.1-4.3l-.2-.2c-.4-.4-.8-.7-1.3-.9h-.3c0-.1-.7-.5-.7-.5-.2,0-.3-.2-.5-.3-.3-.2-.5-.3-.8-.4h-.1c-6.3-3.8-12.6-7.5-18.8-11.1l-3-1.7c-12.8-7.5-25.6-14.9-38.4-22.4,0,0,0,0,0,0l-.3-.2s0,0,0,0c-.3-.3-.7-.5-.7-.5l-1.7-1c0,0-.2-.1-.7-.3,0,0,0,0,0,0l-.4-.2s0,0,0,0c-20.6-12-41.1-23.9-61.7-35.9l-.4-.2c-.1,0-.2-.2-.3-.3l-.2-.3c-.3-.4-.6-.7-1.1-1l-.3-.2c-.5-.3-2-.8-3.3-.8Zm-18.7,206c-.3,0-.6-.2-.8-.4-.3-.4-.2-.9,0-1.3l6.6-7c11.9-12.5,23.8-24.9,35.7-37.3,17.2-18,34.5-36,51.7-53.9l1.1-1.1c.2-.2.5-.3.7-.3s.3,0,.5.1c0,0,8,4.7,11.3,6.7,15.9,9.3,30.3,17.9,44,26l3.5,2.1c.3.2.5.6.5.9,0,.4-.3.7-.6.8l-3.8,1.5c-3.4,1.3-6.8,2.7-10.1,4l-2.3.9c-19.8,8-39.1,16.2-60.6,25.2-22.2,9.4-43.8,18.6-64.3,27.5-1.3.6-2.6,1.1-3.9,1.7l-8.9,3.7c-.1,0-.3,0-.4,0Zm96-94.1c-16.7,17.4-33.4,34.8-50.1,52.2-8.5,8.9-17,17.8-25.5,26.7,17.7-7.6,36.1-15.5,54.8-23.4,21.5-9.1,40.9-17.3,60.7-25.3l2.4-1c1.4-.6,2.9-1.2,4.4-1.8-12.2-7.3-24.9-14.8-38.7-22.9-2.6-1.6-5.3-3.1-7.9-4.7Zm-102.8,89c-.2,0-.3,0-.5-.1-.4-.2-.6-.7-.4-1.2l2.5-8.2c5-15.9,9.9-31.9,14.8-47.9l.9-2.8c7.1-23,14.2-46,21.3-69.1l.7-2.4c0-.3.3-.5.6-.6.1,0,.2,0,.4,0s.3,0,.5.1l2.2,1.3c13.6,7.9,31.6,18.4,49.9,29.1l2.2,1.3c.3.2.4.4.5.7,0,.3,0,.6-.3.8l-1.8,1.8c-17,17.7-33.9,35.4-50.9,53.1-12,12.5-24,25-35.9,37.6l-5.9,6.2c-.2.2-.5.3-.7.3Zm43.2-123.8c-6.7,21.8-13.4,43.6-20.2,65.5l-.6,2c-3.8,12.2-7.5,24.3-11.3,36.5,9-9.5,18.1-18.9,27.1-28.3,16.1-16.8,32.2-33.6,48.3-50.3-16-9.3-31.4-18.3-43.3-25.2Zm-50.7,117.8c-.5,0-.8-.4-.9-.9l-1.1-9.4c-.4-3.6-.9-7.4-1.2-11.2-2.7-26.6-5.6-53.9-8.6-81.1l-1-9.4c-1.7-15.5-3.4-31.5-5.7-47.4l-.6-4.1c0-.4.1-.8.4-1,.2-.1.4-.2.6-.2s.3,0,.5.1l3.6,2.1c14.6,8.5,29.3,17,43.9,25.5l10.5,6.1c.4.2.6.7.5,1.2l-.5,1.5c-7.4,24-14.8,48-22.2,72.1-4.8,15.4-9.5,30.9-14.3,46.3l-2.8,9c-.1.4-.5.7-1,.7s0,0,0,0Zm-11.8-154.1c1.9,13.9,3.4,27.9,4.9,41.4l1,9.4c2.9,26.2,5.7,52.4,8.3,77.9,3.3-10.8,6.7-21.6,10-32.5,7.2-23.3,14.3-46.5,21.5-69.8l-7.1-4.1c-12.9-7.5-25.7-14.9-38.6-22.4Zm181.1,93.3c-.2,0-.3,0-.5-.1l-3.5-2c-1.9-1-3.7-2-5.6-3-3.1-1.7-6.1-3.3-9-5-10.7-6.3-21.4-12.6-32.1-18.8l-3.6-2.1c-.3-.2-.5-.6-.5-.9,0-.4.3-.7.6-.9l3.9-1.5c6.3-2.4,12.5-4.8,18.8-7.3,3-1.2,6.1-2.5,9.1-3.8,4.3-1.9,8.7-3.8,13.1-5.3l2.2-.7c.1,0,.2,0,.3,0,.2,0,.3,0,.5.1.2.1.4.4.5.7l.4,2.3c.9,4.6,1.4,9.5,1.8,14.2h0c.3,3.2.6,6.4,1,9.4.9,6.6,1.9,13.2,2.8,19.7l.6,4c0,.4-.1.7-.4,1-.2.1-.4.2-.6.2Zm-42.2-30.9c8.9,5.2,17.8,10.5,26.8,15.7,2.8,1.7,5.7,3.2,8.8,4.9l.4.2c-.6-4.6-1.3-9.2-1.9-13.8-.4-3.1-.8-6.4-1.1-9.5v-.2c-.3-3.4-.7-6.8-1.2-10.1-3.1,1.2-6.2,2.6-9.3,3.9-3.1,1.4-6.3,2.8-9.4,4-4.3,1.7-8.7,3.3-13,5Zm-14.7-6.5c-.2,0-.4,0-.5-.1-.3-.2-.4-.4-.5-.7l-.3-2.5c-1-6.9-1.9-13.8-2.9-20.6-.4-3.2-.8-6.4-1.1-9.8-.3-3.5-.7-7.1-1.2-10.6l-.6-4.1c0-.4.1-.8.4-1,.2-.1.4-.2.6-.2s.3,0,.5.1l15,8.7c10.6,6.2,21.6,12.6,32.4,18.9l3.6,2.1c.3.2.5.6.5.9,0,.4-.3.7-.6.8l-3.9,1.5c-3.4,1.3-6.8,2.7-10,4.2,0,0,0,0,0,0-3,1.3-5.8,2.5-8.6,3.6-6.6,2.5-13.2,5.1-19.8,7.6l-2.4.9c-.1,0-.2,0-.4,0Zm.2-39.2c.2,1.6.3,3.2.5,4.8.3,3.4.6,6.5,1.1,9.6.8,5.6,1.6,11.3,2.4,16.9,5.4-2.1,10.9-4.2,16.3-6.3,2.7-1,5.5-2.2,8.4-3.5,0,0,0,0,0,0,1.5-.7,3-1.3,4.6-2-9-5.3-18.2-10.6-27-15.8l-6.2-3.6Zm-8.9,38.8c-.2,0-.3,0-.5-.1l-14.8-8.6c-11.3-6.6-37.6-22-37.6-22-.3-.2-.5-.6-.5-.9s.3-.7.6-.9l3.9-1.5c4.9-1.9,9.7-3.8,14.6-5.6,3.5-1.3,7.1-2.9,10.6-4.4,4.8-2.1,9.8-4.3,14.7-6l2.2-.8c.1,0,.2,0,.3,0,.2,0,.4,0,.5.1.3.1.4.4.5.7l.4,2.3c.7,4.2,1.1,8.5,1.5,12.7.3,3.2.6,6.4,1.1,9.4,1,6.8,1.9,13.6,2.9,20.4l.6,4.1c0,.4-.1.8-.4,1-.2.1-.4.2-.6.2Zm-6.4-10.5c-.7-4.8-1.3-9.5-2-14.3-.4-3.1-.8-6.4-1.1-9.6l1-.2h-1c-.3-2.7-.6-5.7-.9-8.5-3.6,1.4-7.3,3-10.8,4.6-3.6,1.6-7.3,3.2-10.9,4.6-2.9,1.1-5.8,2.3-8.8,3.4,9.5,5.6,34.5,20.2,34.5,20.2Zm-50.2-26.3c-.2,0-.4,0-.5-.1-.3-.2-.4-.4-.5-.7l-.4-3c-1-7.1-2-14.3-3-21.4-.4-3.2-.8-6.5-1.1-9.7-.3-3.4-.7-6.9-1.1-10.2l-.6-4.1c0-.4.1-.8.4-1,.2-.1.4-.2.6-.2s.3,0,.5.1l5.6,3.3c14.5,8.4,28.9,16.8,43.4,25.2l3.6,2.1c.3.2.5.6.5.9s-.3.7-.6.9l-3.9,1.5c-5.6,2.1-11.2,4.2-16.8,6.4l-.9.3c-7.5,2.9-15,5.8-22.5,8.7l-2.4.9c-.1,0-.2,0-.4,0Zm0-40c.2,1.5.3,2.9.4,4.3.3,3.3.6,6.6,1.1,9.6.9,6,1.7,12.1,2.5,18.1,6.3-2.4,12.6-4.9,19-7.3l.9-.3c3.6-1.4,7.3-2.8,10.9-4.2-11.6-6.7-23.2-13.5-34.8-20.2Zm-8.9,38.6c-.2,0-.3,0-.5-.1l-54-31.5c-.3-.2-.5-.6-.5-.9s.3-.7.6-.9l3.9-1.5c3-1.2,6.1-2.4,9.1-3.5,3.8-1.5,7.7-3,11.6-4.5l23-8.3c.1,0,.2,0,.3,0,.2,0,.3,0,.5.1.3.1.4.4.5.7l.4,2.3c1,5.2,1.5,10.8,2,16.1.4,3.7.7,7.5,1.2,10.9.8,5.3,1.5,10.6,2.2,15.9l.6,4.1c0,.4-.1.8-.4,1-.2.1-.4.2-.6.2Zm-6.4-10.5c-.5-3.3-.9-6.5-1.4-9.8-.5-3.6-.9-7.4-1.2-11.1-.4-4-.8-8.2-1.4-12.2l-17.4,6.3c-3.8,1.5-7.6,2.9-11.5,4.4l-3.3,1.3c12,7,24.1,14.1,36.1,21.1Z"/>
          <path class="cls-1" d="m867.6,2c3.1,0,5.8,1.5,5.8,1.5l.4.2c.9.6,1.7,1.2,2.4,2,20.4,11.8,40.8,23.7,61.2,35.6.9.3,1.3.5,1.5.7l1.7,1c.2.1.8.5,1.4,1,12.7,7.4,25.5,14.8,38.2,22.3l3,1.7c6.1,3.6,12.5,7.3,18.7,11,.3.2.7.4.9.5.2,0,.3.2.4.2l.6.3c1.2.5,2.1,1.2,2.9,2,2.1,1.9,3.3,4.3,3.7,7.4l6.7,54.9c1.7,1.7,2.4,4,1.9,6.3-.6,2.5-2.5,4.3-5,4.9-6.9,1.5-14.1,4.7-21.1,7.8-2.8,1.3-5.7,2.6-8.6,3.7-21.3,8.8-42.8,17.8-59.2,24.8-22.7,9.6-41.4,17.6-58.9,25.2-2.9,1.2-5.7,2.4-8.6,3.6-6.9,2.9-14.1,5.9-20.6,9.3,0,0-.2.1-.3.2-1,.5-2.2.8-3.5.8s-.7,0-1.1,0c-1.2,0-3-.4-4.7-1.4-.6-.4-1.2-.8-1.7-1.3-1.4-1.3-2.2-3.2-2.1-5.1-.2-7.7-1.1-15.6-2-23.3v-.2c-.4-3.1-.7-6.3-1.1-9.5-2-20.5-4.2-41.5-6.7-64.2-2.1-19.1-4.5-41.4-7.1-63.3-.3-2.9-.6-5.9-.9-8.8v-.2c-.7-7.3-1.3-14.8-3.3-21.3-.9-2.9.3-6.7,4.2-8.1l29.9-10.8c6.1-2.3,12.1-4.7,18.3-7l1.1-.4c2.3-.9,4.5-1.7,6.7-2.5l.4-.2c1.4-1.1,3-1.4,4.5-1.4m-34.5,224.9c.7,0,1.3-.1,1.8-.4h.2c6.7-3.6,14-6.6,21-9.6,2.9-1.2,5.7-2.4,8.6-3.6,17.5-7.6,36.3-15.6,59-25.2,16.4-6.9,37.9-16,59.2-24.8,2.8-1.1,5.7-2.4,8.4-3.7,7.2-3.2,14.6-6.5,21.9-8.1,1-.2,1.8-.9,2-1.9h0c.2-1-.2-2.1-1.2-2.8l-.6-.5-6.9-56.5c-.3-2.2-1-3.7-2.4-4.9l-.2-.2c-.4-.5-1-.8-1.7-1.1h-.2c0-.1-.6-.5-.6-.5-.2,0-.3-.2-.5-.3-.2-.1-.5-.3-.8-.5h-.1c-6.2-3.8-12.6-7.5-18.7-11.1l-3-1.7c-12.8-7.5-25.6-14.9-38.4-22.4l-.3-.2c-.4-.4-.8-.6-.9-.6l-1.7-1c0,0-.3-.2-.9-.4l-.4-.2c-20.6-12-41.1-23.9-61.7-35.9l-.4-.2-.2-.3c-.3-.5-.8-.9-1.4-1.3l-.3-.2c-.7-.3-2.3-1-3.9-1s-1.6.2-2.1.6l-.4.3-1.1.4c-2.2.8-4.4,1.6-6.6,2.4l-1.1.4c-6.1,2.3-12.2,4.6-18.3,7l-29.9,10.8c-1.9.7-1.9,2.3-1.7,3.1,2.1,6.8,2.8,14.6,3.4,22.1v.2c.3,2.9.5,5.8.9,8.7,2.6,22,5,44.2,7.1,63.4,2.4,22.7,4.6,43.7,6.7,64.2.3,3.1.7,6.3,1,9.4v.2c.9,7.8,1.8,15.9,2,23.8h0c0,0,0,.2,0,.2,0,.8.3,1.5.9,2.1.3.3.6.5.9.7,1.1.6,2.4.8,3,.9.3,0,.5,0,.7,0m33.1-212.2l.4,2.3c1,5.2,1.5,10.7,2,16,.4,3.7.7,7.5,1.2,11,.8,5.3,1.5,10.6,2.2,15.9l.6,4.1-3.6-2.1c-15.6-9.1-31.2-18.2-46.9-27.3l-3.6-2.1,3.9-1.5c3-1.2,6.1-2.4,9.1-3.5h0c3.8-1.5,7.7-3,11.6-4.5l23-8.3m1.4,41.7c-.6-4-1.1-7.9-1.7-11.9-.5-3.6-.9-7.4-1.2-11.1-.4-4.5-.9-9.1-1.6-13.4l-18.5,6.7c-3.8,1.5-7.7,2.9-11.5,4.4h0c-1.7.7-3.5,1.4-5.2,2,13.2,7.7,26.5,15.4,39.7,23.2m7.8-39.4l5.6,3.3c14.5,8.4,28.9,16.8,43.4,25.2l3.6,2.1-3.9,1.5c-5.6,2.1-11.2,4.3-16.8,6.4l-.9.3c-7.5,2.9-15,5.8-22.5,8.7l-2.4.9-.4-3c-1-7.1-2-14.3-3-21.4-.4-3.2-.8-6.5-1.1-9.8-.3-3.4-.7-6.9-1.1-10.2l-.6-4.1m9.5,42.8c6.7-2.6,13.4-5.2,20.1-7.8l.9-.3c4.3-1.6,8.6-3.3,12.9-4.9-12.8-7.4-25.5-14.9-38.3-22.3.2,2.1.4,4.2.6,6.3.3,3.3.6,6.6,1.1,9.7.9,6.5,1.8,12.9,2.7,19.4m-68.4-21.5l3.6,2.1c14.7,8.6,29.4,17.1,44.1,25.6l10.3,6-.5,1.5c-7.4,24-14.8,48-22.2,72.1-4.8,15.4-9.5,30.9-14.3,46.3l-2.8,9-1.1-9.4c-.4-3.6-.9-7.4-1.2-11.2-2.7-26.5-5.6-53.8-8.6-81.1l-1-9.4c-1.7-15.5-3.5-31.5-5.7-47.5l-.6-4.1m20,143.2c3.8-12.4,7.7-24.8,11.5-37.1,7.3-23.5,14.5-47,21.7-70.5l-7.5-4.4c-13.5-7.9-27.1-15.7-40.6-23.6,2,14.6,3.6,29.3,5.1,43.5l1,9.4c3,27.3,5.9,54.6,8.6,81.1,0,.5.1,1.1.2,1.6m95.3-128.3l.4,2.3c.7,4.1,1.1,8.5,1.5,12.6.3,3.1.6,6.4,1.1,9.4,1,6.8,1.9,13.6,2.9,20.4l.6,4.1-14.8-8.6c-11.3-6.6-22.7-13.2-34-19.9l-3.6-2.1,3.9-1.5c4.9-1.9,9.7-3.8,14.6-5.6,3.5-1.3,7.1-2.9,10.6-4.5,4.8-2.1,9.7-4.3,14.6-6l2.2-.8m1.3,41.3c-.8-5.5-1.5-10.9-2.3-16.3-.4-3.1-.8-6.4-1.1-9.6-.3-3.3-.7-6.7-1.1-10-4,1.5-8.1,3.3-12.1,5-3.6,1.6-7.2,3.2-10.8,4.5-3.6,1.4-7.1,2.8-10.7,4.1,10.1,5.9,20.3,11.9,30.4,17.8l7.6,4.5m7.7-39.6l15,8.7c10.6,6.2,21.6,12.6,32.4,18.9l3.6,2.1-3.9,1.5c-3.4,1.3-6.8,2.8-10.1,4.2l-.9-1.8.8,1.8c-3,1.3-5.8,2.5-8.6,3.6-6.6,2.5-13.2,5.1-19.8,7.6l-2.4.9-.3-2.5c-1-6.9-1.9-13.8-2.9-20.6-.4-3.1-.8-6.3-1.1-9.8-.3-3.5-.7-7.1-1.2-10.6l-.6-4.1m9.4,42.1c5.8-2.3,11.6-4.5,17.5-6.7,2.7-1,5.5-2.3,8.4-3.5l.8,1.8-.7-1.9c2.1-.9,4.3-1.9,6.4-2.8-9.6-5.7-19.4-11.3-28.8-16.8l-7.9-4.6c.3,2.3.5,4.5.7,6.7.3,3.4.6,6.6,1.1,9.6.9,6,1.7,12.1,2.5,18.1m-67.8-20.5l2.2,1.3c13.7,8,31.8,18.4,49.9,29.1l2.2,1.3-1.8,1.8c-17,17.7-33.9,35.4-50.9,53.1-12,12.5-24,25-35.9,37.6l-5.9,6.2,2.5-8.2c5-16.2,10.1-32.4,15.1-48.7l.6-2c7.1-23,14.2-46,21.3-69.1l.7-2.4m-31.3,115.2c10-10.5,20-21,30.1-31.4,16.4-17.1,32.8-34.2,49.1-51.3-16.5-9.6-32.7-19.1-45.5-26.5-6.8,22.2-13.7,44.4-20.5,66.7l-.6,2c-4.2,13.5-8.3,27-12.5,40.5m146.2-101.2l.4,2.3c.9,4.6,1.3,9.4,1.8,14.1h0c.3,3.2.6,6.4,1,9.4.9,6.6,1.9,13.1,2.8,19.7l.6,4-3.5-2c-1.9-1-3.7-2-5.6-3-3.1-1.7-6.1-3.3-8.9-5-10.7-6.3-21.4-12.6-32.1-18.8l-3.6-2.1,3.9-1.5c6.3-2.4,12.5-4.8,18.8-7.3,3-1.2,6.2-2.5,9.2-3.9,4.3-1.9,8.7-3.8,13-5.3l2.2-.7m1.6,42.1c-.7-5.3-1.5-10.5-2.2-15.8-.4-3.1-.8-6.4-1.1-9.5h0c-.4-3.9-.7-7.8-1.3-11.5-3.5,1.3-7,2.8-10.5,4.4-3.1,1.4-6.3,2.7-9.4,3.9-5,1.9-10,3.8-14.9,5.8,9.5,5.6,19,11.1,28.6,16.7,2.8,1.7,5.7,3.2,8.8,4.9.7.4,1.4.8,2.1,1.1m-54.7-20.1l1.4.8c3.3,2,6.7,3.9,10,5.9,15.9,9.3,30.2,17.8,43.9,26l3.5,2.1-3.8,1.5c-3.4,1.3-6.8,2.7-10.1,4l-2.3.9c-19.8,8-39.1,16.2-60.6,25.2-22.2,9.4-43.8,18.6-64.4,27.5-1.3.6-2.6,1.1-3.9,1.7l-8.9,3.7,6.6-7c11.9-12.5,23.8-24.9,35.7-37.3,17.2-18,34.5-36,51.7-53.9l1.1-1.1m-78.8,88.1c19-8.2,38.9-16.7,59.3-25.3,21.5-9.1,40.9-17.3,60.6-25.3l2.3-.9c2.1-.8,4.2-1.7,6.4-2.6-12.7-7.5-25.9-15.4-40.4-23.9-2.9-1.7-5.7-3.4-8.6-5.1-16.9,17.6-33.8,35.2-50.6,52.8-9.7,10.1-19.3,20.2-28.9,30.3m2.5-200.7c-2.1,0-3.9.6-5.5,1.7h-.1c-2.2.9-4.4,1.7-6.7,2.6l-1.1.4c-6.4,2.4-12.8,4.9-18.3,7l-29.8,10.8c-5,1.8-6.5,6.8-5.4,10.5,1.9,6.2,2.6,13.7,3.2,20.9v.2s0,0,0,0c.3,2.9.5,5.9.9,8.8,2.6,22,5,44.2,7.1,63.3,2.4,22.7,4.6,43.7,6.7,64.1.3,3.1.7,6.3,1,9.3h0c0,.1,0,.3,0,.3.9,7.6,1.8,15.5,2,23.1-.1,2.4.9,4.8,2.7,6.6.6.6,1.3,1.2,2.1,1.6,2,1.2,4.1,1.6,5.5,1.7.4,0,.9,0,1.3,0,1.6,0,3.1-.3,4.4-.9.2,0,.3-.1.4-.2,6.5-3.4,13.6-6.4,20.5-9.2,2.8-1.2,5.8-2.4,8.7-3.7,17.6-7.6,36.3-15.6,58.9-25.2,16.4-6.9,37.8-16,59.1-24.8,2.9-1.2,5.8-2.5,8.6-3.8,6.9-3.1,14-6.3,20.7-7.7,3.3-.7,5.8-3.2,6.6-6.4.6-2.6-.1-5.4-1.9-7.6l-6.7-54.3c-.4-3.6-1.8-6.4-4.3-8.6-.9-1-2.1-1.8-3.5-2.4l-.5-.3c0,0-.2-.1-.3-.2h-.1c-.3-.2-.6-.4-1-.6-6.3-3.7-12.6-7.4-18.7-11l-3-1.7c-11.9-7-24.4-14.2-38-22.2-.6-.5-1.2-.9-1.5-1.1l-1.7-1c-.2-.1-.7-.4-1.6-.8-21-12.2-42.3-24.6-60.7-35.3-.7-.8-1.6-1.6-2.7-2.2l-.4-.2s-3.2-1.8-6.8-1.8h0Zm-.8,8.2c0,0,.3-.2.8-.2,1,0,2.3.4,2.9.7l.3.2c.3.2.6.5.8.7l.3.3c.2.2.4.4.6.6l.4.2c23,13.3,42.3,24.6,61.7,35.9,0,0,.1,0,.2,0l.4.2c0,0,.1,0,.2,0,.2,0,.4.1.5.2l1.7,1s.3.2.5.4c0,0,.1,0,.2.1l.3.2c0,0,.1,0,.2.1,14.1,8.2,26.6,15.5,38.4,22.4l3,1.7c6.1,3.6,12.5,7.3,18.7,11,0,0,0,0,0,0h.1c0,0,0,0,0,0,.2.1.5.3.7.4h0c.2.1.4.3.6.4l.6.4s0,0,.1,0h.2c0,.1,0,.2.1.2.4.2.7.4.9.6,0,0,0,0,0,0l.2.2s0,0,0,0c1,.9,1.5,1.9,1.7,3.6l6.9,56.5c0,.5.3,1,.7,1.3l.6.5c.3.3.5.6.5.9,0,.2-.2.3-.5.3-7.5,1.6-15,5-22.3,8.2-2.8,1.2-5.6,2.5-8.4,3.7-21.3,8.8-42.9,17.9-59.2,24.8-22.7,9.6-41.5,17.7-59,25.3-2.9,1.3-5.9,2.5-8.5,3.6-7,2.9-14.3,6-21.1,9.5h-.2c-.2.2-.6.3-.9.3s-.3,0-.5,0c0,0,0,0,0,0-.4,0-1.4-.1-2.1-.6-.2-.1-.3-.2-.5-.4,0,0,0,0,0,0-.1-.1-.3-.3-.3-.5h0c0-.1,0-.2,0-.3h0c-.2-8-1.1-16.2-2-24v-.2c-.4-3.1-.7-6.2-1-9.4-2-20.5-4.2-41.5-6.7-64.2-2.1-19.1-4.5-41.4-7.1-63.4-.3-2.8-.6-5.7-.8-8.6v-.2c-.7-7.6-1.4-15.5-3.5-22.5-.1-.5.2-.6.5-.7l29.9-10.8c5.8-2.2,12-4.6,18.3-7l1.1-.4c2.1-.8,4.4-1.6,6.6-2.4l1.1-.4c.2,0,.5-.2.7-.4l.3-.3h0Zm-.6,4.5c-.2,0-.5,0-.7.1l-23,8.3c-3.9,1.5-7.7,3-11.6,4.5-3,1.2-6.1,2.3-9.1,3.5l-3.9,1.5c-.7.3-1.2.9-1.3,1.7,0,.8.3,1.5,1,1.9l3.6,2.1c15.6,9.1,31.2,18.2,46.9,27.3l3.6,2.1c.3.2.7.3,1,.3s.8-.1,1.1-.3c.6-.4,1-1.2.9-1.9l-.6-4.1c-.7-5.3-1.5-10.6-2.2-15.9-.5-3.5-.9-7.2-1.2-10.9-.5-5.4-1-10.9-2-16.2l-.4-2.3c-.1-.6-.5-1.1-1-1.4-.3-.2-.6-.3-1-.3h0Zm-32.4,20.4c3.8-1.5,7.7-3,11.5-4.4l16.2-5.9c.5,3.6.8,7.3,1.2,10.9.4,3.7.7,7.5,1.2,11.1.4,2.6.7,5.2,1.1,7.8-10.9-6.3-21.7-12.7-32.6-19l1.4-.5s0,0,0,0h0Zm41.5-18.1c-.4,0-.8.1-1.1.3-.6.4-1,1.2-.9,1.9l.6,4.1c.5,3.3.8,6.8,1.1,10.1h0c.3,3.3.6,6.6,1.1,9.8,1,7.1,2,14.3,3,21.4l.4,3c0,.6.4,1.1,1,1.4.3.2.7.3,1,.3s.5,0,.7-.1l2.4-.9c8.1-3.1,15.5-6,22.5-8.7l.9-.3c5.5-2.1,11.1-4.3,16.8-6.4l3.9-1.5c.7-.3,1.2-.9,1.3-1.7,0-.8-.3-1.5-1-1.9l-3.6-2.1c-14.5-8.4-28.9-16.8-43.4-25.2l-5.6-3.3c-.3-.2-.7-.3-1-.3h0Zm11.1,42.1c-.8-5.6-1.6-11.2-2.4-16.9-.4-3-.7-6.3-1.1-9.5,0-.8-.2-1.6-.2-2.4,10.4,6.1,20.9,12.1,31.3,18.2-3,1.1-6,2.3-9,3.4l-.9.3c-5.9,2.3-11.9,4.6-17.8,6.9h0Zm-70.1-20.7c-.4,0-.8.1-1.1.3-.6.4-1,1.2-.9,1.9l.6,4.1c2.2,15.9,4,31.9,5.7,47.4l1,9.4c3,27.2,5.9,54.5,8.6,81.1.4,3.8.8,7.6,1.2,11.2l1.1,9.4c.1.9.9,1.7,1.8,1.8,0,0,.1,0,.2,0,.9,0,1.6-.6,1.9-1.4l2.8-9c4.9-15.7,9.8-31.5,14.3-46.3,7.4-24,14.9-48.2,22.2-72.1l.5-1.5c.3-.9-.1-1.9-.9-2.3l-10.3-6h-.2c-14.4-8.5-29.3-17.1-43.9-25.6l-3.6-2.1c-.3-.2-.7-.3-1-.3h0Zm21,135.2c-2.4-24-5.1-48.5-7.8-73l-1-9.4h0c-1.4-13-2.9-26.2-4.6-39.5,12.3,7.1,24.5,14.3,36.8,21.4l.3.2,6.1,3.6c-6.9,22.6-14.1,45.8-21.3,69-2.9,9.3-5.7,18.5-8.6,27.8h0Zm94.3-120.3c-.2,0-.4,0-.7.1l-2.2.8c-5,1.7-10,3.9-14.8,6-3.5,1.5-7.1,3.1-10.5,4.4-4.9,1.9-9.7,3.7-14.6,5.6l-3.9,1.5c-.7.3-1.2.9-1.3,1.7,0,.8.3,1.5,1,1.9l3.6,2.1c11.3,6.6,22.7,13.2,34,19.9l14.8,8.6c.3.2.7.3,1,.3s.8-.1,1.1-.3c.6-.4,1-1.2.9-1.9l-.6-4.1c-.9-6.8-1.9-13.6-2.9-20.4-.4-3-.7-6.2-1-9.3h-2c0,.1,2,0,2,0-.4-4.2-.8-8.6-1.6-12.8l-.4-2.3c0-.6-.4-1.1-1-1.4-.3-.2-.7-.3-1-.3h0Zm-32.1,21.4c2.3-.9,4.5-1.8,6.8-2.6,3.6-1.4,7.3-3,10.9-4.6,3.2-1.4,6.4-2.8,9.6-4.1.3,2.4.5,4.9.8,7.3h0c0,0,0,.1,0,.1.3,3.2.6,6.5,1.1,9.7.6,4.1,1.2,8.2,1.7,12.3l-4.1-2.4c-8.9-5.2-17.9-10.5-26.8-15.7h0Zm41.2-19.7c-.4,0-.8.1-1.1.3-.6.4-1,1.2-.9,1.9l.6,4.1c.5,3.5.8,7.1,1.2,10.6.3,3.4.6,6.6,1.1,9.8,1,6.9,1.9,13.8,2.9,20.6l.3,2.5c0,.6.4,1.1,1,1.4.3.2.7.3,1,.3s.5,0,.7-.1l2.4-.9c6.6-2.6,13.2-5.1,19.8-7.6,2.8-1.1,5.7-2.3,8.7-3.6,0,0,0,0,0,0,0,0,0,0,0,0,3.3-1.4,6.6-2.9,10-4.1l3.9-1.5c.7-.3,1.2-.9,1.3-1.7s-.3-1.5-1-1.9l-3.6-2.1c-10.8-6.4-21.8-12.8-32.4-18.9l-15-8.7c-.3-.2-.7-.3-1-.3h0Zm11,41.3c-.7-5.2-1.5-10.4-2.2-15.6-.4-3-.7-6.2-1.1-9.5,0-.9-.2-1.9-.3-2.8l4.5,2.6c8.3,4.9,16.9,9.8,25.4,14.8-.9.4-1.9.8-2.8,1.2,0,0,0,0,0,0,0,0,0,0,0,0-2.9,1.3-5.7,2.5-8.4,3.5-5,1.9-10.1,3.9-15.1,5.8h0Zm-69.4-19.7c-.2,0-.5,0-.7.1-.6.2-1,.7-1.2,1.3l-.7,2.4c-7,22.6-14.1,45.9-21.3,69.1l-.6,2-.2.7c-4.8,15.7-9.9,31.9-14.8,47.9l-2.5,8.2c-.3.9,0,1.8.9,2.3.3.2.7.3,1,.3.5,0,1.1-.2,1.4-.6l5.9-6.2c12.6-13.2,25.2-26.4,35.9-37.6,17.2-17.9,34.3-35.8,50.9-53.1l1.8-1.8c.4-.4.6-1.1.5-1.7,0-.6-.4-1.1-1-1.5l-2.2-1.3c-18.3-10.7-36.3-21.1-49.9-29.1l-2.2-1.3c-.3-.2-.7-.3-1-.3h0Zm-26.9,109.6c3.3-10.8,6.7-21.6,10-32.4l.6-2.1c6.6-21.5,13.3-43.1,19.8-64.3,11.5,6.7,26,15.1,41.1,24-15.5,16.2-31.4,32.8-47.4,49.4-6.8,7.1-15.3,16-24.2,25.3h0Zm141.8-95.7c-.2,0-.4,0-.6.1l-2.2.7c-4.4,1.5-8.9,3.5-13.2,5.3-3,1.3-6.2,2.7-9.1,3.8-6.3,2.4-12.5,4.8-18.8,7.3l-3.9,1.5c-.7.3-1.2.9-1.3,1.7,0,.8.3,1.5,1,1.9l3.6,2.1c10.7,6.3,21.4,12.5,32.1,18.8,2.9,1.7,5.9,3.3,9,5,1.7.9,3.7,2,5.5,3l3.5,2c.3.2.6.3,1,.3s.8-.1,1.1-.4c.6-.4,1-1.2.9-1.9l-.6-4c-.9-6.6-1.8-13.2-2.8-19.7-.4-3-.7-6.1-1-9.2v-.2c-.5-4.7-.9-9.6-1.8-14.3l-.4-2.3c-.1-.6-.5-1.1-1-1.4-.3-.2-.7-.3-1-.3h0Zm-33.3,21.7c3.7-1.4,7.4-2.8,11.1-4.3,3.2-1.2,6.4-2.6,9.5-4,2.7-1.2,5.4-2.3,8.1-3.4.4,2.9.7,5.9,1,8.8h0c0,.1,0,.2,0,.2.3,3.2.6,6.4,1.1,9.5.6,4,1.1,7.9,1.7,11.9-2.6-1.4-5-2.7-7.4-4.1-8.3-4.9-16.6-9.8-25-14.6h0Zm-19.8.3c-.5,0-1.1.2-1.4.6l-1.1,1.1c-18.6,19.4-35.6,37.1-51.7,53.9-11.5,12-23.7,24.7-35.7,37.3l-6.6,7c-.7.7-.7,1.7-.2,2.5.4.6,1,.9,1.6.9s.5,0,.8-.2l8.9-3.7c1.3-.6,2.6-1.1,3.9-1.7,20.5-8.9,42.2-18.1,64.3-27.5,21.4-9.1,40.8-17.2,60.6-25.2l2.3-.9c3.3-1.3,6.7-2.7,10.1-4l3.8-1.5c.7-.3,1.2-.9,1.3-1.7s-.3-1.5-1-1.9l-3.5-2.1c-13.7-8.2-28.1-16.7-44-26-3.3-2-6.7-3.9-10-5.9l-1.4-.8c-.3-.2-.7-.3-1-.3h0Zm-70.6,84.4c7.4-7.7,14.8-15.4,22.1-23.1,15.8-16.5,32-33.4,49.5-51.7,2.4,1.4,4.8,2.8,7.3,4.3,13.1,7.7,25.3,14.9,36.9,21.8-.8.3-1.7.7-2.5,1h-.1c0,0-2.3,1-2.3,1-19.8,8-39.2,16.2-60.7,25.3-17.1,7.2-34,14.4-50.3,21.4h0Z"/>
        </g>
      </g>
      <g>
        <path class="cls-1" d="m523.7,544.3c-3.5,0-5.8-3.1-7.9-6.2-18.2-27.5-30.7-54.7-38.1-83.1-10.5-38.3-12.6-77.5-6.4-116.5,6-37.5,19.4-72.8,39.9-105,20.4-32.2,46.6-59.3,77.9-80.7,32.5-22.2,68.7-36.9,107.8-43.7,15.8-2.8,31.8-4.2,47.7-4.2,24,0,48.1,3.2,71.6,9.6l1.3.3c.4.1.7.4.7.8l7.1,50.9c0,.3,0,.7-.4.9-.2.1-.4.2-.6.2s-.2,0-.3,0l-3.1-1.1c-24.4-8.7-49.6-13.1-74.8-13.1s-18,.6-26.9,1.6c-64.6,7.9-116.1,36.3-153.1,84.3-50.8,66-63.2,139.2-36.8,217.8,5.3,15.9,12.3,30.6,20.7,43.9,2.5,4,4.5,8.8,0,14.5l-1.3,1.6c-5.8,7.2-11.8,14.6-17.3,22.2-1.5,2.1-4,4.9-7.3,4.9h-.1Zm220.9-433.4c-15.5,0-31.2,1.4-46.6,4.1-38.2,6.7-73.7,21.1-105.4,42.8-30.6,20.9-56.2,47.4-76.2,78.9-20,31.5-33.1,66.1-39,102.8-6.1,38.1-4,76.4,6.2,114,7.2,27.8,19.4,54.4,37.3,81.4,1.9,2.9,2.7,3.4,3,3.5.2,0,1-.4,2.5-2.4,5.6-7.7,11.6-15.2,17.4-22.4l1.3-1.6c1.8-2.3,2.1-3.8-.3-7.5-8.6-13.7-15.8-28.9-21.3-45.2-13.5-40.2-17-79.6-10.6-117.1,6.4-37.1,22.6-72.9,48.3-106.2,38-49.4,90.9-78.5,157.1-86.6,9.2-1.1,18.5-1.7,27.6-1.7,24.4,0,48.6,4,72.2,11.9l-5.5-39.5c-22.4-5.9-45.3-8.9-68.1-8.9Z"/>
        <path class="cls-1" d="m744.6,105.9c24,0,47.8,3.2,71.3,9.5l1.3.3,7.1,50.9-3.1-1.1c-24.6-8.8-49.8-13.2-75.2-13.2s-18,.6-27,1.7c-64.9,7.9-116.6,36.4-153.8,84.7-51,66.3-63.4,139.8-37,218.7,5.4,15.9,12.3,30.8,20.8,44.1,2.4,3.9,4.1,8.2,0,13.3l-1.3,1.6c-5.8,7.2-11.8,14.7-17.3,22.2-1.4,1.9-3.6,4.5-6.5,4.5s0,0-.1,0c-3.1,0-5.2-2.9-7.1-5.7-18.2-27.4-30.6-54.5-37.9-82.8-10.4-38.2-12.6-77.2-6.3-116,6-37.3,19.4-72.5,39.7-104.7,20.3-32.1,46.4-59.1,77.6-80.4,32.4-22.1,68.5-36.8,107.4-43.6l.3,2-.3-2c15.8-2.8,31.7-4.2,47.5-4.2m-220.8,433.4c.4,0,1.4-.3,3.3-2.9,5.6-7.7,11.6-15.2,17.4-22.4l1.3-1.6c2.3-2.8,2.2-4.8-.2-8.7-8.6-13.6-15.7-28.8-21.2-45-13.4-40-17-79.2-10.5-116.6,6.4-37,22.6-72.5,48.1-105.8,37.9-49.2,90.5-78.2,156.5-86.2,9.2-1.1,18.4-1.7,27.5-1.7,24.8,0,49.4,4.1,73.4,12.3l-5.8-41.8c-22.7-6-45.8-9.1-69-9.1s-31.2,1.4-46.8,4.1c-38.3,6.7-73.9,21.2-105.8,42.9-30.7,21-56.4,47.6-76.4,79.2-20.1,31.7-33.3,66.4-39.2,103.2-6.1,38.2-4,76.7,6.3,114.4,7.3,27.9,19.5,54.6,37.4,81.7.7,1.1,2.6,3.9,3.8,3.9m220.8-435.4c-15.9,0-32,1.4-47.8,4.2,0,0,0,0,0,0-39.2,6.9-75.6,21.6-108.2,43.9-31.4,21.4-57.6,48.7-78.1,80.9-20.5,32.4-34,67.8-40,105.4-6.3,39.1-4.1,78.4,6.4,116.9,7.4,28.5,19.9,55.8,38.2,83.4,1.6,2.4,4.3,6.5,8.7,6.6h.1c3.8,0,6.5-3,8.1-5.3,5.5-7.5,11.4-15,17.2-22.1l1.3-1.6c2.6-3.3,5-8,.2-15.7-8.3-13.2-15.2-27.9-20.6-43.7-26.3-78.2-13.9-151.1,36.6-216.8,36.8-47.8,88.1-76.1,152.4-83.9,8.9-1.1,17.9-1.6,26.8-1.6,25.2,0,50.2,4.4,74.5,13.1l3.1,1.1c.2,0,.4.1.7.1.5,0,.9-.2,1.3-.4.5-.4.8-1.1.7-1.8l-7.1-50.9c-.1-.8-.7-1.4-1.5-1.7l-1.3-.3c-23.6-6.4-47.7-9.6-71.8-9.6h0Zm-220.7,433.2c-.4-.4-1.1-1.1-2.2-2.9-17.8-26.9-29.9-53.4-37.1-81.1-10.2-37.4-12.3-75.6-6.2-113.6,5.9-36.5,18.9-71,38.9-102.4,19.9-31.4,45.4-57.8,75.9-78.6,31.6-21.6,67-36,105-42.6,15.4-2.7,31-4.1,46.5-4.1,22.5,0,45.1,2.9,67.2,8.7l5.2,37.3c-23.2-7.6-47.1-11.4-71-11.4s-18.5.6-27.8,1.7c-66.5,8.1-119.6,37.4-157.8,87-25.8,33.5-42.1,69.4-48.5,106.6-6.5,37.7-2.9,77.3,10.6,117.6,5.5,16.4,12.7,31.7,21.4,45.4,2.2,3.5,1.9,4.5.4,6.4l-1.3,1.6c-5.9,7.3-11.9,14.8-17.5,22.5-.8,1.1-1.3,1.6-1.6,1.8h0Z"/>
      </g>
      <g>
        <path class="cls-1" d="m743,659.3c-56.4,0-111.8-18.8-164.5-55.9-4.5-3.2-7.4-5.9-7.6-9.7-.2-3.1,1.5-6.3,5.4-9.9,2.6-2.4,5-5.8,7.3-9.2,4.2-6,8.1-11.7,14-13.2.9-.2,1.8-.4,2.7-.4,5.8,0,11,4.6,16.1,9,2.7,2.4,5.6,4.9,8.3,6.5,40.6,23.3,81.3,35.1,121.1,35.1s80.7-12.3,119.6-36.4c38.3-23.8,66.8-54.1,84.6-90,17.6-35.4,25.1-76.6,22.1-122.3-3.9-60.9-34.3-118.5-83.5-158.2l-2.6-2.1c-.3-.2-.4-.6-.4-.9,0-.3.3-.6.6-.8l47.2-20.2c.1,0,.3,0,.4,0,.3,0,.5,0,.7.3l1,.9c41,39,68.8,89,80.4,144.4,13,62.2,3.6,127.9-26.5,185.1-30.2,57.3-79.2,102-138,125.8-36.5,14.8-73.1,22.3-108.6,22.3h0Zm-142.6-92.3c-.4,0-.8,0-1.2.2-3.8,1-7.1,5.8-10.6,10.8-2.5,3.6-5.1,7.3-8.1,10.2-3.2,2.9-3.6,4.5-3.5,5.1.1,1.7,3.6,4.2,5.1,5.2,41.9,29.5,85.4,47.3,129.4,52.9,10.3,1.3,20.8,2,31.2,2,34.9,0,70.8-7.4,106.7-21.9,57.4-23.3,105.3-67,134.9-123,29.5-55.9,38.7-120.2,26-181.1-11.2-53.5-37.9-101.9-77.3-139.9l-36.6,15.7c48.1,40.6,77.9,98.6,81.9,159.4,3,46.8-4.6,89-22.8,125.3-18.4,36.9-47.6,68-86.8,92.4-39.7,24.7-81,37.2-122.7,37.2-40.9,0-82.7-12.1-124.1-35.8-3.3-1.9-6.3-4.5-9.3-7.1-4.4-3.9-8.6-7.5-12.1-7.5Z"/>
        <path class="cls-1" d="m934,181.6l1,.9c40.9,38.9,68.6,88.6,80.2,143.8,13,62,3.6,127.5-26.4,184.4-30.1,57.1-78.9,101.6-137.5,125.3-36.6,14.8-72.7,22.2-108.2,22.2h0c-56.3,0-111.2-18.6-163.9-55.7-4.3-3-7-5.6-7.2-9-.2-2.8,1.4-5.7,5.1-9.1,2.7-2.5,5.1-6,7.4-9.3,4-5.8,7.9-11.4,13.5-12.8.8-.2,1.7-.3,2.5-.3,5.4,0,10.5,4.4,15.4,8.7,2.8,2.4,5.6,4.9,8.5,6.6,41,23.5,81.6,35.2,121.6,35.2s80.9-12.2,120.1-36.6c38.4-23.9,67-54.3,85-90.4,17.7-35.6,25.2-76.9,22.2-122.8-3.9-61.1-34.5-119.1-83.8-158.9l-2.6-2.1,47.2-20.2m-188.2,434.9c-40.7,0-82.3-12-123.6-35.7-3.2-1.8-6.2-4.5-9.1-7-4.5-4-8.8-7.7-12.8-7.7s-1,0-1.5.2c-4.2,1.1-7.6,6-11.2,11.2-2.5,3.5-5,7.2-8,10-2.6,2.4-3.9,4.4-3.8,5.9.1,1.9,2.7,4,5.5,6,42,29.6,85.7,47.4,129.9,53.1,10.4,1.3,20.8,2,31.4,2,35.1,0,71-7.4,107.1-22,57.6-23.3,105.7-67.2,135.4-123.5,29.6-56.1,38.9-120.7,26.1-181.7-11.3-54-38.3-102.7-78-140.9l-38.7,16.6c48.7,40.5,78.8,98.5,82.7,159.7,3,46.6-4.6,88.6-22.7,124.8-18.3,36.7-47.4,67.7-86.5,92-39.6,24.6-80.7,37.1-122.2,37.1h0m188.1-436.9c-.3,0-.5,0-.8.2l-47.2,20.2c-.6.3-1.1.9-1.2,1.6,0,.7.2,1.4.7,1.8l2.6,2.1c48.9,39.5,79.2,96.9,83.1,157.5,2.9,45.6-4.5,86.5-22,121.8-17.8,35.7-46.1,65.9-84.3,89.6-38.7,24.1-78.8,36.3-119,36.3s-80.1-11.8-120.6-35c-2.7-1.5-5.4-4-8.2-6.3-5.2-4.5-10.5-9.2-16.7-9.2s-2,.1-3,.4c-6.3,1.6-10.3,7.5-14.6,13.6-2.3,3.3-4.6,6.7-7.1,9-4.2,3.8-6,7.2-5.7,10.7.3,4.2,3.3,7.1,8,10.5,52.9,37.2,108.4,56.1,165,56.1,35.7,0,72.4-7.5,109-22.4,58.9-23.9,108.1-68.7,138.5-126.2,30.3-57.4,39.7-123.4,26.6-185.8-11.7-55.6-39.6-105.7-80.7-144.9l-1-.9c-.4-.4-.9-.6-1.4-.6h0Zm-35.8,23.9l34.5-14.8c38.9,37.8,65.4,85.8,76.5,138.9,12.7,60.6,3.5,124.7-25.9,180.4-29.5,55.9-77.2,99.4-134.4,122.6-35.8,14.5-71.5,21.8-106.3,21.8s-20.9-.7-31.1-2c-43.9-5.6-87.3-23.4-129-52.7-4-2.8-4.6-4-4.7-4.4,0,0,0-1.3,3.2-4.3,3.2-2.9,5.8-6.7,8.3-10.3,3.4-4.9,6.6-9.5,10.1-10.4.3,0,.6-.1,1-.1,3.2,0,7.4,3.7,11.5,7.2,3,2.6,6.1,5.3,9.4,7.3,41.6,23.9,83.5,36,124.6,36h0c41.9,0,83.3-12.6,123.2-37.4,39.4-24.5,68.7-55.7,87.2-92.8,18.2-36.5,25.9-78.9,22.9-125.9-3.9-60.5-33.4-118.3-81-159h0Z"/>
      </g>
      <g>
        <path class="cls-1" d="m334.2,689.8c-49.9,0-100.6-12.3-146.6-35.7-68.8-34.9-122.3-91.5-150.5-159.3-6-14.4-11.1-29.2-15.1-43.9-20.7-76-12.8-157,22.2-228.2,35.1-71.2,94.3-126.5,166.9-155.8,39.3-15.8,80.4-23.9,122.3-23.9s86.4,8.7,126.6,25.9c41,17.5,77.5,42.9,108.6,75.5,3.9,4,6.4,7.6,6,11.6-.3,3.3-2.5,6.2-7.4,9.7-7.5,5.3-14.3,12.2-20.8,18.8l-1.2,1.2c-2.6,2.6-5,4.8-8.2,4.8-2.6,0-5.1-1.5-8.2-4.6-28.4-29.9-60.5-52.3-95.3-66.5-31.2-12.7-65.5-19.1-101.9-19.1s-8.5,0-12.8.3c-70.8,2.9-139.1,36.6-187.2,92.7-47.9,55.8-70.9,127.9-63.1,197.9,7.9,70.3,40.3,133.2,91.2,177.3,47.5,41,109.4,63.6,174.4,63.6s9-.1,13.5-.3c40.7-1.9,78-11.7,111-29.1,33.2-17.5,62.2-42.9,86.3-75.4,62.6-84.6,72-177.6,28-276.3-2.3-5.2-3.7-11,2.3-17.2,9.3-9.6,17.2-17.4,25-24.4,3.2-2.9,5.8-4.7,8.6-4.7s.8,0,1.2.1c2.8.5,5,2.7,7.5,7.5,49.3,95,52.8,191.2,10.3,286-43.1,96.2-118,157.9-222.5,183.3-23.1,5.6-47,8.5-71.1,8.5h0Zm-.8-640.7c-41.1,0-81.5,7.9-120,23.4-71.2,28.7-129.4,83-163.8,152.9C15.2,295.2,7.4,374.8,27.8,449.3c4,14.5,9,29,14.9,43.1,27.7,66.5,80.2,122,147.7,156.3,45.1,22.9,94.9,35,143.9,35,23.7,0,47.1-2.8,69.7-8.3,102.6-25,176.1-85.6,218.5-180,41.7-93,38.3-187.5-10.1-280.8-2.1-4-3.1-4.3-3.2-4.4h0c-.5,0-1.7.6-4.6,3.2-7.7,6.9-15.5,14.6-24.7,24.1-3.2,3.3-3.4,5.5-1.2,10.6,45,100.9,35.3,195.9-28.7,282.3-24.6,33.3-54.3,59.2-88.3,77.2-33.8,17.8-72,27.9-113.5,29.8-4.6.2-9.2.3-13.8.3-66.5,0-129.8-23.1-178.3-65.1-52.1-45-85.2-109.3-93.2-181.1-8-71.6,15.5-145.4,64.5-202.5,49.2-57.3,119-91.9,191.5-94.8,4.3-.2,8.7-.3,13-.3,78.7,0,146.5,29.4,201.6,87.5,2.3,2.4,3.4,2.8,3.8,2.8h0c.9,0,2.5-1.5,4-3l1.2-1.2c6.7-6.8,13.7-13.8,21.6-19.5,3.1-2.2,4.8-4,4.9-5.4.1-1.4-1.2-3.6-4.3-6.8-30.5-32-66.4-57-106.6-74.1-39.5-16.9-81.4-25.4-124.3-25.4Z"/>
        <path class="cls-1" d="m333.4,44c86.8,0,171.6,35.1,234.6,101.1,3.7,3.9,6,7.2,5.7,10.8-.3,3-2.4,5.7-7,9-7.6,5.4-14.4,12.3-21,18.9l-1.2,1.2c-2.4,2.4-4.7,4.5-7.5,4.5s0,0,0,0c-2.3,0-4.6-1.4-7.4-4.3-28.5-30-60.7-52.5-95.7-66.7-31.4-12.8-65.7-19.2-102.3-19.2-4.3,0-8.5,0-12.8.3-71.1,2.9-139.6,36.8-187.9,93-48.1,56-71.2,128.4-63.3,198.6,7.9,70.5,40.4,133.7,91.5,177.9,47.9,41.4,109.7,63.9,175,63.9s9-.1,13.6-.3c40.8-1.9,78.3-11.8,111.4-29.2,33.3-17.6,62.5-43.1,86.6-75.7,62.8-84.9,72.3-178.2,28.1-277.3-2.5-5.7-3.1-10.6,2.1-16.1,9.3-9.6,17.2-17.3,25-24.3,3.1-2.8,5.5-4.5,7.9-4.5.3,0,.6,0,1,0,2.5.4,4.4,2.5,6.8,7,49.2,94.7,52.6,190.7,10.2,285.1-43,95.9-117.7,157.4-221.9,182.8-23.2,5.6-47,8.4-70.9,8.4-49.6,0-99.8-12-146.1-35.6-68.6-34.8-121.9-91.2-150.1-158.8-6-14.4-11.1-29.1-15.1-43.7-20.6-75.8-12.8-156.6,22.2-227.5,34.9-71,94-126.1,166.4-155.3,39.7-16,81-23.8,121.9-23.8m.8,640.8c23.6,0,47.1-2.8,69.9-8.3,102.9-25.1,176.7-85.8,219.2-180.5,41.9-93.3,38.5-188.1-10.1-281.7h0c-1.6-3.1-2.9-4.7-3.9-4.9,0,0-.1,0-.2,0-1.3,0-3.5,1.8-5.3,3.4-7.7,6.9-15.6,14.6-24.8,24.1-3.4,3.6-3.8,6.3-1.4,11.7,44.8,100.5,35.2,195.2-28.6,281.3-24.5,33.1-54.1,59-88,76.9-33.6,17.8-71.7,27.8-113.1,29.7-4.6.2-9.2.3-13.7.3h0c-66.4,0-129-22.8-177.7-64.8-51.9-44.8-84.9-108.9-92.9-180.5-8-71.3,15.4-144.8,64.2-201.7,49-57.1,118.6-91.5,190.8-94.4,4.3-.2,8.7-.3,12.9-.3,78.4,0,146,29.3,200.9,87.1,2,2.1,3.4,3.1,4.5,3.1,0,0,0,0,0,0,1.2,0,2.6-1.2,4.7-3.3l1.2-1.2c6.7-6.8,13.6-13.8,21.5-19.4,3.5-2.5,5.2-4.4,5.3-6.1.2-1.8-1.2-4.1-4.6-7.6-62.1-65.1-145.9-99.8-231.7-99.8s-81.2,7.7-120.4,23.5c-71.4,28.8-129.8,83.3-164.3,153.4C14.2,295,6.4,374.8,26.8,449.6c4,14.5,9,29.1,14.9,43.3,27.8,66.7,80.4,122.4,148.2,156.8,45.8,23.2,95.3,35.1,144.3,35.1m-.8-642.8c-42,0-83.3,8.1-122.7,24-72.8,29.4-132.3,84.9-167.4,156.3C8.2,293.7.2,375,21,451.2c4,14.8,9.1,29.6,15.2,44,28.4,68,82,124.8,151,159.8,46.1,23.4,97,35.8,147,35.8,24.2,0,48.2-2.9,71.3-8.5,104.8-25.6,179.9-87.4,223.2-183.9,42.7-95.1,39.2-191.6-10.3-286.9-2.7-5.1-5-7.4-8.2-8-.4,0-.9-.1-1.3-.1-3.1,0-5.8,1.9-9.3,5-7.8,7-15.8,14.8-25.1,24.4-6.4,6.7-5,12.7-2.5,18.3,43.9,98.4,34.5,191-27.9,275.3-24,32.4-52.9,57.7-86,75.2-32.9,17.3-70.1,27.1-110.6,29-4.5.2-9,.3-13.5.3-32.3,0-63.8-5.5-93.4-16.3-29.7-10.8-56.7-26.7-80.4-47.1-50.7-43.8-83-106.6-90.8-176.6-7.8-69.7,15.1-141.5,62.8-197.1,47.9-55.8,115.9-89.5,186.5-92.3,4.3-.2,8.6-.3,12.8-.3,36.3,0,70.4,6.4,101.5,19.1,34.7,14.1,66.6,36.4,95,66.2,3.2,3.4,5.9,4.9,8.8,4.9h0c3.6,0,6.3-2.4,8.9-5.1l1.2-1.2c6.5-6.6,13.3-13.4,20.7-18.7,5.1-3.6,7.5-6.8,7.8-10.4.4-4.4-2.2-8.1-6.2-12.3-31.2-32.7-67.9-58.2-109-75.7-40.4-17.2-83.1-26-127-26h0Zm.8,640.8c-48.8,0-98.4-12.1-143.4-34.9-67.3-34.2-119.6-89.5-147.2-155.8-5.9-14.1-10.9-28.6-14.8-43-20.3-74.3-12.5-153.6,21.8-223.3,34.3-69.6,92.3-123.8,163.3-152.4,38.4-15.5,78.7-23.4,119.7-23.4s84.5,8.5,123.9,25.3c40.1,17.1,75.9,42,106.3,73.9,3.5,3.7,4.1,5.3,4.1,6.1,0,.5-.6,1.9-4.5,4.7-8,5.7-15,12.7-21.7,19.6l-1.2,1.2c-.6.6-2.6,2.6-3.2,2.7,0,0-.9-.1-3.1-2.5-55.3-58.2-123.4-87.8-202.4-87.8s-8.7,0-13,.3c-72.8,2.9-142.8,37.6-192.2,95.1-49.2,57.3-72.8,131.4-64.7,203.2,8.1,72.1,41.3,136.6,93.6,181.8,24.4,21.1,52.3,37.4,82.8,48.6,30.5,11.1,62.9,16.8,96.2,16.8s9.2-.1,13.8-.3c41.7-2,80-12,113.9-29.9,34.1-18,64-44.1,88.7-77.5,64.2-86.8,73.9-182.1,28.8-283.4-2.2-5-1.7-6.7,1-9.5,9.2-9.5,17-17.1,24.7-24,2.3-2.1,3.4-2.7,3.8-2.9.3.3,1.1,1.2,2.5,3.8,48.3,93,51.7,187.2,10.1,279.9-42.2,94.1-115.5,154.5-217.8,179.4-22.5,5.5-45.9,8.3-69.4,8.3h0Z"/>
      </g>
      <g>
        <path class="cls-1" d="m556.3,503c-.3,0-.6-.2-.8-.4l-1.7-2.5c-23.2-33.1-35.4-79.5-33.7-127.3,1.8-47.7,17.4-92.2,42.8-122.2l1.8-2.1c.2-.2.5-.4.8-.4s0,0,0,0c.3,0,.6.2.8.5l1.5,2.3c18.2,28.9,28.6,70.7,28.6,114.5,0,34.6-6.6,86.1-37.5,134.5l-1.6,2.5c-.2.3-.5.5-.8.5h0Zm8.5-245.2c-23,28.9-37,70.8-38.7,115.3-1.7,44.5,9.3,88.1,30,119.8,28.2-46.1,34.1-94.6,34.2-127.4,0-40.8-9.2-80-25.5-107.8Z"/>
        <path class="cls-1" d="m565.4,249.2l1.5,2.3c18.1,28.8,28.5,70.3,28.4,114,0,34.5-6.5,85.7-37.4,133.9l-1.6,2.5-1.7-2.5c-23-33-35.2-79.1-33.5-126.7,1.8-47.5,17.3-91.8,42.5-121.6l1.8-2.1m-9.2,245.5c28.9-46.6,35.1-95.9,35.1-129.2,0-41.7-9.6-81.5-26.4-109.5-23.7,29.1-38.1,71.6-39.8,117-1.7,45.5,9.6,89.6,31.1,121.7m9.2-247.5c-.6,0-1.1.3-1.5.7l-1.8,2.1c-25.5,30.1-41.2,74.9-43,122.8-1.8,47.9,10.6,94.6,33.8,127.9l1.7,2.5c.4.5,1,.9,1.6.9s0,0,0,0c.7,0,1.3-.4,1.6-.9l1.6-2.5c31.1-48.6,37.7-100.3,37.7-135,0-44-10.4-86-28.7-115.1l-1.5-2.3c-.3-.5-.9-.9-1.6-.9,0,0,0,0-.1,0h0Zm-9.3,243.8c-20.1-31.5-30.6-74.2-29-117.9,1.6-43.7,15.3-84.9,37.6-113.6,15.7,27.6,24.6,66,24.6,106,0,32.3-5.9,80-33.2,125.5h0Z"/>
      </g>
      <g>
        <g>
          <path class="cls-1" d="m333.8,696.6c-57,0-113.4-15-163-43.3-74.7-42.6-129.4-111-153.9-192.4C-7.5,379.4.4,292.5,39.3,216.2c28.7-56.2,72.1-102.6,125.6-134.2,51-30.2,109.6-46.1,169.2-46.1,90.7,0,175.3,36.3,238.3,102.3,4.9,5.1,8.1,7.1,11.6,7.1,2.8,0,5.9-1.2,10.3-3.9,46.2-28.4,98.6-43.4,151.4-43.4s46.1,2.8,68.5,8.5c.4,0,.7.4.7.8l1.4,10c0,.3,0,.7-.3.9-.2.2-.4.2-.7.2s-.2,0-.3,0c-23.1-6.2-46.8-9.4-70.7-9.4s-31.4,1.4-46.8,4.1c-38.5,6.7-74.2,21.2-106.2,43.1-30.8,21-56.6,47.8-76.7,79.5-20.2,31.8-33.4,66.6-39.3,103.5-6.2,38.4-4,77,6.3,114.8,7.3,28,19.6,54.8,37.5,81.9,1.7,2.6,3.2,4.4,4.7,4.4s2.5-1.1,4.1-3.3c5.5-7.7,11.6-15.1,17.4-22.4l1.3-1.6c2.5-3.1,2.5-5.6-.2-9.9-8.5-13.5-15.6-28.6-21.1-44.8-26.8-79.9-14.2-154.4,37.4-221.5,37.7-48.9,90.1-77.8,155.8-85.9,9-1.1,18.1-1.7,27.1-1.7,25.9,0,51.7,4.5,76.4,13.3.4.1.6.4.7.8l1.5,10.7c0,.3,0,.7-.4.9-.2.1-.4.2-.6.2s-.2,0-.4,0c-24.9-9.3-51-14.1-77.7-14.1s-40.7,2.8-60.6,8.2c-17.2,4-35.6,12-57.8,25.2-6.5,3.8-7.1,6.3-3.6,13.3,29.4,57.5,43.2,115.2,41,171.5-2.3,56.3-20.6,112.7-54.6,167.6-3.5,5.7-3.1,8,2.2,11.8,42.7,30,87.1,45.2,131.9,45.2,32.1,0,64.9-7.8,97.5-23.3,49.8-23.6,88.6-65.1,109.4-117,20.6-51.6,21.3-108,1.8-158.8-14.9-38.9-39.9-72.7-72.1-97.7-.3-.2-.4-.6-.4-.9,0-.4.3-.7.6-.8l9.8-4.2c.1,0,.3,0,.4,0,.2,0,.4,0,.6.2,50,40.4,81,99.1,84.9,161.1,3,46.4-4.6,88.3-22.5,124.3-18.2,36.6-47.2,67.4-86.1,91.6-39.4,24.5-80.4,36.9-121.7,36.9s-82-12-123.1-35.6c-3.1-1.8-6.1-4.4-9-6.9-4.7-4.1-9.1-8-13.4-8s-1.2,0-1.7.2c-4.5,1.2-8,6.3-11.8,11.6-2.4,3.5-4.9,7.1-7.9,9.8-2.9,2.7-4.3,4.9-4.2,6.7.1,2.2,2.5,4.3,5.9,6.7,52.1,36.7,106.6,55.3,162,55.3,35,0,71.1-7.4,107.3-22.1,57.9-23.4,106.1-67.5,135.9-123.9,29.7-56.3,39-121.1,26.2-182.4-11.5-54.6-38.9-103.8-79.3-142.3-.2-.2-.4-.6-.3-.9,0-.3.3-.6.6-.7l9.4-4c.1,0,.3,0,.4,0,.3,0,.5,0,.7.3,21.6,21.3,39.8,46,54.2,73.5,17.7,33.9,28,70.7,30.5,109.3,2.4,37.1-2.4,74.1-14.3,109.9-11.9,35.7-30.1,68-54.2,96.2-25.1,29.3-55.2,52.4-89.6,68.9-18,8.6-34.6,14.8-50.7,19.1-26.3,6.6-52.3,10-77.3,10-60.4,0-117.6-19.7-169.9-58.5-3.2-2.4-5.3-3.3-7.2-3.3s-4.1,1.1-7,3.8c-60.9,57.1-140.6,88.6-224.3,88.6Zm-.6-649.5c-41.3,0-81.9,7.9-120.6,23.5-71.7,28.9-130.2,83.6-164.8,153.9C13.2,294.8,5.4,374.8,25.8,449.9c4,14.5,9,29.1,14.9,43.4,23.6,56.6,64.5,105,118.4,139.9,52.3,33.9,114.6,52.6,175.1,52.6s47.3-2.8,70-8.3c103.3-25.2,177.2-86.1,219.8-181.1,42-93.6,38.6-188.7-10.2-282.5-2-3.8-3.5-5.4-5-5.4s-3.8,1.8-5.9,3.7c-7.7,7-15.6,14.6-24.8,24.2-3.7,3.8-4.1,7.1-1.6,12.8,44.7,100.2,35.1,194.5-28.4,280.3-24.4,33-53.9,58.8-87.7,76.6-33.5,17.7-71.4,27.6-112.7,29.6-4.6.2-9.3.3-13.9.3-68.2,0-132.7-24.4-181.6-68.8-48.9-44.4-80.1-106.7-87.8-175.6-8-71.1,15.4-144.3,64-200.9,48.8-56.9,118.1-91.2,190.1-94.1,4.4-.2,8.8-.3,13.1-.3,78,0,145.3,29.2,200,86.8,2.2,2.3,3.9,3.4,5.3,3.4s3.1-1.3,5.4-3.6l1.2-1.2c6.7-6.7,13.6-13.7,21.3-19.2,3.8-2.7,5.5-4.8,5.7-6.8.2-2.1-1.2-4.6-4.9-8.4-30.7-32.2-66.8-57.3-107.3-74.5-39.8-17-82-25.6-125.2-25.6Zm3,58.7c-17.5,0-35.3,2-52.8,5.8-41.5,11.4-77.7,28.3-107.6,50.4-28.7,21.3-51.6,47.3-68,77.3-35.2,64.6-42.8,137.4-21.3,205.1,21.5,67.6,69.6,122.7,135.4,155.1,33.7,16.6,72.1,25.3,111.1,25.3,65.3,0,129-24.4,174.5-66.8,6.3-5.9,7.5-9.1,2.2-16.7-24.8-35.2-40.4-75.1-46.3-118.5-11.1-81.5,9.5-155.6,61.2-220.3,4-5,3.9-7.2-.3-11.5-54.6-55.8-119.7-85.3-188.2-85.3Zm228.8,148.5c-24.3,29.3-39.2,72.5-40.9,118.7-1.7,46.3,10,91.2,32.1,123.6,29.8-47.2,36.1-97.3,36.1-131.1,0-42.5-9.9-83-27.2-111.2Z"/>
          <path class="cls-1" d="m334.1,36.9c85.4,0,171.7,33,237.6,102,4.6,4.9,8.2,7.4,12.4,7.4s6.4-1.3,10.8-4c47.8-29.4,99.9-43.3,150.9-43.3,23.1,0,46,2.9,68.3,8.4l1.4,10c-22.8-6.2-46.6-9.4-70.9-9.4s-31.2,1.3-47,4.1c-158.5,27.8-259.2,186.8-216.8,342.2,7.7,29.6,20.8,56.8,37.7,82.2,1.8,2.8,3.5,4.8,5.5,4.8s3-1.1,4.9-3.7c5.9-8.2,12.3-16,18.6-23.9,3.1-3.9,2.5-6.9-.1-11-8.8-14-15.7-28.9-21-44.6-26.9-80.2-13.4-154.7,37.3-220.5,38.4-49.9,91.9-77.7,155.1-85.5,9.1-1.1,18.1-1.6,27-1.6,26.3,0,52,4.7,76.1,13.3l1.5,10.7c-24.6-9.2-51-14.1-78.1-14.1s-40.5,2.7-60.9,8.3c-19.9,4.6-39.3,14.1-58,25.3-6.9,4.1-7.7,7.2-3.9,14.6,59,115.2,54.5,228-13.6,338.1-3.9,6.3-3.1,9.1,2.5,13.1,42.6,30,86.9,45.4,132.5,45.4s64.8-7.7,97.9-23.4c103.8-49.2,152-171.8,111.7-277-15.4-40.3-40.8-73.7-72.4-98.1l9.8-4.2c47.8,38.6,80.4,95.6,84.6,160.4,5.9,92.3-29.7,166.2-108.2,215-39.8,24.8-80.3,36.8-121.2,36.8s-81.8-12-122.6-35.4c-8-4.6-15.4-15-22.9-15s-1.3,0-2,.3c-8,2.1-12.7,14.9-20,21.7-7.4,6.8-4.9,10.2,1.9,15,51.9,36.6,106.2,55.4,162.6,55.4s70.9-7.3,107.6-22.1c120.3-48.7,189.3-180.5,162.7-307.5-11.9-56.6-40.5-105.6-79.6-142.8l9.4-4c21,20.7,39.4,45.2,54,73.2,72.3,138.4,13.4,315.6-127.1,382.9-16.3,7.8-32.9,14.4-50.5,19-26.3,6.6-52,10-77.1,10-60.3,0-116.8-19.3-169.3-58.3-3.1-2.3-5.5-3.5-7.8-3.5s-4.7,1.3-7.7,4.1c-62.1,58.2-142.5,88.3-223.7,88.3s-111.7-14.2-162.5-43.1C17.3,564.6-40,373.9,40.2,216.7,100,99.5,216.3,36.9,334.1,36.9m.3,649.9c23.5,0,47-2.7,70.3-8.4,102.5-25,177.3-85.4,220.5-181.6,42.8-95.4,38.1-190.5-10.2-283.4-2.2-4.2-3.9-6-5.9-6-1.8,0-3.8,1.4-6.6,3.9-8.6,7.8-16.8,15.9-24.9,24.2-4.3,4.5-4.3,8.3-1.7,13.9,43.9,98.5,35.9,192.6-28.3,279.3-49.1,66.3-117.2,101.9-199.6,105.8-4.7.2-9.3.3-13.8.3-140.4,0-252.5-101.5-268.4-243.5C49,242.6,168.7,103.5,318.7,97.4c4.4-.2,8.7-.3,13.1-.3,78.1,0,144.6,29,199.3,86.5,2.5,2.6,4.3,3.7,6,3.7s3.7-1.5,6.1-3.9c7.1-7.1,14.2-14.5,22.4-20.3,8.3-5.9,7.8-9.6,1-16.7-62.4-65.5-146.8-100.4-233.2-100.4s-81.6,7.7-121,23.6C63.6,129.7-17.6,294.5,24.9,450.1c4.1,14.8,9.1,29.3,15,43.5,48.7,116.7,170,193.1,294.5,193.1m-1.2-60.9c64.1,0,128.1-23.2,175.2-67.1,6.4-6,8.1-9.7,2.3-18-25-35.5-40.3-75.2-46.1-118.1-11.1-81.7,9.5-155.1,61-219.6,4.1-5.1,4.4-8-.3-12.8-57.1-58.3-123-85.6-188.9-85.6-17.7,0-35.5,2-53,5.9-85.3,23.3-143.9,68.9-176.3,128.3-73,134-22.2,294.3,114.6,361.6,34.8,17.1,73.2,25.4,111.6,25.4m223.1-127.5c52.3-81.7,43.6-190.7,8.9-245.8-52.3,61.8-56.8,177.3-8.9,245.8M334.1,34.9c-59.8,0-118.5,16-169.7,46.2-26.2,15.5-50.1,34.6-71.1,56.7-21.8,23-40.2,49.2-54.9,78C-.6,292.3-8.6,379.4,16,461.2c24.6,81.7,79.4,150.3,154.3,193,49.7,28.4,106.3,43.4,163.5,43.4s81.4-7.6,119.7-22.5c39.2-15.2,74.6-37.6,105.3-66.4,2.7-2.5,4.5-3.5,6.3-3.5s3.6.9,6.6,3.1c26.3,19.5,54,34.3,82.3,44.1,28.3,9.7,57.9,14.6,88.2,14.6s51.1-3.4,77.5-10c16.2-4.2,32.8-10.5,50.9-19.1,34.5-16.5,64.7-39.8,89.9-69.1,24.2-28.3,42.5-60.7,54.4-96.5,12-35.9,16.8-73,14.3-110.2-2.5-38.7-12.8-75.6-30.6-109.7-14.4-27.6-32.7-52.4-54.3-73.7-.4-.4-.9-.6-1.4-.6-.3,0-.5,0-.8.2l-9.4,4c-.6.3-1.1.8-1.2,1.5-.1.7.1,1.3.6,1.8,40.3,38.3,67.6,87.3,79,141.8,12.8,61.1,3.5,125.6-26.1,181.7-29.7,56.3-77.8,100.1-135.4,123.5-36,14.6-72,22-106.9,22s-55.4-4.7-82.3-13.9c-26.7-9.1-53.3-23-79.1-41.2-2.8-2-5.4-4-5.5-6,0-1.5,1.2-3.5,3.8-5.9,3-2.8,5.5-6.4,8-10,3.6-5.2,7-10.1,11.2-11.2.5-.1,1-.2,1.5-.2,3.9,0,8.2,3.8,12.8,7.7,2.9,2.6,5.9,5.2,9.1,7,41.3,23.7,82.9,35.7,123.6,35.7s82.6-12.5,122.2-37.1c39.1-24.3,68.2-55.3,86.5-92,18-36.2,25.6-78.2,22.7-124.8-2-31.9-10.9-62.4-26.2-90.8-14.7-27.3-34.6-51.1-59.1-71-.4-.3-.8-.4-1.3-.4-.3,0-.5,0-.8.2l-9.8,4.2c-.7.3-1.1.9-1.2,1.6,0,.7.2,1.4.8,1.8,32.1,24.9,56.9,58.5,71.8,97.3,19.4,50.6,18.7,106.7-1.8,158-20.6,51.6-59.3,93-108.9,116.4-32.5,15.4-65.1,23.2-97,23.2s-88.8-15.2-131.3-45.1c-4.6-3.2-5.4-4.9-2-10.4,17-27.5,30.3-55.6,39.4-83.5,9.1-27.9,14.3-56.4,15.4-84.6,1.1-28.2-1.8-57-8.6-85.6-6.8-28.5-17.7-57.6-32.5-86.4-3.3-6.4-2.8-8.4,3.2-12,22.1-13.1,40.4-21.1,57.5-25,0,0,0,0,0,0,19.9-5.4,40.2-8.2,60.4-8.2s52.6,4.7,77.4,14c.2,0,.5.1.7.1.4,0,.9-.2,1.2-.4.6-.4.8-1.1.7-1.8l-1.5-10.7c-.1-.7-.6-1.4-1.3-1.6-24.9-8.9-50.7-13.4-76.8-13.4-9.1,0-18.2.6-27.3,1.7-32.2,3.9-61.7,13.1-87.6,27.1-26.7,14.5-49.8,34.4-68.9,59.1-25.6,33.2-41.8,68.8-48.1,105.8-6.4,37.4-2.9,76.6,10.5,116.6,5.5,16.2,12.6,31.4,21.2,45,2.4,3.9,2.5,5.9.2,8.7l-1.3,1.6c-5.8,7.2-11.9,14.7-17.4,22.4-1.9,2.6-2.9,2.9-3.3,2.9-1.2,0-3.1-2.9-3.8-3.9-17.9-27.1-30.1-53.8-37.4-81.6-10.3-37.7-12.4-76.2-6.3-114.4,5.9-36.8,19.1-71.5,39.2-103.2,20.1-31.6,45.8-58.3,76.5-79.2,31.9-21.8,67.5-36.2,105.8-42.9,15.4-2.7,31.1-4.1,46.7-4.1,23.7,0,47.4,3.2,70.4,9.4.2,0,.3,0,.5,0,.5,0,1-.2,1.3-.5.5-.4.8-1.1.7-1.8l-1.4-10c-.1-.8-.7-1.5-1.5-1.7-22.5-5.6-45.6-8.5-68.7-8.5-53,0-105.6,15.1-152,43.6-4.2,2.6-7.2,3.7-9.8,3.7s-6.2-1.8-10.9-6.8c-32.2-33.7-70-59.8-112.2-77.4-40.2-16.8-82.9-25.3-126.9-25.3h0Zm.3,649.9c-30.5,0-61.2-4.6-91.1-13.7-29.5-8.9-57.5-22-83.5-38.8-26.2-16.9-49.5-37.3-69.3-60.5-20.5-24-36.9-50.5-48.7-78.9-5.9-14.2-10.9-28.8-14.9-43.3-20.4-74.8-12.6-154.6,21.9-224.7,34.5-70.1,92.9-124.5,164.3-153.4,38.6-15.6,79.1-23.5,120.3-23.5s85.1,8.6,124.8,25.5c40.4,17.2,76.4,42.2,107,74.3,3.4,3.6,4.8,5.9,4.6,7.6-.2,1.7-1.9,3.6-5.3,6.1-7.8,5.6-14.8,12.6-21.5,19.3l-1.2,1.2c-2,2-3.5,3.3-4.7,3.3s-2.6-1-4.5-3.1c-27.4-28.9-58.2-50.8-91.5-65.3-33.4-14.5-70.1-21.8-109.2-21.8-4.3,0-8.7,0-13.1.3-36.9,1.5-72.7,10.9-106.2,27.9-32.2,16.3-60.7,38.7-84.6,66.6-23.8,27.8-41.6,59.1-52.8,93.2-11.7,35.5-15.5,72-11.4,108.5,3.9,35.1,13.7,68.3,29.1,98.6,15,29.6,34.8,55.7,59,77.6,24.2,21.9,52,39,82.6,50.8,31.4,12.1,64.9,18.2,99.7,18.2s9.3-.1,13.9-.3c41.4-1.9,79.5-11.9,113.1-29.7,33.9-17.9,63.5-43.8,88-76.9,63.8-86.2,73.4-180.8,28.6-281.3-2.4-5.4-2.1-8.1,1.4-11.7,9.2-9.5,17.1-17.2,24.8-24.1,1.8-1.6,4-3.4,5.3-3.4,1.1,0,2.4,1.6,4.1,4.9,24.1,46.3,37.2,93.4,39,139.9,1.9,47.2-7.9,94.9-28.9,141.7-42.5,94.7-116.2,155.4-219.2,180.5-22.6,5.5-46.1,8.3-69.8,8.3h0Zm-50.6-572.2c17.4-3.8,35.1-5.8,52.5-5.8,68.2,0,133.1,29.4,187.5,85,3.8,3.9,3.8,5.6.2,10.2-25.8,32.4-44.1,67.4-54.3,104-10.2,36.8-12.6,76.2-7.1,117,5.9,43.6,21.6,83.7,46.5,119,5,7,4,9.7-2.1,15.3-23,21.4-50.1,38.1-80.6,49.6-29.8,11.3-61.2,17-93.3,17s-77.1-8.7-110.7-25.2c-33.2-16.3-61.9-38.4-85.2-65.5-22.6-26.2-39.3-56.2-49.7-89-10.4-32.8-14-67-10.7-101.5,3.4-35.7,14.2-70.3,31.9-102.8,16.3-29.9,39.1-55.8,67.7-77,29.8-22,65.9-39,107.3-50.3h0Zm272.5,382.2c-10.7-16-18.8-34.6-24.2-55.5-5.4-21.1-7.7-43.4-6.9-66.2,1.7-45.5,16.2-87.9,39.8-117,16.8,28.1,26.4,67.8,26.4,109.5,0,23-2.9,45.6-8.7,67.2-6,22.4-14.9,43.3-26.5,62h0Z"/>
        </g>
        <g>
          <path class="cls-1" d="m333.3,698.6c-57,0-113.6-15.1-163.5-43.6-75.2-42.9-130.1-111.6-154.8-193.6C-9.6,379.5-1.6,292.1,37.5,215.3c25.2-49.5,60.7-90.4,105.5-121.6,42-29.3,91.3-48.8,142.4-56.3,15.9-2.3,32.2-3.5,48.4-3.5,35.7,0,70.7,5.6,104.1,16.6,51.8,17.1,97.5,46.1,135.9,86.3,4,4.2,6.8,6.5,10.2,6.5s5.1-1.1,9.2-3.6c46.6-28.6,99.3-43.8,152.4-43.8s46.5,2.9,69.1,8.6l1.3.3c.4,0,.7.4.7.8l2,14.3c0,.3,0,.7-.3.9-.2.2-.4.2-.7.2s-.2,0-.3,0l-2.9-.8c-23-6.2-46.5-9.4-70-9.4s-31.2,1.4-46.6,4.1c-38.2,6.7-73.7,21.1-105.4,42.8-30.6,20.9-56.2,47.4-76.2,78.9-20,31.5-33.1,66.1-39,102.8-6.1,38.1-4,76.4,6.2,114,7.2,27.8,19.4,54.4,37.3,81.4,2,3.1,2.8,3.5,3,3.5,0,0,.8-.2,2.5-2.5,5.6-7.7,11.6-15.2,17.5-22.5l1.3-1.6c1.8-2.3,2.1-3.8-.3-7.5-8.6-13.7-15.8-28.9-21.3-45.2-13.5-40.2-17-79.6-10.6-117.1,6.4-37.1,22.6-72.9,48.3-106.2,38-49.4,90.9-78.5,157.1-86.6,9.2-1.1,18.5-1.7,27.6-1.7,26,0,51.8,4.5,76.9,13.5l1.1.4c.4.1.6.4.7.8l2.1,15.2c0,.3,0,.7-.4.9-.2.1-.4.2-.6.2s-.2,0-.4,0l-3.1-1.2c-24.7-9.3-50.6-14-77-14s-40.3,2.7-60.2,8.2c-17.1,4-35.3,11.9-57.3,25-5.5,3.3-5.9,4.6-2.8,10.6,29.6,57.8,43.5,115.8,41.2,172.4-2.3,56.7-20.8,113.4-54.9,168.6-3.1,5-2.5,6.1,1.7,9.1,42.4,29.8,86.4,44.9,130.7,44.9s64.3-7.8,96.6-23.1c49.3-23.4,87.8-64.5,108.4-115.9,20.4-51.1,21.1-107,1.8-157.3-14.8-38.6-39.5-72.1-71.5-96.8l-2.7-2.1c-.3-.2-.4-.6-.4-.9,0-.4.3-.7.6-.8l14-6c.1,0,.3,0,.4,0,.2,0,.4,0,.6.2l.9.8c50.4,40.7,81.7,100,85.7,162.5,3,46.8-4.6,89-22.8,125.3-18.4,36.9-47.6,68-86.8,92.4-39.7,24.7-81,37.2-122.7,37.2-40.9,0-82.7-12.1-124.1-35.8-3.3-1.9-6.3-4.5-9.3-7.1-4.4-3.9-8.6-7.5-12.1-7.5s-.8,0-1.2.2c-3.8,1-7.1,5.8-10.6,10.8-2.5,3.6-5,7.3-8.1,10.2-3.2,2.9-3.6,4.5-3.5,5.1.1,1.7,3.6,4.2,5.1,5.2,41.9,29.5,85.4,47.3,129.4,52.9,10.3,1.3,20.8,2,31.2,2,34.9,0,70.8-7.4,106.7-21.9,57.4-23.3,105.3-67,134.9-123,29.5-55.9,38.7-120.2,26-181.1-11.4-54.2-38.6-103.1-78.7-141.2l-2.2-2.1c-.2-.2-.4-.6-.3-.9,0-.3.3-.6.6-.7l13.4-5.7c.1,0,.3,0,.4,0,.3,0,.5,0,.7.3l1,.9c21.7,21.4,40.1,46.3,54.5,74,17.9,34.2,28.2,71.2,30.7,110.1,2.5,37.4-2.4,74.6-14.4,110.6-12,35.9-30.3,68.5-54.6,96.9-25.2,29.5-55.6,52.8-90.2,69.4-18.1,8.7-34.8,14.9-51,19.2-26.4,6.7-52.6,10-77.9,10-17.8,0-35.4-1.7-52.3-5-41.5-8.1-81.4-26.2-118.7-53.9-2.8-2.1-4.5-2.9-6-2.9s-3.1.9-5.6,3.3c-51.8,48.6-116.6,78.6-187.3,86.9-12.9,1.5-26,2.3-38.9,2.3Zm.5-658.7c-15.9,0-31.9,1.2-47.6,3.5-50.2,7.4-98.6,26.5-139.9,55.2-43.9,30.6-78.8,70.8-103.6,119.4C4.4,293.4-3.4,379.2,20.8,459.7c24.2,80.5,78.2,148,152,190.1,49,28,104.5,42.8,160.5,42.8s25.5-.8,38.2-2.2c69.4-8.1,133-37.6,183.9-85.3,3.6-3.3,6.7-4.9,9.8-4.9s5.6,1.2,9.5,4.1c36.6,27.1,75.7,44.9,116.3,52.8,16.6,3.2,33.8,4.9,51.2,4.9,24.8,0,50.5-3.3,76.4-9.8,15.9-4.2,32.2-10.3,49.9-18.8,33.9-16.2,63.6-39.1,88.2-67.9,23.8-27.8,41.8-59.7,53.5-94.9,11.7-35.3,16.5-71.7,14.1-108.3-2.5-38-12.6-74.3-30.1-107.7-13.8-26.5-31.3-50.4-52-71l-3.4,1.4c39.2,38.5,65.9,87.3,77.2,141.2,13,62.2,3.6,127.9-26.5,185.1-30.2,57.3-79.2,102-138,125.8-36.5,14.8-73.1,22.3-108.6,22.3-56.4,0-111.8-18.8-164.5-55.9-4.5-3.2-7.4-5.9-7.6-9.7-.2-3.1,1.5-6.3,5.4-9.9,2.6-2.4,5-5.8,7.3-9.2,4.2-6,8.1-11.7,14-13.2.9-.2,1.8-.4,2.8-.4,5.8,0,11,4.6,16.1,9,2.8,2.4,5.6,4.9,8.3,6.5,40.6,23.3,81.3,35.1,121.1,35.1s80.7-12.3,119.6-36.4c38.3-23.8,66.8-54.1,84.6-90,17.6-35.4,25.1-76.6,22.1-122.3-3.9-60.2-33.8-117.5-82.1-157.1l-3.5,1.5c30.9,25.1,54.9,58.3,69.4,96.3,19.8,51.7,19.2,109.2-1.8,161.7-21.1,52.8-60.7,95.1-111.4,119.1-33.2,15.7-66.6,23.7-99.2,23.7-45.6,0-90.7-15.5-134.1-46-7.1-5-8-9.6-3.3-17.1,33.6-54.3,51.8-110,54-165.7,2.2-55.6-11.4-112.6-40.5-169.5-4.6-8.9-3.3-13.6,5.1-18.5,22.6-13.4,41.3-21.5,58.9-25.6,20.3-5.5,41-8.4,61.6-8.4s50.4,4.2,74.4,12.6l-.5-4c-23.8-8.3-48.4-12.5-73.1-12.5s-18,.6-26.9,1.6c-64.6,7.9-116.1,36.3-153.1,84.3-50.8,66-63.2,139.2-36.8,217.8,5.3,15.9,12.3,30.6,20.7,43.9,2.5,4,4.5,8.8,0,14.5l-1.3,1.6c-5.8,7.2-11.8,14.7-17.3,22.2-1.5,2.1-4,4.9-7.3,4.9h-.1c-3.5,0-5.8-3.1-7.9-6.2-18.2-27.5-30.7-54.7-38.1-83.1-10.5-38.3-12.6-77.5-6.4-116.5,6-37.5,19.4-72.8,39.9-105,20.4-32.2,46.6-59.3,77.9-80.7,32.5-22.2,68.7-36.9,107.8-43.7,15.8-2.8,31.8-4.2,47.7-4.2,22.5,0,45.1,2.8,67.2,8.4l-.5-3.5c-21.6-5.2-43.7-7.9-65.7-7.9-52,0-103.6,14.8-149.2,42.9-5,3-8.9,4.5-12.5,4.5-5.4,0-9.7-3.3-14.4-8.3-37.7-39.5-82.6-68-133.4-84.8-32.8-10.8-67.1-16.3-102.2-16.3Zm.4,649.8c-49.9,0-100.6-12.3-146.6-35.7-68.8-34.9-122.3-91.5-150.5-159.3-6-14.4-11.1-29.2-15.1-43.9-20.7-76-12.8-157,22.2-228.2,35.1-71.2,94.3-126.5,166.9-155.8,39.3-15.8,80.4-23.9,122.3-23.9s86.4,8.7,126.6,25.9c41,17.5,77.5,42.9,108.6,75.5,3.9,4,6.4,7.6,6,11.6-.3,3.3-2.5,6.2-7.4,9.7-7.5,5.3-14.3,12.2-20.8,18.8l-1.2,1.2c-2.6,2.6-5,4.8-8.2,4.8-2.6,0-5.1-1.5-8.2-4.6-28.4-29.9-60.5-52.3-95.3-66.5-31.2-12.7-65.5-19.1-101.9-19.1s-8.5,0-12.8.3c-70.8,2.9-139.1,36.6-187.2,92.7-47.9,55.8-70.9,127.9-63.1,197.9,7.9,70.3,40.3,133.2,91.2,177.3,47.5,41,109.4,63.6,174.4,63.6s9-.1,13.5-.3c40.7-1.9,78-11.7,111-29.1,33.2-17.5,62.2-42.9,86.3-75.4,62.6-84.6,72-177.6,28-276.3-2.3-5.2-3.7-11,2.3-17.2,9.3-9.6,17.2-17.4,25-24.4,3.2-2.9,5.8-4.7,8.6-4.7s.8,0,1.1.1c2.8.5,5,2.7,7.5,7.5,49.3,95,52.8,191.2,10.3,286-43.1,96.2-118,157.9-222.5,183.3-23.1,5.6-47,8.5-71.1,8.5Zm-.8-640.7c-41.1,0-81.5,7.9-120,23.4-71.2,28.7-129.4,83-163.8,152.9C15.2,295.2,7.4,374.8,27.8,449.3c4,14.5,9,29,14.9,43.1,27.7,66.5,80.2,122,147.7,156.3,45.1,22.9,94.9,35,143.9,35s47.1-2.8,69.7-8.3c102.6-25,176.1-85.6,218.5-180,41.7-93,38.3-187.5-10.1-280.8-2.1-4-3.1-4.3-3.2-4.4h0c-.5,0-1.7.6-4.6,3.2-7.7,6.9-15.6,14.6-24.7,24.1-3.2,3.3-3.4,5.5-1.2,10.6,45,100.9,35.3,195.9-28.7,282.3-24.6,33.3-54.3,59.2-88.3,77.2-33.8,17.8-72,27.9-113.5,29.8-4.6.2-9.2.3-13.8.3-66.5,0-129.8-23.1-178.3-65.1-52.1-45-85.2-109.3-93.2-181.1-8-71.6,15.5-145.4,64.5-202.5,49.2-57.3,119-91.9,191.5-94.8,4.3-.2,8.7-.3,13-.3,78.7,0,146.5,29.4,201.6,87.5,2.3,2.4,3.4,2.8,3.8,2.8.9,0,2.4-1.4,4-3l1.2-1.2c6.7-6.8,13.7-13.8,21.6-19.5,3.1-2.2,4.8-4,4.9-5.4.1-1.4-1.2-3.6-4.3-6.8-30.5-32-66.4-57-106.6-74.1-39.5-16.9-81.4-25.4-124.3-25.4Zm0,579.8c-39.9,0-79.1-8.9-113.3-25.7-66.9-32.9-115.7-88.8-137.5-157.5-21.8-68.7-14.1-142.7,21.6-208.2,16.7-30.6,39.9-57,69.1-78.6,30.3-22.4,66.9-39.6,109-51.1,17.9-4,36-6,53.8-6,69.6,0,135.7,29.9,191.1,86.5,6.4,6.5,5,11.1.5,16.8-50.9,63.8-71.2,136.9-60.3,217.3,5.8,42.8,21.2,82.1,45.6,116.8,6.9,9.8,4.4,15.3-2.7,21.9-36.9,34.3-86,57.5-138.3,65.1-12.7,1.8-25.7,2.8-38.6,2.8Zm2.7-521.1c-17.3,0-34.9,1.9-52.3,5.8-41.2,11.3-77.2,28.1-106.9,50.1-28.5,21.1-51.2,46.9-67.4,76.7-35,64.1-42.5,136.4-21.1,203.6,21.3,67.1,69,121.7,134.4,153.9,33.4,16.4,71.6,25.1,110.6,25.1s25.3-.9,37.7-2.7c51.1-7.4,99.1-30,135.1-63.5,5.7-5.3,6.5-7.5,1.9-14-25-35.4-40.7-75.6-46.6-119.4-11.1-82,9.6-156.7,61.6-221.8,3.3-4.2,3.3-5.3-.1-8.8-54.2-55.4-118.9-84.7-186.8-84.7Zm220.1,395.2c-.3,0-.6-.2-.8-.4l-1.7-2.5c-23.2-33.1-35.4-79.5-33.7-127.3,1.8-47.7,17.4-92.2,42.8-122.2l1.8-2.1c.2-.2.5-.4.8-.4s0,0,0,0c.3,0,.6.2.8.5l1.5,2.3c18.2,28.9,28.6,70.7,28.6,114.5,0,34.6-6.6,86.1-37.5,134.5l-1.6,2.5c-.2.3-.5.5-.8.5h0Zm8.5-245.2c-23,28.9-37,70.8-38.7,115.3-1.7,44.5,9.3,88.1,30,119.8,28.2-46.1,34.1-94.6,34.2-127.4,0-40.8-9.2-80-25.5-107.8Z"/>
          <path class="cls-1" d="m333.9,34.9c35.3,0,70.5,5.6,103.8,16.5,51.6,17,97.2,46,135.5,86.1,4.2,4.4,7.2,6.8,10.9,6.8s5.7-1.2,9.8-3.7c46.9-28.8,99.2-43.6,151.8-43.6s46.1,2.8,68.9,8.5l1.3.3,2,14.3-2.9-.8c-23.1-6.3-46.6-9.4-70.3-9.4-15.6,0-31.2,1.4-46.8,4.1-38.3,6.7-73.9,21.2-105.8,42.9-30.7,21-56.4,47.6-76.4,79.2-20.1,31.7-33.3,66.4-39.2,103.2-6.1,38.2-4,76.7,6.3,114.4,7.3,27.9,19.5,54.6,37.4,81.7.7,1.1,2.6,3.9,3.8,3.9.4,0,1.4-.3,3.3-2.9,5.6-7.7,11.6-15.2,17.4-22.4l1.3-1.6c2.3-2.8,2.2-4.8-.2-8.7-8.6-13.6-15.7-28.8-21.2-45-13.4-40-17-79.2-10.5-116.6,6.4-37,22.6-72.5,48.1-105.8,37.9-49.2,90.5-78.2,156.5-86.2,9.2-1.1,18.4-1.7,27.5-1.7,25.9,0,51.5,4.5,76.5,13.4l1.1.4,2.1,15.2-3.1-1.2c-24.9-9.3-50.9-14-77.3-14-20.1,0-40.4,2.7-60.4,8.2-17.2,4-35.4,12-57.6,25.1-5.9,3.5-6.5,5.5-3.2,12,29.5,57.7,43.3,115.5,41.1,171.9-2.3,56.5-20.7,113.1-54.8,168.1-3.4,5.5-2.6,7.2,2,10.4,42.7,30,86.6,45.1,131.3,45.1s64.4-7.7,97-23.2c49.6-23.5,88.2-64.8,108.9-116.4,20.5-51.3,21.2-107.5,1.8-158-14.9-38.8-39.7-72.4-71.8-97.3l-2.7-2.1,14-6,.9.8c50.2,40.6,81.3,99.5,85.3,161.8,3,46.6-4.6,88.6-22.7,124.8-18.3,36.7-47.4,67.7-86.5,92-39.6,24.6-80.7,37.1-122.2,37.1h0c-40.7,0-82.3-12-123.6-35.7-3.2-1.8-6.2-4.5-9.1-7-4.5-4-8.8-7.7-12.8-7.7-.5,0-1,0-1.5.2-4.2,1.1-7.6,6-11.2,11.2-2.5,3.5-5,7.2-8,10-2.6,2.4-3.9,4.4-3.8,5.9.1,1.9,2.7,4,5.5,6,42,29.6,85.7,47.4,129.9,53.1,10.4,1.3,20.8,2,31.4,2,35.1,0,71-7.4,107.1-22,57.6-23.3,105.7-67.2,135.4-123.5,29.6-56.1,38.9-120.7,26.1-181.7-11.4-54.4-38.7-103.4-79-141.8l-2.2-2.1,13.4-5.7,1,.9c21.7,21.3,39.9,46.1,54.3,73.7,17.8,34.1,28.1,71,30.6,109.7,2.4,37.3-2.4,74.3-14.3,110.2-11.9,35.8-30.2,68.3-54.4,96.5-25.1,29.4-55.4,52.6-89.9,69.1-18,8.6-34.7,14.9-50.9,19.1-26.4,6.7-52.4,10-77.7,10s-35.2-1.7-52.1-5c-41.3-8-81.1-26.1-118.3-53.7-2.8-2.1-4.8-3.1-6.6-3.1s-3.7,1.2-6.3,3.5c-51.7,48.4-116.2,78.4-186.7,86.6-13,1.5-25.9,2.3-38.8,2.3-57.1,0-112.7-14.8-163-43.4-74.9-42.8-129.7-111.3-154.3-193C-8.6,379.4-.6,292.3,38.4,215.8c25.2-49.3,60.6-90.1,105.2-121.3,41.9-29.2,91-48.6,142-56.1,16-2.3,32.2-3.5,48.3-3.5m-.5,658.7c12.7,0,25.5-.7,38.3-2.2,69.6-8.1,133.4-37.7,184.4-85.6,3.5-3.2,6.3-4.6,9.1-4.6s5.6,1.5,8.9,3.9c36.7,27.2,76,45,116.7,53,16.7,3.3,33.9,4.9,51.4,4.9,24.9,0,50.5-3.3,76.7-9.9,15.9-4.2,32.3-10.4,50.1-18.9,34-16.3,63.8-39.2,88.6-68.1,23.9-27.9,41.9-59.9,53.7-95.2,11.8-35.4,16.5-72,14.1-108.7-2.5-38.2-12.7-74.5-30.2-108.1-14-26.8-31.7-50.9-52.6-71.8l-5.4,2.3c39.7,38.6,66.6,87.5,78,141.7,13,62,3.6,127.5-26.4,184.4-30.1,57.1-78.9,101.6-137.5,125.3-36.6,14.8-72.7,22.2-108.2,22.2h0c-56.3,0-111.2-18.6-163.9-55.7-4.3-3-7-5.6-7.2-9-.2-2.8,1.4-5.7,5.1-9.1,2.7-2.5,5.1-6,7.4-9.3,4-5.8,7.9-11.4,13.5-12.8.8-.2,1.7-.3,2.5-.3,5.4,0,10.5,4.4,15.4,8.7,2.8,2.4,5.6,4.9,8.5,6.6,41,23.5,81.6,35.2,121.6,35.2s80.9-12.2,120.1-36.6c38.4-23.9,67-54.3,85-90.4,17.7-35.6,25.2-76.9,22.2-122.8-3.9-60.8-34.1-118.3-82.9-158.2l-5.5,2.4c31.4,25.1,55.7,58.5,70.4,96.9,19.7,51.5,19.1,108.7-1.8,160.9-21,52.5-60.4,94.6-110.9,118.6-33.2,15.7-66.2,23.6-98.8,23.6h0c-45.4,0-90.1-15.3-133.6-45.8-6.6-4.6-7.4-8.8-3.1-15.8,33.7-54.4,52-110.3,54.2-166.1,2.2-55.7-11.4-112.9-40.6-170-4.3-8.4-3.2-12.6,4.7-17.2,22.5-13.3,41.1-21.4,58.6-25.5,20.3-5.6,40.9-8.3,61.4-8.3s51.2,4.4,75.6,13.1l-.9-6.2c-24.2-8.5-49-12.8-74-12.8-9,0-18,.5-27,1.7-64.9,7.9-116.6,36.4-153.8,84.7-51,66.3-63.4,139.8-37,218.7,5.4,15.9,12.3,30.8,20.8,44.1,2.4,3.9,4.1,8.2,0,13.3l-1.3,1.6c-5.8,7.2-11.8,14.7-17.3,22.2-1.4,1.9-3.6,4.5-6.5,4.5s0,0-.1,0c-3.1,0-5.2-2.9-7.1-5.7-18.2-27.4-30.6-54.5-37.9-82.8-10.4-38.2-12.6-77.2-6.3-116,6-37.3,19.4-72.5,39.7-104.7,20.3-32.1,46.4-59.1,77.6-80.4,32.4-22.1,68.5-36.8,107.4-43.6,15.8-2.8,31.7-4.2,47.5-4.2,23,0,45.8,2.9,68.4,8.8l-.8-5.6c-22-5.4-44.4-8.1-66.6-8.1-51.9,0-103.5,14.6-149.7,43-4.8,3-8.6,4.3-12,4.3-4.9,0-8.9-2.9-13.7-8-37.8-39.6-82.8-68.2-133.9-85-32.9-10.8-67.6-16.3-102.5-16.3s-31.9,1.1-47.7,3.5c-50.4,7.4-98.9,26.5-140.3,55.4-44.1,30.7-79,71-103.9,119.8C3.4,293.2-4.4,379.3,19.8,460c24.3,80.7,78.4,148.5,152.5,190.7,49.6,28.3,104.7,42.9,161,42.9m0-649.6c86.8,0,171.6,35.1,234.6,101.1,3.7,3.9,6,7.2,5.7,10.8-.3,3-2.4,5.7-7,9-7.6,5.4-14.4,12.3-21,18.9l-1.2,1.2c-2.4,2.4-4.7,4.5-7.5,4.5s0,0,0,0c-2.3,0-4.6-1.4-7.4-4.3-28.5-30-60.7-52.5-95.7-66.7-31.4-12.8-65.7-19.2-102.3-19.2-4.2,0-8.5,0-12.8.3-71.1,2.9-139.6,36.8-187.9,93-48.1,56-71.2,128.4-63.3,198.7,7.9,70.5,40.4,133.7,91.5,177.9,47.9,41.4,109.7,63.9,175,63.9s9-.1,13.6-.3c40.8-1.9,78.3-11.8,111.4-29.2,33.3-17.6,62.5-43.1,86.6-75.7,62.8-84.9,72.3-178.2,28.1-277.3-2.5-5.7-3.1-10.6,2.1-16.1,9.3-9.6,17.2-17.3,25-24.3,3.1-2.8,5.5-4.5,7.9-4.5.3,0,.6,0,1,0,2.5.4,4.4,2.5,6.8,7,49.2,94.7,52.6,190.7,10.2,285.1-43,95.9-117.7,157.4-221.9,182.8-23.2,5.6-47,8.4-70.9,8.4-49.6,0-99.8-12-146.1-35.5-68.6-34.8-121.9-91.2-150.1-158.8-6-14.4-11.1-29.1-15.1-43.7-20.6-75.8-12.8-156.6,22.2-227.5,34.9-71,94-126.1,166.4-155.3,39.7-16,81-23.8,121.9-23.8m.8,640.8c23.6,0,47.1-2.8,69.9-8.3l.5,1.9-.5-1.9c102.9-25.1,176.7-85.8,219.2-180.5,41.9-93.3,38.5-188.1-10.1-281.7-1.6-3.1-2.9-4.7-3.9-4.9,0,0-.1,0-.2,0-1.3,0-3.5,1.8-5.3,3.4-7.7,6.9-15.6,14.6-24.8,24.1-3.4,3.6-3.8,6.3-1.4,11.7,44.8,100.5,35.2,195.2-28.6,281.3-24.5,33.1-54.1,59-88,76.9-33.6,17.8-71.7,27.8-113.1,29.7-4.6.2-9.2.3-13.7.3h0c-66.4,0-129-22.8-177.7-64.8-51.9-44.8-84.9-108.9-92.9-180.5-8-71.3,15.4-144.8,64.2-201.7,49-57.1,118.6-91.5,190.8-94.4,4.3-.2,8.7-.3,12.9-.3,78.4,0,146,29.3,200.9,87.1,2,2.1,3.4,3.1,4.5,3.1h0c1.2,0,2.6-1.2,4.7-3.3l1.2-1.2c6.7-6.8,13.6-13.8,21.5-19.4,3.5-2.5,5.2-4.4,5.3-6.1.2-1.8-1.2-4.1-4.6-7.6-62.1-65.1-145.9-99.8-231.7-99.8s-81.2,7.7-120.4,23.5c-71.4,28.8-129.8,83.3-164.3,153.4C14.2,295,6.4,374.8,26.8,449.6c4,14.5,9,29.1,14.9,43.3,27.8,66.7,80.4,122.4,148.2,156.8,45.8,23.2,95.3,35.1,144.3,35.1m2-582c68.9,0,135,29.6,190.4,86.2,5.9,6,4.7,10.1.5,15.4l-1.6-1.2,1.6,1.2c-51.1,64.1-71.5,137.4-60.5,218,5.8,43,21.2,82.4,45.8,117.2,6.5,9.3,4.2,14.2-2.6,20.6-36.7,34.2-85.7,57.2-137.8,64.8-12.8,1.9-25.6,2.8-38.4,2.8-39.5,0-78.5-8.7-112.8-25.6-66.6-32.8-115.3-88.5-137-156.9-21.7-68.5-14.1-142.1,21.5-207.5,16.6-30.4,39.8-56.8,68.8-78.3,30.2-22.3,66.7-39.5,108.7-50.9,17.9-4,35.8-5.9,53.5-5.9m-2.8,521.1c12.6,0,25.3-.9,37.9-2.7,51.3-7.5,99.5-30.1,135.6-63.8,6-5.6,7-8.3,2.1-15.3-24.9-35.3-40.5-75.3-46.5-119-11.1-81.8,9.5-156.1,61.4-221.1h0c3.6-4.6,3.6-6.3-.2-10.2-54.6-55.8-119.8-85-187.6-85s-34.9,1.9-52.5,5.8c-41.3,11.3-77.5,28.2-107.2,50.3-28.6,21.2-51.4,47.1-67.7,77-35.1,64.3-42.6,136.9-21.2,204.3,21.4,67.3,69.3,122.2,134.9,154.5,33.7,16.6,72.1,25.2,111,25.2m231.9-374.7l1.5,2.3c18.1,28.8,28.5,70.3,28.4,114,0,34.5-6.5,85.7-37.4,133.9l-1.6,2.5-1.7-2.5c-23-33-35.2-79.1-33.5-126.7,1.8-47.5,17.3-91.8,42.5-121.6l1.8-2.1m-9.2,245.5c28.9-46.6,35.1-95.9,35.1-129.2,0-41.7-9.6-81.5-26.4-109.5-23.7,29.1-38.1,71.6-39.8,117-1.7,45.5,9.6,89.6,31.1,121.7M333.9,32.9c-16.3,0-32.6,1.2-48.6,3.5-51.3,7.5-100.7,27-142.9,56.4-44.9,31.3-80.5,72.4-105.8,122C-2.6,291.8-10.6,379.5,14.1,461.7c24.7,82.2,79.9,151.2,155.3,194.2,25.1,14.3,51.8,25.3,79.4,32.7,27.5,7.3,56,11,84.6,11s26.1-.8,39.1-2.3c70.9-8.3,135.9-38.4,187.8-87.1,2.3-2.2,3.7-3,4.9-3s2.8.8,5.4,2.7c37.4,27.8,77.5,45.9,119.1,54.1,17,3.3,34.7,5,52.5,5,25.4,0,51.7-3.4,78.2-10.1,16.3-4.3,33.1-10.6,51.2-19.3,34.8-16.6,65.2-40.1,90.5-69.6,24.4-28.5,42.8-61.2,54.8-97.2,12-36.1,16.9-73.5,14.4-111-2.6-39-12.9-76.2-30.8-110.5-14.5-27.7-32.9-52.7-54.7-74.2l-1-.9c-.4-.4-.9-.6-1.4-.6-.3,0-.5,0-.8.2l-13.4,5.7c-.6.3-1.1.8-1.2,1.5-.1.7.1,1.3.6,1.8l2.2,2.1c40,38,67.1,86.7,78.4,140.7,12.7,60.6,3.5,124.7-25.9,180.4-29.5,55.9-77.2,99.4-134.4,122.6-35.8,14.5-71.5,21.8-106.3,21.8s-20.9-.7-31.1-2c-43.9-5.6-87.3-23.4-129-52.7-4-2.8-4.6-4-4.7-4.5,0,0,0-1.3,3.2-4.3,3.2-2.9,5.8-6.7,8.3-10.3,3.4-4.9,6.6-9.5,10.1-10.4.3,0,.6-.1,1-.1,3.2,0,7.4,3.7,11.5,7.2,3,2.6,6.1,5.3,9.4,7.3,41.6,23.9,83.5,36,124.6,36,41.9,0,83.4-12.6,123.3-37.4,39.4-24.5,68.7-55.7,87.2-92.8,18.2-36.5,25.9-78.9,22.9-125.9-4-62.8-35.4-122.3-86-163.2l-.9-.8c-.4-.3-.8-.4-1.3-.4-.3,0-.5,0-.8.2l-14,6c-.7.3-1.1.9-1.2,1.6,0,.7.2,1.4.8,1.8l2.7,2.1c31.8,24.6,56.4,58,71.1,96.4,19.2,50.1,18.6,105.7-1.8,156.6-20.5,51.1-58.8,92.1-107.9,115.4-32.2,15.3-64.6,23-96.2,23s-88-15-130.2-44.7c-3.8-2.7-4.2-3.2-1.4-7.7,34.3-55.3,52.8-112.2,55.1-169.1,2.3-56.8-11.6-115-41.3-172.9-2.8-5.5-2.6-6.4,2.4-9.3,21.9-13,40.1-20.9,57-24.8,0,0,0,0,0,0,19.7-5.4,39.9-8.1,59.9-8.1,26.3,0,52.1,4.7,76.6,13.9l3.1,1.2c.2,0,.5.1.7.1.4,0,.9-.2,1.2-.4.6-.4.8-1.1.7-1.8l-2.1-15.2c-.1-.7-.6-1.4-1.3-1.6l-1.1-.4c-25.1-9-51.1-13.5-77.2-13.5s-18.5.6-27.8,1.7c-66.5,8.1-119.6,37.4-157.8,87-25.8,33.5-42.1,69.4-48.5,106.6-6.5,37.7-2.9,77.3,10.6,117.6,5.5,16.4,12.7,31.7,21.4,45.4,2.2,3.5,1.9,4.5.4,6.4l-1.3,1.6c-5.8,7.3-11.9,14.8-17.5,22.5-.8,1.1-1.3,1.6-1.6,1.8-.4-.3-1.1-1.1-2.2-2.9-17.8-26.9-29.9-53.4-37.1-81.1-10.2-37.4-12.3-75.6-6.2-113.6,5.9-36.5,18.9-71,38.9-102.4,19.9-31.4,45.4-57.8,75.9-78.6,31.6-21.6,67-36,105-42.6,15.4-2.7,31-4.1,46.5-4.1,23.4,0,46.9,3.1,69.7,9.3l2.9.8c.2,0,.3,0,.5,0,.5,0,1-.2,1.3-.5.5-.4.8-1.1.7-1.8l-2-14.3c-.1-.8-.7-1.5-1.5-1.7l-1.3-.3c-22.7-5.7-46.1-8.6-69.4-8.6-53.2,0-106.1,15.2-152.9,43.9-3.9,2.4-6.6,3.4-8.7,3.4s-5.1-1.6-9.5-6.1c-38.5-40.3-84.4-69.4-136.3-86.6-33.5-11-68.6-16.6-104.4-16.6h0Zm-.5,658.7c-27.9,0-55.7-3.6-82.5-10.8-26.9-7.2-53-17.9-77.5-31.9-73.6-42-127.4-109.3-151.6-189.5C-2.4,379.2,5.4,293.6,43.8,218.5c24.7-48.5,59.5-88.5,103.2-119.1,41.1-28.7,89.3-47.7,139.4-55.1,15.6-2.3,31.6-3.4,47.4-3.4,34.9,0,69.2,5.5,101.9,16.2,50.7,16.7,95.5,45.2,133,84.5,4.9,5.2,9.4,8.6,15.1,8.6s7.9-1.5,13-4.6c45.5-28,96.9-42.7,148.7-42.7,21.7,0,43.5,2.6,64.8,7.7l.2,1.4c-21.7-5.4-43.9-8.1-66-8.1s-32,1.4-47.8,4.2c-39.2,6.9-75.6,21.6-108.2,43.9-31.4,21.4-57.6,48.7-78.1,80.9-20.5,32.4-34,67.8-40,105.4-6.3,39.1-4.1,78.4,6.4,116.9,7.4,28.5,19.9,55.8,38.2,83.4,1.6,2.4,4.3,6.5,8.7,6.6h.1c3.8,0,6.5-3,8.1-5.3,5.4-7.5,11.4-14.9,17.2-22.1h0c0,0,1.3-1.6,1.3-1.6,5-6.2,2.7-11.6.2-15.7-8.3-13.2-15.2-27.9-20.6-43.7-26.3-78.2-13.9-151.1,36.6-216.8,36.8-47.8,88.1-76.1,152.4-83.9,8.9-1.1,17.9-1.6,26.8-1.6,24.4,0,48.7,4.1,72.2,12.3l.2,1.7c-23.6-8.1-48.2-12.2-73.2-12.2s-41.5,2.8-61.9,8.4c-17.7,4.1-36.5,12.3-59.1,25.7-8.7,5.2-10.2,10.6-5.5,19.9,29,56.7,42.6,113.6,40.4,169-2.2,55.5-20.4,111-53.9,165.2-4.8,7.8-3.9,13.1,3.4,18.3-2.6-1.6-5.4-2.7-8.3-2.7s-2,.1-3,.4c-3,.8-5.6,2.6-7.8,4.9,15.1-20,28.2-42.4,39.2-66.9,42.7-95.1,39.2-191.6-10.3-286.9-2.7-5.1-5-7.4-8.2-8-.4,0-.9-.1-1.3-.1-3.1,0-5.8,1.9-9.3,5-7.8,7-15.8,14.8-25.1,24.4-6.4,6.7-5,12.7-2.5,18.3,43.9,98.4,34.5,191-27.9,275.3-24,32.4-52.9,57.7-86,75.2-32.9,17.3-70.1,27.1-110.6,29-4.5.2-9,.3-13.5.3-32.3,0-63.8-5.5-93.4-16.3-29.7-10.8-56.7-26.7-80.4-47.1-50.7-43.8-83-106.6-90.8-176.6-7.8-69.7,15.1-141.5,62.8-197.1,47.6-55.4,114.8-89,184.8-92.3-11.7.9-23.4,2.7-35,5.2,0,0,0,0,0,0-42.2,11.5-78.9,28.8-109.3,51.3-29.3,21.7-52.7,48.3-69.4,79-35.9,65.8-43.6,140-21.7,209,21.9,68.9,70.9,125,138,158,34.3,16.9,73.6,25.8,113.7,25.8s26-.9,38.7-2.8c52.5-7.6,101.8-30.8,138.9-65.3,7.3-6.8,10.2-12.8,2.9-23.2-24.3-34.5-39.6-73.7-45.4-116.3-10.9-80.1,9.3-152.9,60.1-216.5,0,0,0,0,0,0,4.6-5.8,6.3-11.1-.6-18.1-37.4-38.2-79.7-64.3-124.7-77.3,10.2,2.7,20.2,6,29.8,10,34.7,14.1,66.6,36.4,95,66.2,3.2,3.4,5.9,4.9,8.8,4.9h0c3.6,0,6.3-2.4,8.9-5.1l1.2-1.2c6.5-6.6,13.3-13.4,20.7-18.7,5.1-3.6,7.5-6.8,7.8-10.4.4-4.4-2.2-8.1-6.2-12.3-31.2-32.7-67.9-58.2-109-75.7-40.4-17.2-83.1-26-127-26s-83.3,8.1-122.7,24c-72.8,29.4-132.3,84.9-167.4,156.3C8.2,293.7.2,375,21,451.2c4,14.8,9.1,29.6,15.2,44,28.4,68,82,124.8,151,159.8,46.1,23.4,97,35.8,147,35.8,24.2,0,48.2-2.9,71.3-8.5,74.4-18.1,133.9-54.6,177.6-108.8-.1.2-.3.4-.4.6-2.3,3.3-4.6,6.7-7.1,9-4.2,3.8-6,7.2-5.7,10.7.3,4.2,3.3,7.1,8,10.5,52.9,37.2,108.4,56.1,165,56.1,35.7,0,72.4-7.5,109-22.4,58.9-23.9,108.1-68.7,138.5-126.2,30.3-57.4,39.7-123.4,26.6-185.8-11.2-53.6-37.6-102.2-76.4-140.7l1.4-.6c20.4,20.5,37.7,44.1,51.3,70.3,17.4,33.3,27.5,69.4,30,107.3,2.4,36.5-2.3,72.8-14,107.9-11.7,35.1-29.6,66.9-53.3,94.5-24.6,28.7-54.2,51.5-87.9,67.6-17.7,8.5-34,14.6-49.8,18.7-25.8,6.5-51.4,9.8-76.1,9.8s-34.5-1.6-51-4.8c-40.4-7.9-79.4-25.6-115.9-52.6-3-2.2-6.3-4.3-10.1-4.3s-6.7,1.6-10.4,5.2c-50.7,47.6-114.1,77-183.3,85-12.7,1.5-25.5,2.2-38.1,2.2h0Zm.9-8.8c-48.8,0-98.4-12.1-143.4-34.9-67.3-34.2-119.6-89.5-147.2-155.8-5.9-14.1-10.9-28.6-14.8-43-20.3-74.3-12.5-153.6,21.8-223.3,34.3-69.6,92.3-123.8,163.3-152.4,38.4-15.5,78.7-23.4,119.7-23.4s84.5,8.5,123.9,25.3c40.1,17.1,75.9,42,106.3,73.9,3.5,3.7,4.1,5.3,4.1,6.1,0,.5-.6,1.9-4.5,4.7-8,5.7-15,12.7-21.7,19.6l-1.2,1.2c-2.1,2.2-3,2.7-3.3,2.7,0,0-.8-.1-3.1-2.5-55.3-58.2-123.4-87.8-202.4-87.8s-8.7,0-13,.3c-72.8,2.9-142.8,37.6-192.2,95.1-49.2,57.3-72.8,131.4-64.7,203.2,8.1,72.1,41.3,136.6,93.6,181.8,24.4,21.1,52.3,37.4,82.8,48.6,30.5,11.1,62.9,16.8,96.2,16.8s9.3-.1,13.8-.3c41.7-2,80-12,113.9-29.9,34.1-18,64-44.1,88.7-77.5,64.2-86.8,73.9-182.1,28.8-283.4-2.2-5-1.7-6.7,1-9.5,9.2-9.5,17-17.1,24.7-24,2.3-2.1,3.4-2.7,3.8-2.9.3.3,1.1,1.1,2.5,3.8,48.3,93,51.7,187.2,10.1,279.9-42.2,94.1-115.5,154.5-217.8,179.4,0,0,0,0,0,0-22.5,5.5-45.9,8.3-69.4,8.3h0Zm-50.1-568.3c17.3-3.8,34.8-5.8,52.1-5.8,67.7,0,132.1,29.2,186.1,84.4,3,3,3.1,3.6,0,7.5-52.2,65.4-73,140.3-61.8,222.6,6,44,21.7,84.3,46.8,119.9,4.3,6.1,3.6,7.7-1.8,12.7-35.8,33.4-83.6,55.9-134.6,63.3-12.4,1.8-25,2.7-37.6,2.7-38.8,0-76.9-8.6-110.2-25-65.1-32-112.7-86.5-133.9-153.3-21.2-66.9-13.7-138.9,21.1-202.8,16.2-29.7,38.8-55.3,67.1-76.4,29.6-21.9,65.4-38.7,106.5-49.9h0Zm604.4,93.1l1.4-.6c47.8,39.4,77.4,96.2,81.2,156,2.9,45.6-4.5,86.5-22,121.8-17.8,35.7-46.1,65.9-84.3,89.6-38.7,24.1-78.8,36.3-119,36.3s-80.1-11.8-120.6-35c-2.7-1.5-5.4-4-8.2-6.3-1.7-1.5-3.4-2.9-5.1-4.3,42.7,29.2,86.9,44,131.6,44,32.8,0,66.3-8,99.7-23.8,50.9-24.1,90.7-66.6,111.9-119.6,21.1-52.8,21.8-110.4,1.8-162.4-14.4-37.6-38-70.6-68.4-95.6h0Zm-323.1,39.6c-.6,0-1.1.3-1.5.7l-1.8,2.1c-25.6,30.1-41.2,74.9-43,122.8-1.8,47.9,10.6,94.6,33.8,127.9l1.7,2.5c.4.5,1,.9,1.6.9s0,0,0,0c.7,0,1.3-.4,1.6-.9l1.6-2.5c31.1-48.6,37.7-100.3,37.7-135,0-44-10.4-86-28.7-115.1l-1.5-2.3c-.3-.5-.9-.9-1.6-.9,0,0,0,0-.1,0h0Zm-9.3,243.8c-20.1-31.5-30.6-74.2-29-117.9,1.6-43.7,15.3-84.9,37.6-113.6,15.7,27.6,24.6,66,24.6,106,0,32.3-5.9,80-33.2,125.5h0Z"/>
        </g>
      </g>
    </g>
  </g>
</svg>