<?xml version="1.0" encoding="UTF-8"?>
<svg id="Capa_2" data-name="Capa 2" xmlns="http://www.w3.org/2000/svg" viewBox="0 0 1027.9 695.6">
  <defs>
    <style>
      .cls-1 {
        fill: none;
        stroke: #afad52;
        stroke-miterlimit: 10;
        stroke-width: 4px;
      }

      .cls-2 {
        fill: #afad52;
        stroke-width: 0px;
      }
    </style>
  </defs>
  <g id="Capa_1-2" data-name="Capa 1">
    <g>
      <g>
        <path class="cls-2" d="m1015,148.2c.4-1.7-.3-3.6-1.8-4.8l-6.8-55.7c-.3-2.7-1.3-4.7-3.1-6.2-.6-.7-1.4-1.2-2.4-1.6-.2-.1-.4-.2-.7-.4-.4-.2-.8-.5-1.4-.8-6.2-3.7-12.5-7.4-18.8-11l-3-1.7c-12.8-7.5-25.6-14.9-38.4-22.4-.5-.5-1-.8-1.2-.9l-1.7-1c-.2,0-.5-.3-1.3-.5-20.6-12-41.1-23.9-61.7-35.9-.5-.7-1.2-1.3-2-1.8l-.4-.2s-5.1-2.6-8.2-.1c0,0-.1,0-.2.1-.2,0-.4.1-.6.2h-.2c-2.2.9-4.5,1.7-6.7,2.5l-1.1.4c-6.1,2.3-12.2,4.6-18.3,7l-29.9,10.8c-2.7,1-3.5,3.5-2.9,5.6,2,6.6,2.7,14.3,3.3,21.7.3,2.9.5,6,.9,8.9,2.6,22,5,44.2,7.1,63.4,2.4,22.7,4.6,43.7,6.7,64.2.3,3.2.7,6.4,1,9.6.9,7.8,1.8,15.8,2,23.6,0,1.3.4,2.7,1.5,3.7.4.4.8.7,1.3,1,1.4.8,3,1.1,3.9,1.1,1.4.1,2.6,0,3.6-.5,0,0,.2,0,.2-.1,6.6-3.5,13.8-6.5,20.8-9.4,2.9-1.2,5.8-2.4,8.6-3.6,17.6-7.6,36.3-15.6,59-25.2,16.3-6.9,37.7-15.9,59.2-24.8,2.8-1.2,5.7-2.5,8.5-3.7,7.1-3.2,14.4-6.5,21.5-8,1.8-.4,3.1-1.7,3.5-3.4Zm-184.7-120.8c3.8-1.5,7.7-3,11.5-4.5l20.8-7.5c1,5.1,1.5,10.5,2,15.8.4,3.7.7,7.5,1.2,11.1.8,5.3,1.5,10.6,2.2,15.9-15.6-9.1-31.2-18.2-46.9-27.3,3-1.2,6.1-2.4,9.1-3.5Zm165,77.8c.3,3.2.6,6.4,1.1,9.5.9,6.6,1.9,13.1,2.8,19.7-1.9-1-3.7-2.1-5.6-3-3.1-1.7-6-3.3-8.9-4.9-10.7-6.3-21.4-12.6-32.1-18.8,6.3-2.4,12.5-4.8,18.8-7.3,3.1-1.2,6.2-2.6,9.3-3.9,4.2-1.8,8.6-3.7,12.9-5.2.9,4.5,1.3,9.2,1.8,13.9Zm-67.3-51.2c.7,4,1.1,8.3,1.5,12.5.3,3.2.6,6.4,1.1,9.5,1,6.8,1.9,13.6,2.9,20.4l-11.2-6.5c-11.3-6.6-22.7-13.3-34-19.9,4.9-1.9,9.7-3.8,14.6-5.6,3.5-1.4,7.2-3,10.7-4.5,4.8-2.1,9.7-4.2,14.5-5.9Zm-23.5-2.3l-.9.3c-7.5,2.9-15,5.8-22.5,8.7v-.5c-1.1-7.1-2.1-14.3-3.1-21.4-.4-3.1-.7-6.3-1.1-9.7-.3-3.4-.7-6.9-1.1-10.3l2.1,1.2c14.5,8.4,28.9,16.8,43.4,25.2-5.6,2.1-11.2,4.3-16.8,6.4Zm26.8,55.1c-17,17.7-33.9,35.4-50.9,53.1-12,12.5-24,25-35.9,37.6,5.3-16.9,10.5-33.8,15.7-50.7,7.1-23,14.2-46,21.3-69.1,15.9,9.2,32.8,19.1,49.9,29.1Zm43.4-20c-3,1.3-5.8,2.5-8.5,3.6-6.6,2.5-13.2,5.1-19.8,7.6-1-6.9-1.9-13.8-2.9-20.6-.4-3.1-.7-6.3-1.1-9.7-.3-3.5-.7-7.2-1.2-10.7l10.6,6.2c11.1,6.4,22.2,12.9,33.2,19.4-3.5,1.3-6.9,2.8-10.3,4.3Zm-113.5-20.7l8.6,5c-7.4,24-14.8,48-22.2,72.1-4.8,15.4-9.5,30.9-14.3,46.3-.4-3.7-.9-7.4-1.2-11.1-2.7-26.6-5.6-53.9-8.6-81.1l-1-9.4c-1.7-15.6-3.5-31.6-5.7-47.5,14.8,8.6,29.6,17.2,44.4,25.8Zm-6.3,138.5c11.9-12.5,23.8-24.9,35.7-37.3,17.2-18,34.5-36,51.7-53.9,3.3,2,6.7,3.9,10,5.9,15.7,9.3,30.2,17.8,43.9,26-3.5,1.3-7,2.7-10.3,4.1l-2.1.9c-19.6,7.9-39.1,16.1-60.6,25.2-22.2,9.4-43.9,18.6-64.4,27.5-1.3.6-2.6,1.1-3.9,1.7Z"/>
        <path class="cls-2" d="m831,228.9c-.4,0-.7,0-1.1,0-1.2,0-3-.4-4.7-1.4-.6-.4-1.2-.8-1.7-1.3-1.4-1.3-2.2-3.2-2.1-5.1-.2-7.7-1.1-15.6-2-23.3v-.2c-.4-3.1-.7-6.3-1.1-9.5-2-20.5-4.2-41.5-6.7-64.2-2.1-19.1-4.5-41.4-7.1-63.3-.3-2.9-.6-5.9-.9-8.8v-.2c-.7-7.3-1.3-14.8-3.3-21.3-.9-2.9.3-6.7,4.2-8.1l29.9-10.8c6.1-2.3,12.1-4.7,18.3-7l1.1-.4c2.3-.9,4.5-1.7,6.7-2.5l.4-.2c4.2-3.2,10.3,0,10.4,0l.4.2c.9.6,1.7,1.2,2.4,2,20.4,11.8,40.8,23.7,61.2,35.6.9.3,1.3.5,1.5.7l1.7,1c.2.1.8.5,1.4,1,12.7,7.4,25.5,14.8,38.2,22.3l3,1.7c6.1,3.6,12.5,7.3,18.7,11,.3.2.7.4.9.5.2,0,.3.2.4.2l.6.3c1.2.5,2.1,1.2,2.9,2,2.1,1.9,3.3,4.3,3.7,7.4l6.7,54.9c1.7,1.7,2.4,4,1.9,6.3h0c-.6,2.5-2.5,4.3-5,4.9-6.9,1.5-14.1,4.7-21.1,7.8-2.8,1.3-5.7,2.6-8.6,3.7-21.3,8.8-42.8,17.8-59.2,24.8-22.7,9.6-41.4,17.6-58.9,25.2-2.9,1.2-5.7,2.4-8.6,3.6-6.9,2.9-14.1,5.9-20.6,9.3,0,0-.2.1-.3.2-1,.5-2.2.8-3.5.8ZM865.6,4c-.8,0-1.6.2-2.1.6l-.4.3-1.1.4c-2.2.8-4.4,1.6-6.6,2.4l-1.1.4c-6.1,2.3-12.2,4.6-18.3,7l-29.9,10.8c-1.9.7-1.9,2.3-1.7,3.1,2.1,6.8,2.8,14.6,3.4,22.1v.2c.3,2.9.5,5.8.9,8.7,2.6,22,5,44.2,7.1,63.4,2.4,22.7,4.6,43.7,6.7,64.2.3,3.1.7,6.3,1,9.4v.2c.9,7.8,1.8,15.9,2,23.8h0c0,0,0,.2,0,.2,0,.8.3,1.5.9,2.1.3.3.6.5.9.7,1.1.6,2.4.8,3,.9,1,.1,1.9,0,2.5-.3h.2c6.7-3.6,14-6.6,21-9.6,2.9-1.2,5.7-2.4,8.6-3.6,17.5-7.6,36.3-15.6,59-25.2,16.4-6.9,37.9-16,59.2-24.8,2.8-1.1,5.7-2.4,8.4-3.7,7.2-3.2,14.6-6.5,21.9-8.1,1-.2,1.8-.9,2-1.9h0c.2-1-.2-2.1-1.2-2.8l-.6-.5-6.9-56.5c-.3-2.2-1-3.7-2.4-4.9l-.2-.2c-.4-.5-1-.8-1.7-1.1h-.2c0-.1-.6-.5-.6-.5-.2,0-.3-.2-.5-.3-.2-.1-.5-.3-.8-.5h-.1c-6.2-3.8-12.6-7.5-18.7-11.1l-3-1.7c-12.8-7.5-25.6-14.9-38.4-22.4l-.3-.2c-.4-.4-.8-.6-.9-.6l-1.7-1c0,0-.3-.2-.9-.4l-.4-.2c-20.6-12-41.1-23.9-61.7-35.9l-.4-.2-.2-.3c-.3-.5-.8-.9-1.4-1.3l-.3-.2c-.7-.3-2.3-1-3.9-1Zm-18.7,206l6.6-7c11.9-12.5,23.8-24.9,35.7-37.3,17.2-18,34.5-36,51.7-53.9l1.1-1.1,1.4.8c3.3,2,6.7,3.9,10,5.9,15.9,9.3,30.2,17.8,43.9,26l3.5,2.1-3.8,1.5c-3.4,1.3-6.8,2.7-10.1,4l-2.3.9c-19.8,8-39.1,16.2-60.6,25.2-22.2,9.4-43.8,18.6-64.4,27.5-1.3.6-2.6,1.1-3.9,1.7l-8.9,3.7Zm95.8-94.3c-16.9,17.6-33.8,35.2-50.6,52.8-9.7,10.1-19.3,20.2-28.9,30.3,19-8.2,38.9-16.7,59.3-25.3,21.5-9.1,40.9-17.3,60.6-25.3l2.3-.9c2.1-.8,4.2-1.7,6.4-2.6-12.7-7.5-25.9-15.4-40.4-23.9-2.9-1.7-5.7-3.4-8.6-5.1Zm-102.7,89.3l2.5-8.2c5-16.2,10.1-32.4,15.1-48.7l.6-2c7.1-23,14.2-46,21.3-69.1l.7-2.4,2.2,1.3c13.7,8,31.8,18.4,49.9,29.1l2.2,1.3-1.8,1.8c-17,17.7-33.9,35.4-50.9,53.1-12,12.5-24,25-35.9,37.6l-5.9,6.2Zm42.6-124.3c-6.8,22.2-13.7,44.4-20.5,66.7l-.6,2c-4.2,13.5-8.3,27-12.5,40.5,10-10.5,20-21,30.1-31.4,16.4-17.1,32.8-34.2,49.1-51.3-16.5-9.6-32.7-19.1-45.5-26.5Zm-50.1,118.3l-1.1-9.4c-.4-3.6-.9-7.4-1.2-11.2-2.7-26.5-5.6-53.8-8.6-81.1l-1-9.4c-1.7-15.5-3.5-31.5-5.7-47.5l-.6-4.1,3.6,2.1c14.7,8.6,29.4,17.1,44.1,25.6l10.3,6-.5,1.5c-7.4,24-14.8,48-22.2,72.1-4.8,15.4-9.5,30.9-14.3,46.3l-2.8,9Zm-13.1-155c2,14.6,3.6,29.3,5.1,43.5l1,9.4c3,27.3,5.9,54.6,8.6,81.1,0,.5.1,1.1.2,1.6,3.8-12.4,7.7-24.8,11.5-37.1,7.3-23.5,14.5-47,21.7-70.5l-7.5-4.4c-13.5-7.9-27.1-15.7-40.6-23.6Zm182.3,94.1l-3.5-2c-1.9-1-3.7-2-5.6-3-3.1-1.7-6.1-3.3-8.9-5-10.7-6.3-21.4-12.6-32.1-18.8l-3.6-2.1,3.9-1.5c6.3-2.4,12.5-4.8,18.8-7.3,3-1.2,6.2-2.5,9.2-3.9,4.3-1.9,8.7-3.8,13-5.3l2.2-.7.4,2.3c.9,4.6,1.3,9.4,1.8,14.1h0c.3,3.2.6,6.4,1,9.4.9,6.6,1.9,13.1,2.8,19.7l.6,4Zm-44.5-30.1c9.5,5.6,19,11.1,28.6,16.7,2.8,1.7,5.7,3.2,8.8,4.9.7.4,1.4.8,2.1,1.1-.7-5.3-1.5-10.5-2.2-15.8-.4-3.1-.8-6.4-1.1-9.5h0c-.4-3.9-.7-7.8-1.3-11.5-3.5,1.3-7,2.8-10.5,4.4-3.1,1.4-6.3,2.7-9.4,3.9-5,1.9-10,3.8-14.9,5.8Zm-12.4-7.3l-.3-2.5c-1-6.9-1.9-13.8-2.9-20.6-.4-3.1-.8-6.3-1.1-9.8-.3-3.5-.7-7.1-1.2-10.6l-.6-4.1,15,8.7c10.6,6.2,21.6,12.6,32.4,18.9l3.6,2.1-3.9,1.5c-3.4,1.3-6.8,2.8-10.1,4.2l-.9-1.8.8,1.8c-3,1.3-5.8,2.5-8.6,3.6-6.6,2.5-13.2,5.1-19.8,7.6l-2.4.9Zm-1-40c.3,2.3.5,4.5.7,6.7.3,3.4.6,6.6,1.1,9.6.9,6,1.7,12.1,2.5,18.1,5.8-2.3,11.6-4.5,17.5-6.7,2.7-1,5.5-2.3,8.4-3.5l.8,1.8-.7-1.9c2.1-.9,4.3-1.9,6.4-2.8-9.6-5.7-19.4-11.3-28.8-16.8l-7.9-4.6Zm-7.7,39.6l-14.8-8.6c-11.3-6.6-22.7-13.2-34-19.9l-3.6-2.1,3.9-1.5c4.9-1.9,9.7-3.8,14.6-5.6,3.5-1.3,7.1-2.9,10.6-4.5,4.8-2.1,9.7-4.3,14.6-6l2.2-.8.4,2.3c.7,4.1,1.1,8.5,1.5,12.6.3,3.1.6,6.4,1.1,9.4,1,6.8,1.9,13.6,2.9,20.4l.6,4.1Zm-43.2-29.9c10.1,5.9,20.3,11.9,30.4,17.8l7.6,4.5c-.8-5.5-1.5-10.9-2.3-16.3-.4-3.1-.8-6.4-1.1-9.6-.3-3.3-.7-6.7-1.1-10-4,1.5-8.1,3.3-12.1,5-3.6,1.6-7.2,3.2-10.8,4.5-3.6,1.4-7.1,2.8-10.7,4.1Zm-13.4-7l-.4-3c-1-7.1-2-14.3-3-21.4-.4-3.2-.8-6.5-1.1-9.8-.3-3.4-.7-6.9-1.1-10.2l-.6-4.1,5.6,3.3c14.5,8.4,28.9,16.8,43.4,25.2l3.6,2.1-3.9,1.5c-5.6,2.1-11.2,4.3-16.8,6.4l-.9.3c-7.5,2.9-15,5.8-22.5,8.7l-2.4.9Zm-1.2-40.9c.2,2.1.4,4.2.6,6.3.3,3.3.6,6.6,1.1,9.7.9,6.5,1.8,12.9,2.7,19.4,6.7-2.6,13.4-5.2,20.1-7.8l.9-.3c4.3-1.6,8.6-3.3,12.9-4.9-12.8-7.4-25.5-14.9-38.3-22.3Zm-7.7,39.5l-3.6-2.1c-15.6-9.1-31.2-18.2-46.9-27.3l-3.6-2.1,3.9-1.5c3-1.2,6.1-2.4,9.1-3.5h0c3.8-1.5,7.7-3,11.6-4.5l23-8.3.4,2.3c1,5.2,1.5,10.7,2,16,.4,3.7.7,7.5,1.2,11,.8,5.3,1.5,10.6,2.2,15.9l.6,4.1Zm-44.8-30.8c13.2,7.7,26.5,15.4,39.7,23.2-.6-4-1.1-7.9-1.7-11.9-.5-3.6-.9-7.4-1.2-11.1-.4-4.5-.9-9.1-1.6-13.4l-18.5,6.7c-3.8,1.5-7.7,2.9-11.5,4.4h0c-1.7.7-3.5,1.4-5.2,2Z"/>
      </g>
      <path class="cls-2" d="m521.9,541.3s0,0-.1,0c-3.1,0-5.2-2.9-7.1-5.7-18.2-27.4-30.6-54.5-37.9-82.8-10.4-38.2-12.6-77.2-6.3-116,6-37.3,19.4-72.5,39.7-104.7,20.3-32.1,46.4-59.1,77.6-80.4,32.4-22.1,68.5-36.8,107.4-43.6l.3,2-.3-2c39.8-7,79.8-5.2,118.8,5.4l1.3.3,7.1,50.9-3.1-1.1c-33.2-11.9-67.6-15.7-102.2-11.5-64.9,7.9-116.6,36.4-153.8,84.7-51,66.3-63.4,139.8-37,218.7,5.4,15.9,12.3,30.8,20.8,44.1,2.4,3.9,4.1,8.2,0,13.3l-1.3,1.6c-5.8,7.2-11.8,14.7-17.3,22.2-1.4,1.9-3.6,4.5-6.5,4.5Zm220.7-433.4c-15.6,0-31.2,1.4-46.8,4.1-38.3,6.7-73.9,21.2-105.8,42.9-30.7,21-56.4,47.6-76.4,79.2-20.1,31.7-33.3,66.4-39.2,103.2-6.1,38.2-4,76.7,6.3,114.4,7.3,27.9,19.5,54.6,37.4,81.7.7,1.1,2.6,3.9,3.8,3.9.4,0,1.4-.3,3.3-2.9,5.6-7.7,11.6-15.2,17.4-22.4l1.3-1.6c2.3-2.8,2.2-4.8-.2-8.7-8.6-13.6-15.7-28.8-21.2-45-13.4-40-17-79.2-10.5-116.6,6.4-37,22.6-72.5,48.1-105.8,37.9-49.2,90.5-78.2,156.5-86.2,34.1-4.2,68-.6,100.9,10.6l-5.8-41.8c-22.7-6-45.8-9.1-69-9.1Z"/>
      <path class="cls-2" d="m741,656.3c-56.3,0-111.2-18.6-163.9-55.7-4.3-3-7-5.6-7.2-9-.2-2.8,1.4-5.7,5.1-9.1,2.7-2.5,5.1-6,7.4-9.3,4-5.8,7.9-11.4,13.5-12.8,6.4-1.7,12.2,3.5,17.9,8.4,2.8,2.4,5.6,4.9,8.5,6.6,82.7,47.4,164,47,241.7-1.3,38.4-23.9,67-54.3,85-90.4,17.7-35.6,25.2-76.9,22.2-122.8h0c-3.9-61.1-34.5-119.1-83.8-158.9l-2.6-2.1,47.2-20.2,1,.9c40.9,38.9,68.6,88.6,80.2,143.8,13,62,3.6,127.5-26.4,184.4-30.1,57.1-78.9,101.6-137.5,125.3-36.6,14.8-72.7,22.2-108.2,22.2Zm-142.6-92.3c-.5,0-1,0-1.5.2-4.2,1.1-7.6,6-11.2,11.2-2.5,3.5-5,7.2-8,10-2.6,2.4-3.9,4.4-3.8,5.9.1,1.9,2.7,4,5.5,6,42,29.6,85.7,47.4,129.9,53.1,44.9,5.7,91.5-1,138.5-20,57.6-23.3,105.7-67.2,135.4-123.5,29.6-56.1,38.9-120.7,26.1-181.7-11.3-54-38.3-102.7-78-140.9l-38.7,16.6c48.7,40.5,78.8,98.5,82.7,159.7,3,46.6-4.6,88.6-22.7,124.8-18.3,36.7-47.4,67.7-86.5,92-39.6,24.6-80.7,37.1-122.2,37.1h0c-40.7,0-82.3-12-123.6-35.7-3.2-1.8-6.2-4.5-9.1-7-4.5-4-8.8-7.7-12.8-7.7Z"/>
      <path class="cls-2" d="m332.2,686.8c-49.6,0-99.8-12-146.1-35.6-68.6-34.8-121.9-91.2-150.1-158.8-6-14.4-11.1-29.1-15.1-43.7C.3,372.9,8.2,292.1,43.1,221.1c34.9-71,94-126.1,166.4-155.3,124-50.1,263.9-19.7,356.5,77.3,3.7,3.9,6,7.2,5.7,10.8-.3,3-2.4,5.7-7,9-7.6,5.4-14.4,12.3-21,18.9l-1.2,1.2c-2.4,2.4-4.7,4.5-7.5,4.5s0,0,0,0c-2.3,0-4.6-1.4-7.4-4.3-28.5-30-60.7-52.5-95.7-66.7-35-14.2-73.7-20.6-115.1-18.9-71.1,2.9-139.6,36.8-187.9,93-48.1,56-71.2,128.4-63.3,198.6,7.9,70.5,40.4,133.7,91.5,177.9,51.2,44.3,118.2,66.9,188.6,63.5,40.8-1.9,78.3-11.8,111.4-29.2,33.3-17.6,62.5-43.1,86.6-75.7,62.8-84.9,72.3-178.2,28.1-277.3-2.5-5.7-3.1-10.6,2.1-16.1,9.3-9.6,17.2-17.3,25-24.3,3.5-3.2,6.1-4.9,8.9-4.4,2.5.4,4.4,2.5,6.8,7h0c49.2,94.7,52.6,190.7,10.2,285.1-43,95.9-117.7,157.4-221.9,182.8-23.2,5.6-47,8.4-70.9,8.4Zm-.8-640.7c-40.4,0-81.2,7.7-120.4,23.5-71.4,28.8-129.8,83.3-164.3,153.4C12.2,293,4.4,372.8,24.8,447.6c4,14.5,9,29.1,14.9,43.3,27.8,66.7,80.4,122.4,148.2,156.8,45.8,23.2,95.3,35.1,144.3,35.1,23.6,0,47.1-2.8,69.9-8.3,102.9-25.1,176.7-85.8,219.2-180.5,41.9-93.3,38.5-188.1-10.1-281.7h0c-1.6-3.1-2.9-4.7-3.9-4.9-1.3-.2-3.6,1.7-5.5,3.4-7.7,6.9-15.6,14.6-24.8,24.1-3.4,3.6-3.8,6.3-1.4,11.7,44.8,100.5,35.2,195.2-28.6,281.3-24.5,33.1-54.1,59-88,76.9-33.6,17.8-71.7,27.8-113.1,29.7-4.6.2-9.2.3-13.7.3-66.4,0-129-22.8-177.7-64.8-51.9-44.8-84.9-108.9-92.9-180.5-8-71.3,15.4-144.8,64.2-201.7,49-57.1,118.6-91.5,190.8-94.4,84-3.4,155.9,25.8,213.9,86.9,2,2.1,3.4,3.1,4.5,3.1,1.2,0,2.6-1.2,4.7-3.3l1.2-1.2c6.7-6.8,13.6-13.8,21.5-19.4,3.5-2.5,5.2-4.4,5.3-6.1.2-1.8-1.2-4.1-4.6-7.6-62.1-65.1-145.9-99.8-231.7-99.8Z"/>
      <path class="cls-2" d="m554.3,500l-1.7-2.5c-23-33-35.2-79.1-33.5-126.7,1.8-47.5,17.3-91.8,42.5-121.6l1.8-2.1,1.5,2.3c18.1,28.8,28.5,70.3,28.4,114,0,34.5-6.5,85.7-37.4,133.9l-1.6,2.5Zm8.6-246c-23.7,29.1-38.1,71.6-39.8,117-1.7,45.5,9.6,89.6,31.1,121.7,28.9-46.6,35.1-95.9,35.1-129.2,0-41.7-9.6-81.5-26.4-109.5Z"/>
      <path class="cls-1" d="m281.2,108.6c-85.3,23.3-143.9,68.9-176.3,128.3-73,134-22.2,294.3,114.6,361.6,93.1,45.8,211.5,28.5,286.8-41.7,6.4-6,8.1-9.7,2.3-18-25-35.5-40.3-75.2-46.1-118.1-11.1-81.7,9.5-155.1,61-219.6,4.1-5.1,4.4-8-.3-12.8-72.4-74-159.1-98.1-242-79.8Z"/>
      <g>
        <path class="cls-2" d="m994.9,251.2c-14.6-28-32.9-52.5-54-73.2l-9.4,4c39.1,37.2,67.7,86.2,79.6,142.8,26.6,127-42.4,258.8-162.7,307.5-95.8,38.8-186.1,26-270.2-33.3-6.7-4.7-9.3-8.1-1.9-15,7.3-6.8,12.1-19.6,20-21.7,8.2-2.1,16.2,9.8,24.9,14.8,81.6,46.8,164.2,48.1,243.7-1.4,78.4-48.8,114.1-122.7,108.2-215-4.2-64.8-36.8-121.8-84.6-160.4l-9.8,4.2c31.6,24.5,57,57.8,72.4,98.1,40.3,105.1-7.9,227.8-111.7,277-80.1,38-157.7,29-230.4-22.1-5.6-4-6.4-6.8-2.5-13.1,68.2-110.1,72.6-222.9,13.6-338.1-3.8-7.3-3-10.5,3.9-14.6,18.8-11.1,38.2-20.6,58-25.3,48-13.1,96.2-10.2,139,5.9l-1.5-10.7c-32.2-11.5-67.4-16-103.1-11.6-63.2,7.7-116.7,35.6-155.1,85.5-50.7,65.8-64.2,140.3-37.3,220.5,5.3,15.7,12.2,30.6,21,44.6,2.6,4.1,3.2,7.2.1,11-6.3,7.9-12.7,15.7-18.6,23.9-4.6,6.3-7.3,3.6-10.4-1.2-16.8-25.5-29.9-52.6-37.7-82.2-42.4-155.4,58.3-314.4,216.8-342.2,40.5-7.1,80.5-4.8,117.9,5.3l-1.4-10c-71.3-17.9-149.8-7.8-219.2,34.9-10.5,6.4-15.2,5-23.2-3.4C412.8-27.3,141.3,12.6,38.2,214.7c-80.2,157.3-22.9,347.9,131.1,435.8,124.7,71.2,281.5,53,386.2-45.2,5.9-5.5,9.1-5.2,15.4-.6,74.4,55.2,156.7,70.9,246.4,48.3,17.6-4.6,34.2-11.2,50.5-19,140.5-67.3,199.4-244.5,127.1-382.9Zm-431.8-.6c34.6,55.1,43.3,164.1-8.9,245.8-47.9-68.5-43.4-184,8.9-245.8Zm-39.7-49.4c-51.5,64.5-72.1,137.9-61,219.6,5.8,42.9,21.1,82.6,46.1,118.1,5.8,8.2,4.1,12-2.3,18-75.3,70.1-193.7,87.5-286.8,41.7C82.7,531.2,31.9,370.8,105,236.9c32.4-59.4,90.9-104.9,176.3-128.3,82.8-18.3,169.5,5.8,242,79.8,4.7,4.8,4.4,7.7.3,12.8Zm-120.9,475.2c-146.5,35.7-306.9-46-364.8-184.7-5.9-14.2-10.9-28.7-15-43.5C-19.6,292.5,61.6,127.7,210.3,67.7c123.3-49.8,262.5-19.4,354.3,76.8,6.8,7.1,7.3,10.8-1,16.7-8.2,5.8-15.3,13.1-22.4,20.3-4.4,4.4-6.8,5.8-12.1.2-57.7-60.7-128.5-89.6-212.3-86.3C166.7,101.5,47,240.6,63.6,389.3c16.4,146.7,135.4,250.1,282.2,243.2,82.3-3.9,150.5-39.5,199.6-105.8,64.2-86.8,72.2-180.9,28.3-279.3-2.5-5.6-2.6-9.4,1.7-13.9,8.1-8.3,16.3-16.5,24.9-24.2,5.9-5.3,8.4-5.9,12.5,2,48.3,92.9,53,188,10.2,283.4-43.2,96.2-118.1,156.7-220.5,181.6Z"/>
        <path class="cls-2" d="m331.3,695.6c-57.1,0-112.7-14.8-163-43.4-74.9-42.8-129.7-111.3-154.3-193-24.6-81.7-16.6-168.9,22.4-245.4,25.2-49.3,60.6-90.1,105.2-121.3,41.9-29.2,91-48.6,142-56.1,51-7.5,103.6-3,152.1,13,51.6,17,97.2,46,135.5,86.1,7.3,7.7,10.9,9,20.7,3,67.4-41.4,145.8-53.9,220.7-35.1l1.3.3,2,14.3-2.9-.8c-38.4-10.4-77.8-12.2-117.1-5.3-38.3,6.7-73.9,21.2-105.8,42.9-30.7,21-56.4,47.6-76.4,79.2-20.1,31.7-33.3,66.4-39.2,103.2-6.1,38.2-4,76.7,6.3,114.4,7.3,27.9,19.5,54.6,37.4,81.7.7,1.1,2.6,3.9,3.8,3.9.4,0,1.4-.3,3.3-2.9,5.6-7.7,11.6-15.2,17.4-22.4l1.3-1.6c2.3-2.8,2.2-4.8-.2-8.7-8.6-13.6-15.7-28.8-21.2-45-13.4-40-17-79.2-10.5-116.6,6.4-37,22.6-72.5,48.1-105.8,37.9-49.2,90.5-78.2,156.5-86.2,35.2-4.3,70.2-.4,104,11.7l1.1.4,2.1,15.2-3.1-1.2c-43.8-16.5-91.5-18.5-137.7-5.8-17.2,4-35.4,12-57.6,25.1-5.9,3.5-6.5,5.5-3.2,12,29.5,57.7,43.3,115.5,41.1,171.9-2.3,56.5-20.7,113.1-54.8,168.1-3.4,5.5-2.6,7.2,2,10.4,73.4,51.6,150.2,58.9,228.4,21.9,49.6-23.5,88.2-64.8,108.9-116.4,20.5-51.3,21.2-107.5,1.8-158-14.9-38.8-39.7-72.4-71.8-97.3l-2.7-2.1,14-6,.9.8c50.2,40.6,81.3,99.5,85.3,161.8,3,46.6-4.6,88.6-22.7,124.8-18.3,36.7-47.4,67.7-86.5,92-39.6,24.6-80.7,37.1-122.2,37.1h0c-40.7,0-82.3-12-123.6-35.7-3.2-1.8-6.2-4.5-9.1-7-5.1-4.5-9.9-8.7-14.3-7.6-4.2,1.1-7.6,6-11.2,11.2-2.5,3.5-5,7.2-8,10-2.6,2.4-3.9,4.4-3.8,5.9.1,1.9,2.7,4,5.5,6,42,29.6,85.7,47.4,129.9,53.1,44.9,5.7,91.5-1,138.5-20,57.6-23.3,105.7-67.2,135.4-123.5,29.6-56.1,38.9-120.7,26.1-181.7-11.4-54.4-38.7-103.4-79-141.8l-2.2-2.1,13.4-5.7,1,.9c21.7,21.3,39.9,46.1,54.3,73.7,17.8,34.1,28.1,71,30.6,109.7,2.4,37.3-2.4,74.3-14.3,110.2-11.9,35.8-30.2,68.3-54.4,96.5-25.1,29.4-55.4,52.6-89.9,69.1-18,8.6-34.7,14.9-50.9,19.1-45,11.4-88.7,13-129.8,5-41.3-8-81.1-26.1-118.3-53.7-5.8-4.3-7.9-4.2-12.9.4-51.7,48.4-116.2,78.4-186.7,86.6-13,1.5-25.9,2.3-38.8,2.3Zm.5-658.7c-15.9,0-31.9,1.1-47.7,3.5-50.4,7.4-98.9,26.5-140.3,55.4-44.1,30.7-79,71-103.9,119.8C1.4,291.2-6.4,377.3,17.8,458c24.3,80.7,78.4,148.5,152.5,190.7,60.9,34.7,129.8,48.8,199.4,40.7,69.6-8.1,133.4-37.7,184.4-85.6,7.1-6.6,11.6-5.4,18-.7,36.7,27.2,76,45,116.7,53,40.5,7.9,83.6,6.2,128-5,15.9-4.2,32.3-10.4,50.1-18.9,34-16.3,63.8-39.2,88.6-68.1,23.9-27.9,41.9-59.9,53.7-95.2,11.8-35.4,16.5-72,14.1-108.7-2.5-38.2-12.7-74.5-30.2-108.1h0c-14-26.8-31.7-50.9-52.6-71.8l-5.4,2.3c39.7,38.6,66.6,87.5,78,141.7,13,62,3.6,127.5-26.4,184.4-30.1,57.1-78.9,101.6-137.5,125.3-36.6,14.8-72.7,22.2-108.2,22.2-56.3,0-111.2-18.6-163.9-55.7-4.3-3-7-5.6-7.2-9-.2-2.8,1.4-5.7,5.1-9.1,2.7-2.5,5.1-6,7.4-9.3,4-5.8,7.9-11.4,13.5-12.8,6.4-1.7,12.2,3.5,17.9,8.4,2.8,2.4,5.6,4.9,8.5,6.6,82.7,47.4,164,47,241.7-1.3,38.4-23.9,67-54.3,85-90.4,17.7-35.6,25.2-76.9,22.2-122.8-3.9-60.8-34.1-118.3-82.9-158.2l-5.5,2.4c31.4,25.1,55.7,58.5,70.4,96.9,19.7,51.5,19.1,108.7-1.8,160.9-21,52.5-60.4,94.6-110.9,118.6-33.2,15.7-66.2,23.6-98.8,23.6-45.4,0-90.1-15.3-133.6-45.8-6.6-4.6-7.4-8.8-3.1-15.8,33.7-54.4,52-110.3,54.2-166.1,2.2-55.7-11.4-112.9-40.6-170-4.3-8.4-3.2-12.6,4.7-17.2,22.5-13.3,41.1-21.4,58.6-25.5,45.9-12.6,93.2-10.9,137,4.8l-.9-6.2c-32.9-11.6-66.9-15.3-101.1-11.1-64.9,7.9-116.6,36.4-153.8,84.7-51,66.3-63.4,139.8-37,218.7,5.4,15.9,12.3,30.8,20.8,44.1,2.4,3.9,4.1,8.2,0,13.3l-1.3,1.6c-5.8,7.2-11.8,14.7-17.3,22.2-1.4,1.9-3.6,4.5-6.5,4.5s0,0-.1,0c-3.1,0-5.2-2.9-7.1-5.7-18.2-27.4-30.6-54.5-37.9-82.8-10.4-38.2-12.6-77.2-6.3-116,6-37.3,19.4-72.5,39.7-104.7,20.3-32.1,46.4-59.1,77.6-80.4,32.4-22.1,68.5-36.8,107.4-43.6,38.9-6.8,77.8-5.3,115.9,4.6l-.8-5.6c-73.5-18.1-150.2-5.7-216.3,34.9-11.9,7.3-17.6,4.8-25.7-3.7-37.8-39.6-82.8-68.2-133.9-85-32.9-10.8-67.6-16.3-102.5-16.3Zm.4,649.8c-49.6,0-99.8-12-146.1-35.5-68.6-34.8-121.9-91.2-150.1-158.8-6-14.4-11.1-29.1-15.1-43.7C.3,372.9,8.2,292.1,43.1,221.1c34.9-71,94-126.1,166.4-155.3,124-50.1,263.9-19.7,356.5,77.3,3.7,3.9,6,7.2,5.7,10.8-.3,3-2.4,5.7-7,9-7.6,5.4-14.4,12.3-21,18.9l-1.2,1.2c-2.4,2.4-4.7,4.5-7.5,4.5s0,0,0,0c-2.3,0-4.6-1.4-7.4-4.3-28.5-30-60.7-52.5-95.7-66.7-35-14.2-73.7-20.6-115.1-18.9-71.1,2.9-139.6,36.8-187.9,93-48.1,56-71.2,128.4-63.3,198.6,7.9,70.5,40.4,133.7,91.5,177.9,51.2,44.3,118.2,66.9,188.6,63.5,40.8-1.9,78.3-11.8,111.4-29.2,33.3-17.6,62.5-43.1,86.6-75.7,62.8-84.9,72.3-178.2,28.1-277.3-2.5-5.7-3.1-10.6,2.1-16.1,9.3-9.6,17.2-17.3,25-24.3,3.5-3.2,6.1-4.9,8.9-4.4,2.5.4,4.4,2.5,6.8,7,49.2,94.7,52.6,190.7,10.2,285.1-43,95.9-117.7,157.4-221.9,182.8h0c-23.2,5.6-47,8.4-70.9,8.4Zm-.8-640.7c-40.4,0-81.2,7.7-120.4,23.5-71.4,28.8-129.8,83.3-164.3,153.4C12.2,293,4.4,372.8,24.8,447.6c4,14.5,9,29.1,14.9,43.3,27.8,66.7,80.4,122.4,148.2,156.8,67.8,34.4,143.9,43.9,214.3,26.8l.5,1.9-.5-1.9c102.9-25.1,176.7-85.8,219.2-180.5,41.9-93.3,38.5-188.1-10.1-281.7-1.6-3.1-2.9-4.7-3.9-4.9-1.3-.2-3.6,1.7-5.5,3.4-7.7,6.9-15.6,14.6-24.8,24.1-3.4,3.6-3.8,6.3-1.4,11.7,44.8,100.5,35.2,195.2-28.6,281.3-24.5,33.1-54.1,59-88,76.9-33.6,17.8-71.7,27.8-113.1,29.7-4.6.2-9.2.3-13.7.3-66.4,0-129-22.8-177.7-64.8-51.9-44.8-84.9-108.9-92.9-180.5-8-71.3,15.4-144.8,64.2-201.7,49-57.1,118.6-91.5,190.8-94.4,84-3.4,155.9,25.8,213.9,86.9,2,2.1,3.4,3.1,4.5,3.1h0c1.2,0,2.6-1.2,4.7-3.3l1.2-1.2c6.7-6.8,13.6-13.8,21.5-19.4,3.5-2.5,5.2-4.4,5.3-6.1.2-1.8-1.2-4.1-4.6-7.6-62.1-65.1-145.9-99.8-231.7-99.8Zm0,579.8c-39.5,0-78.5-8.7-112.8-25.6-66.6-32.8-115.3-88.5-137-156.9-21.7-68.5-14.1-142.1,21.5-207.5,16.6-30.4,39.8-56.8,68.8-78.3,30.2-22.3,66.7-39.5,108.7-50.9,87.7-19.4,174.3,9.1,243.9,80.3,5.9,6,4.7,10.1.5,15.4l-1.6-1.2,1.6,1.2c-51.1,64.1-71.5,137.4-60.5,218,5.8,43,21.2,82.4,45.8,117.2,6.5,9.3,4.2,14.2-2.6,20.6-36.7,34.2-85.7,57.2-137.8,64.8-12.8,1.9-25.6,2.8-38.4,2.8Zm2.7-521.1c-17.4,0-34.9,1.9-52.5,5.8-41.3,11.3-77.5,28.2-107.2,50.3-28.6,21.2-51.4,47.1-67.7,77-35.1,64.3-42.6,136.9-21.2,204.3,21.4,67.3,69.3,122.2,134.9,154.5,44.7,22,97.5,29.9,148.9,22.5,51.3-7.5,99.5-30.1,135.6-63.8,6-5.6,7-8.3,2.1-15.3-24.9-35.3-40.5-75.3-46.5-119-11.1-81.8,9.5-156.1,61.4-221.1h0c3.6-4.6,3.6-6.3-.2-10.2-54.6-55.8-119.8-85-187.6-85Zm220.1,395.2l-1.7-2.5c-23-33-35.2-79.1-33.5-126.7,1.8-47.5,17.3-91.8,42.5-121.6l1.8-2.1,1.5,2.3c18.1,28.8,28.5,70.3,28.4,114,0,34.5-6.5,85.7-37.4,133.9l-1.6,2.5Zm8.6-246c-23.7,29.1-38.1,71.6-39.8,117-1.7,45.5,9.6,89.6,31.1,121.7,28.9-46.6,35.1-95.9,35.1-129.2,0-41.7-9.6-81.5-26.4-109.5Z"/>
      </g>
    </g>
  </g>
</svg>